<svg width="240" height="324" viewBox="0 0 240 324" fill="none" xmlns="http://www.w3.org/2000/svg">
<path fill-rule="evenodd" clip-rule="evenodd" d="M49.1622 285.363C50.2762 287.056 52.4675 286.796 53.4083 285.485C64.1208 287.982 75.1031 286.997 85.9646 286.385C116.572 285.14 147.351 289.045 177.834 284.959C181.068 284.312 184.832 284.622 187.478 282.378C191.71 277.417 190.798 269.885 190.124 263.842C184.72 229.78 177.038 195.406 173.206 161.125C172.992 157.859 174.337 153.802 175.543 150.732C175.841 150.161 177.723 149.602 178.7 148.943C181.698 146.79 181.212 142.932 178.613 140.668C170.198 134.734 158.484 136.808 149.557 138.997C147.847 132.569 145.924 128.342 142.666 127.923C136.467 127.126 121.428 124.691 116.796 127.923C114.58 129.469 113.157 134.917 111.562 137.571C99.9281 137.365 76.3162 121.794 71.4619 139.328C67.518 139.6 63.6116 143.045 64.3661 147.178C59.2511 151.7 63.2854 158.48 63.2147 164.108C62.5422 176.049 56.0833 186.728 53.3962 198.263C47.254 220.636 40.3021 261.331 47.9202 283.169C47.7562 283.083 47.3981 283.212 47.6301 283.394C48.4927 283.637 48.6049 284.724 49.1622 285.363Z" fill="white"/>
<path fill-rule="evenodd" clip-rule="evenodd" d="M182.916 279.674C181.487 268.199 180.494 254.346 180.482 242.775C180.481 241.686 182.171 241.688 182.173 242.775C182.184 254.346 183.178 268.199 184.606 279.674C184.741 280.753 183.049 280.739 182.916 279.674M172.332 208.524C170.124 209.875 167.225 208.938 165.04 208.043C164.045 207.636 164.483 206.001 165.489 206.413C167.152 207.094 169.582 208.096 171.337 207.146C173.089 206.199 173.168 203.592 173.181 201.872C173.189 200.782 174.879 200.783 174.871 201.872C174.853 204.212 174.54 207.172 172.332 208.524M168.245 261.035C166.018 259.893 164.117 258.332 162.588 256.35C161.923 255.488 163.392 254.647 164.047 255.496C165.393 257.241 167.147 258.575 169.098 259.576C170.068 260.073 169.211 261.531 168.245 261.035M157.539 202.026C153.717 217.347 151.152 232.942 149.895 248.684C149.64 251.879 149.46 255.071 149.359 258.264C149.257 259.097 149.16 259.932 149.069 260.767C148.725 263.924 148.461 267.132 148.484 270.311C148.495 271.738 148.539 273.158 148.636 274.58C148.467 274.105 148.311 273.627 148.159 273.152C147.848 272.177 147.643 271.167 147.326 270.199C147.064 269.398 146.726 268.631 146.411 267.855V267.853C146.507 264.677 146.291 261.47 146.181 258.309C146.04 254.213 145.864 250.121 145.773 246.023C145.592 237.827 145.683 229.624 145.978 221.432C146.572 204.926 148.072 188.498 149.585 172.059C150.005 167.487 150.457 162.918 150.77 158.338C151.085 153.709 151.211 149.072 151.247 144.431C151.249 144.097 150.742 144.008 150.649 144.332C150.567 143.231 150.421 142.131 150.178 141.068C153.823 143.393 157.666 145.403 161.433 147.517C163.416 148.631 165.392 149.763 167.437 150.761C168.561 151.31 169.695 151.816 170.853 152.293C172.053 152.788 173.2 153.468 174.521 153.124C174.635 153.094 174.742 153.052 174.846 152.997C174.696 153.282 174.546 153.566 174.402 153.853C173.904 154.844 173.428 155.84 172.968 156.844C172.845 156.934 172.737 157.059 172.653 157.222C172.429 157.659 172.211 158.101 172 158.549C171.958 158.509 171.916 158.469 171.873 158.429C171.696 158.262 171.451 158.513 171.607 158.695C171.679 158.777 171.749 158.858 171.818 158.94C170.441 161.905 169.321 165.023 168.168 168.066C166.75 171.807 165.407 175.576 164.141 179.369C161.646 186.832 159.445 194.392 157.539 202.026M102.899 257.627C95.8549 261.401 89.2727 265.91 82.9418 270.775C82.0788 271.438 81.2379 269.968 82.0887 269.315C88.4196 264.451 95.002 259.941 102.046 256.167C103.005 255.653 103.858 257.113 102.899 257.627M79.1079 213.43C78.7418 213.403 78.386 213.19 78.2931 212.809C77.7225 210.472 77.2756 207.926 77.8063 205.542C78.0429 204.479 79.672 204.932 79.436 205.992C79.0175 207.872 79.3501 209.903 79.7846 211.778C85.9281 212.047 91.9891 209.842 97.8668 208.361C98.9238 208.094 99.3702 209.726 98.3162 209.991C92.0813 211.562 85.6321 213.913 79.1079 213.43M201.411 275.77C201.417 275.756 201.423 275.739 201.428 275.724C201.789 274.629 201.797 273.357 201.838 272.209C201.907 270.167 201.833 268.122 201.649 266.086C201.261 261.802 200.424 257.588 199.425 253.409C197.445 245.133 194.648 237.081 193.129 228.692C190.148 212.226 190.856 195.081 185.006 179.198C182.574 172.596 179.101 166.249 174.381 161.003C174.726 159.955 175.061 158.904 175.389 157.85C175.961 156.015 176.547 154.121 176.899 152.232C176.908 152.181 176.918 152.128 176.925 152.076C178.934 151.209 180.761 149.575 181.074 147.403C181.209 146.464 181.053 145.424 180.647 144.518C181.476 143.753 182.008 142.759 181.881 141.428C181.645 138.921 178.719 138.276 176.682 137.786C174.366 137.23 171.964 137.076 169.596 137.338C168.4 137.469 167.217 137.689 166.061 138.019C165.058 138.304 163.966 138.598 163.161 139.287C163.066 139.367 163.144 139.523 163.258 139.523C164.887 139.517 166.509 138.919 168.155 138.841C169.879 138.76 171.599 138.902 173.289 139.257C174.941 139.604 176.589 140.111 178.091 140.895C178.514 141.117 179.133 141.267 178.636 141.715C178.273 142.043 177.559 142.07 177.092 142.119C176.059 142.227 175.167 142.831 175.036 143.934C174.92 144.909 175.501 146.012 176.536 146.232C176.593 146.245 176.646 146.259 176.692 146.278C176.72 146.331 176.762 146.375 176.758 146.304C176.758 146.304 176.76 146.301 176.76 146.304C176.785 146.458 176.794 146.519 176.794 146.53C176.788 146.517 176.777 146.464 176.769 146.422C176.775 146.46 176.788 146.521 176.804 146.612C176.781 146.513 176.8 146.756 176.781 146.794C176.232 147.808 174.607 148.094 173.661 148.531C173.477 148.616 173.319 148.715 173.183 148.827C172.959 148.749 172.731 148.671 172.501 148.584C171.366 148.159 170.234 147.747 169.085 147.364C166.866 146.623 164.621 145.961 162.402 145.217C158.202 143.81 154.142 142.032 150.02 140.422C149.889 139.936 149.737 139.46 149.557 138.997C149.521 138.9 149.348 138.868 149.329 138.997C149.266 139.407 149.215 139.819 149.173 140.234C149.156 140.272 149.152 140.314 149.16 140.354C148.921 142.763 148.985 145.23 148.862 147.637C148.71 150.638 148.285 153.618 148.165 156.622V156.677C147.721 159.24 147.32 161.812 146.957 164.393C146.549 164.266 146.082 164.292 145.604 164.547C142.228 166.35 138.434 167.354 134.616 167.578C132.694 167.69 130.79 167.627 128.878 167.405C127.621 167.261 126.383 166.999 125.143 166.75C125.796 164.013 126.497 161.288 127.29 158.592C127.942 156.374 128.669 154.168 129.567 152.035C130.473 149.882 131.602 147.825 132.652 145.737C133.135 144.771 132.565 143.294 131.308 143.395C130.936 143.425 130.564 143.448 130.19 143.465C126.552 143.639 122.769 143.233 119.177 142.871C115.089 142.457 110.946 142.028 106.894 141.354C106.594 141.305 106.471 141.713 106.767 141.812C108.69 142.459 110.589 143.19 112.56 143.674C114.588 144.175 116.629 144.632 118.687 144.989C120.658 145.329 122.638 145.615 124.623 145.855C125.919 146.014 127.228 146.094 128.532 146.2C126.776 149.007 125.566 152.173 124.511 155.29C123.157 159.293 122.162 163.412 121.188 167.523C119.105 176.334 117.388 185.234 116.044 194.189C115.08 200.61 114.301 207.056 113.716 213.519C113.542 211.556 113.331 209.599 113.092 207.644C112.294 201.153 111.128 194.705 109.569 188.354C109.708 188.109 109.773 187.815 109.727 187.53C109.446 185.784 108.707 184.264 108.058 182.645C107.414 180.384 106.719 178.137 105.971 175.907C105.121 172.87 104.169 169.88 102.949 166.959C102.018 164.733 100.955 162.565 99.772 160.462C98.3586 157.522 96.8058 154.646 95.1009 151.896C95.0122 151.64 94.8685 151.401 94.6636 151.201C94.353 150.71 94.0382 150.226 93.7171 149.746C93.5079 149.434 92.9079 149.624 93.0664 150.021C93.1403 150.207 93.2143 150.393 93.2903 150.577C86.346 148.84 79.5368 151.496 72.922 153.458C71.253 153.954 69.5671 154.402 67.8558 154.726C66.51 154.979 64.9424 155.288 63.6009 155.009C62.703 154.823 62.3058 154.415 62.7431 153.456C63.1953 152.463 64.4291 151.809 65.5002 151.37C65.9037 151.283 66.3009 151.129 66.6833 150.896C67.5748 150.355 67.9657 149.227 67.5453 148.265C67.1629 147.396 66.0474 146.648 65.0608 147.045C64.9192 147.102 64.7798 147.157 64.6403 147.212C64.6255 147.191 64.6086 147.162 64.5939 147.119C64.4523 146.733 64.391 147.196 64.4523 146.642C64.5537 145.737 65.5108 144.915 66.1657 144.397C67.7946 143.106 70.1481 142.151 72.2502 142.639C72.4086 142.675 72.5671 142.719 72.7234 142.774C74.8889 143.524 75.9431 140.405 74.2129 139.242C74.1072 139.173 73.9741 139.084 73.8284 138.98C73.1079 138.479 72.0537 137.636 72.341 136.875C72.696 135.93 74.7896 135.387 75.5819 135.066C78.4467 133.904 81.5417 133.244 84.6305 133.109C87.7382 132.974 90.8861 133.316 93.884 134.155C95.3544 134.565 96.865 135.189 98.2551 135.819C99.5037 136.383 102.221 137.129 102.394 138.71C102.432 139.059 102.928 139.177 103.036 138.796C103.888 135.761 100.583 133.802 98.403 132.549C96.9727 131.724 95.3502 131.211 93.7805 130.706C92.2762 130.22 90.7403 129.863 89.1727 129.647C85.8072 129.186 82.4016 129.245 79.0636 129.892C76.0234 130.482 72.641 131.488 70.184 133.445C68.6755 134.645 67.9931 136.556 68.5995 138.42C68.6206 138.481 68.6417 138.545 68.6629 138.606C65.9481 139.092 63.3791 140.648 61.6615 142.816C60.2502 144.598 59.5108 147.077 60.7741 149.151C60.7213 149.188 60.6685 149.229 60.6178 149.271C59.4136 150.235 58.5178 151.634 58.2516 153.164C57.7298 156.182 59.553 158.293 62.103 159.101C61.4713 159.718 60.865 160.373 60.2713 161.028C58.9424 162.497 57.6727 164.097 56.553 165.729C54.284 169.034 52.3446 172.634 50.6481 176.26C47.16 183.708 44.9608 191.725 43.7946 199.853C43.2072 203.949 42.8143 208.066 42.6643 212.2C42.491 216.914 42.6664 221.629 42.5755 226.344C42.4868 230.875 41.9861 235.297 40.9741 239.714C40.0044 243.939 38.7115 248.079 37.541 252.249C36.2206 256.945 34.7671 261.62 34.0699 266.463C33.7171 268.927 33.4636 271.398 33.66 273.889C33.8586 276.428 34.7798 278.598 35.6291 280.959C35.8446 281.562 36.5016 281.804 37.0277 281.676C37.146 282.806 37.5727 283.909 38.2086 284.865C39.5586 286.89 41.6375 288.181 44.0185 288.65C46.7016 289.176 49.4671 289.052 52.184 288.954C55.1312 288.849 58.0805 288.754 61.0277 288.631C64.1132 288.504 67.1986 288.373 70.2841 288.241C70.1821 285.077 70.0604 281.915 69.9229 278.752C69.179 261.657 68.0075 244.552 67.9765 227.435C67.9167 227.4 67.8579 227.358 67.8017 227.304C66.4127 225.961 64.7073 225.079 63.105 224.027C62.1983 223.432 63.0459 221.969 63.9581 222.568C65.309 223.454 66.7167 224.241 67.9826 225.234C67.99 223.453 68.0056 221.671 68.0409 219.889C68.0624 218.8 69.7526 218.8 69.731 219.889C69.625 225.259 69.6605 230.631 69.7819 236.001C70.1751 253.403 71.411 270.773 71.9738 288.169C80.2555 287.815 88.5377 287.458 96.8206 287.156C103.558 286.911 110.295 286.665 117.033 286.42C118.446 286.37 119.24 285.359 119.414 284.038C119.73 281.608 119.135 279.095 117.787 277.051C117.647 276.84 117.483 276.652 117.299 276.491C117.33 275.035 117.39 273.576 117.307 272.12C117.185 269.897 117.001 267.674 116.84 265.452C116.515 261.003 116.264 256.546 116.164 252.086C115.961 243.167 116.109 234.24 116.614 225.334C117.626 207.54 119.982 189.861 123.838 172.456C124.119 171.188 124.402 169.92 124.695 168.654C127.693 170.211 131.34 170.771 134.616 170.793C138.723 170.818 142.74 169.873 146.449 168.155C146.424 168.347 146.399 168.538 146.376 168.73C145.34 176.973 144.468 185.232 143.707 193.502C142.19 209.99 141.261 226.545 141.39 243.106C141.426 247.695 141.601 252.268 141.819 256.85C142.04 261.511 142.38 266.435 143.678 270.93C143.821 271.427 144.14 271.712 144.508 271.816C144.527 272.471 144.569 273.129 144.616 273.775C144.766 275.878 145.195 280.247 146.111 282.153C147.005 284.013 148.495 285.488 150.394 286.3C152.807 287.329 155.416 287.033 157.964 286.868C169.042 286.146 180.113 285.178 191.185 284.328C192.728 284.21 194.27 284.093 195.81 283.973C197.181 283.867 198.599 283.774 199.816 283.062C201.199 282.253 202.279 278.277 201.802 276.633C201.715 276.333 201.584 276.037 201.411 275.77" fill="#363636"/>
<path fill-rule="evenodd" clip-rule="evenodd" d="M164.267 102.294C163.812 98.2965 164.4 89.9405 164.44 89.4328C164.689 86.2235 163.186 73.5503 160.344 74.718C155.578 70.9431 149.229 70.1095 143.292 69.7113C130.961 68.8841 117.843 70.7831 108.321 79.0849C103.612 83.3963 99.0281 89.6668 99.3965 96.1958C95.1182 102.385 89.0867 110.874 94.4173 118.109C96.2293 120.421 99.1091 121.281 101.385 123.032C105.964 126.726 108.836 132.028 113.458 135.701C125.704 146.709 146.496 149.008 158.527 136.488C167.83 127.42 166.326 113.854 164.689 102.294C163.589 94.5223 165.154 110.093 164.267 102.294Z" fill="white"/>
<path fill-rule="evenodd" clip-rule="evenodd" d="M126.82 52.7584C130.118 52.0926 133.504 51.6784 136.872 51.8031L137.131 51.8131C139.665 51.9145 142.875 52.1386 145.085 53.6126C145.212 53.485 145.417 53.4195 145.602 53.508C148.229 54.7624 151.118 55.6693 153.884 56.5705C156.638 57.4672 159.494 58.0592 162.38 58.2978C163.465 58.3877 164.394 59.5605 163.707 60.6123C163.544 60.863 163.384 61.1162 163.226 61.37C163.491 61.3423 163.756 61.3138 164.022 61.287C164.895 61.199 165.767 62.1313 165.715 62.9818C165.683 63.5167 165.625 64.0453 165.54 64.5676C165.873 64.5606 166.203 64.6105 166.523 64.7455C168.14 65.4288 168.027 67.3561 167.906 68.8225C167.739 70.8573 166.978 73.0127 165.565 74.5357C166.62 75.6315 167.367 76.9402 167.812 78.4945C168.135 79.6294 168.315 80.8384 168.226 82.0198L168.198 82.3735C168.088 83.6556 167.87 85.0751 166.948 85.9974C166.475 86.4729 165.892 86.6463 165.336 86.5913C165.672 89.546 165.887 92.5176 166.09 95.4786L166.185 96.8938C166.638 103.737 166.978 110.625 166.889 117.48C166.806 123.886 165.541 130.104 161.613 135.305C158.036 140.042 152.901 143.533 147.091 144.861C143.96 145.577 140.763 145.628 137.594 145.171C136.058 144.949 134.512 144.609 133.054 144.072C131.44 143.476 130.28 142.599 129.194 141.285C128.681 140.661 128.928 139.334 129.951 139.458C131.497 139.646 132.909 139.872 134.392 140.33L134.605 140.397C136.082 140.87 137.611 141.223 139.155 141.373C142.318 141.68 145.529 141.371 148.559 140.412C153.492 138.848 157.741 135.362 160.464 130.983C163.696 125.793 164.062 119.9 164.015 113.932C163.965 107.382 163.752 100.829 163.405 94.2863L163.346 93.196C163.162 89.8292 162.984 86.4603 162.828 83.0913C162.78 82.0346 162.706 80.9694 162.572 79.9148C161.354 79.2004 160.261 78.2155 159.549 77.0002C158.119 77.592 156.615 78.0189 155.231 78.3592C152.025 79.148 148.697 79.3395 145.434 78.8455C144.554 79.2093 143.656 79.529 142.744 79.8042C142.498 79.9135 142.252 80.0208 142.006 80.1261C139.808 81.0666 137.579 81.8634 135.26 82.4467L134.69 82.5889C133.469 82.8899 132.143 83.1864 130.844 83.2794C130.631 83.3619 130.401 83.4316 130.149 83.4929C128.966 83.7803 127.739 83.8712 126.526 83.7698C125.345 83.6704 124.491 82.4763 125.142 81.3583C125.617 80.5425 126.097 79.7288 126.581 78.9172C124.897 79.6189 123.158 80.2022 121.405 80.6967C119.635 81.1955 117.839 81.6161 116.041 82.0029C115.079 82.2079 114.114 82.3897 113.155 82.5947C112.468 82.7405 111.414 82.8166 110.854 83.2689C110.235 83.7656 110.06 84.9238 109.825 85.6381C109.517 86.5659 109.227 87.498 108.963 88.4406C108.437 90.3216 108.006 92.2301 107.673 94.1576C107.339 96.0873 107.115 98.0359 106.99 99.9909C106.865 101.944 106.92 103.909 106.72 105.854C106.612 106.885 105.505 107.416 104.687 106.695C104.591 106.61 104.495 106.525 104.399 106.439L104.256 106.308C103.557 105.674 102.879 105.002 102.319 104.245C102.218 104.106 102.12 103.96 102.03 103.812C102.015 103.812 102.002 103.808 101.987 103.797L101.832 103.681C100.123 102.408 97.2689 100.75 95.6028 102.863C95.0719 103.537 94.8001 104.394 94.5745 105.221L94.1786 106.701C93.9226 107.668 93.6816 108.64 93.5406 109.628C93.2216 111.843 93.3822 114.397 94.9056 116.172C95.5141 116.882 96.3528 117.389 97.2885 117.522C97.8106 117.594 98.3261 117.506 98.8437 117.44C99.3697 117.374 99.8765 117.48 100.403 117.429C101.239 117.347 101.605 118.349 101.292 118.979C101.123 119.317 100.924 119.608 100.699 119.856C100.88 120.012 101.054 120.181 101.22 120.359C101.715 120.517 102.158 120.858 102.49 121.308C102.758 121.671 102.898 122.066 102.921 122.483C102.95 122.586 102.976 122.692 102.999 122.8L103.453 123.536C103.552 123.697 103.652 123.857 103.751 124.013C104.905 125.831 106.185 127.369 107.776 128.819C109.308 130.214 110.97 131.463 112.409 132.959L112.579 133.137C113.92 134.551 115.334 136.263 114.809 138.319C114.674 138.848 113.936 139.228 113.455 138.871C111.906 137.721 111.127 135.899 109.813 134.504C108.46 133.067 106.962 131.776 105.606 130.343C104.324 128.99 103.312 127.458 102.549 125.771C102.245 126.107 101.801 126.346 101.187 126.439C100.13 126.598 99.1456 125.979 98.6852 125.063C98.3892 125.194 98.0873 125.313 97.7829 125.406C96.1815 125.896 95.1739 124.114 95.7782 122.798C96.1012 122.092 96.5047 121.479 97.0056 120.963C95.4399 120.748 93.847 119.938 92.8181 118.928C90.2366 116.39 89.8817 112.575 90.4627 109.183C90.7711 107.384 91.3033 105.564 91.9944 103.876C92.1146 103.582 92.2437 103.286 92.385 102.994C92.3068 102.992 92.2266 102.958 92.1758 102.893C91.7089 102.254 91.1408 101.732 90.7942 101.018C90.4751 100.363 90.1204 99.6993 89.8688 99.0166C89.3514 97.6196 89.0979 96.0429 88.9289 94.5656C88.5803 91.5411 88.7153 88.5357 89.1782 85.5303C89.966 80.4114 91.8691 75.5127 94.6728 71.2143C94.5202 71.1341 94.3739 71.0372 94.2375 70.9226L94.1702 70.8639L94.0608 70.765C93.2607 70.0407 93.3298 68.6832 94.0608 67.9496L94.2916 67.7181C94.584 67.4275 94.8361 67.1973 95.3083 66.881C95.378 66.8343 95.4492 66.7903 95.5213 66.7493C95.2741 66.2924 95.1883 65.7581 95.3605 65.1686C95.9605 63.1152 98.914 63.1879 100.786 64.0833C102.857 62.2342 105.154 60.629 107.643 59.3292C113.571 56.2351 120.274 54.0772 126.82 52.7584ZM96.1754 106.843C97.2825 106.481 98.7529 107.24 99.7479 107.697C101.009 108.276 102.082 109.132 103.122 110.036C103.639 110.489 103.732 111.228 103.604 111.86C103.591 111.924 103.578 111.989 103.563 112.055C103.426 112.729 102.674 113.26 102.008 113.24C100.616 113.202 99.9529 112 99.1646 110.981C99.0719 111.146 98.9557 111.298 98.8118 111.412L98.7147 111.488C98.3876 111.738 98.0271 111.937 97.5949 111.917C97.2886 111.903 96.9951 111.824 96.7245 111.683C96.0484 111.326 95.7508 110.451 95.9344 109.738C96.0484 109.29 96.3104 108.94 96.6527 108.696L96.5251 108.609C96.2521 108.419 96.0031 108.219 95.8091 107.923L95.7653 107.853H95.7822C95.571 107.49 95.7085 106.995 96.1754 106.843Z" fill="#363636"/>
<path fill-rule="evenodd" clip-rule="evenodd" d="M143.152 128.274C141.732 127.695 140.465 126.728 139.538 125.493C139.216 125.063 139.133 124.61 139.2 124.195C139.276 123.729 139.552 123.306 139.928 123.023C140.305 122.739 140.777 122.598 141.233 122.67C141.63 122.732 142.024 122.949 142.337 123.399L142.402 123.489C142.953 124.235 143.67 124.846 144.488 125.241C145.276 125.621 146.158 125.798 147.07 125.695C148.808 125.499 150.005 124.559 151.278 123.282C151.436 123.121 151.594 122.955 151.752 122.786C151.852 122.633 151.991 122.534 152.146 122.483C152.317 122.425 152.511 122.429 152.689 122.491C152.86 122.55 153.013 122.664 153.116 122.815C153.213 122.958 153.269 123.135 153.251 123.339C153.134 124.661 152.443 125.842 151.461 126.769C150.37 127.799 148.924 128.511 147.563 128.761C146.064 129.036 144.536 128.839 143.152 128.274ZM148.271 107.866C149.866 108.836 152.297 111.098 150.581 113.503C148.56 115.624 145.652 113.193 144.219 112.093C142.889 111.241 141.396 113.433 142.629 114.428C152.986 122.099 157.19 108.12 149.078 106.726C148.184 106.572 147.853 107.566 148.271 107.866ZM129.711 98.9429C129.887 96.7541 133.219 96.257 133.551 98.423C133.847 100.363 133.498 102.145 132.624 103.892C131.79 105.561 129.692 104.783 129.533 103.263C129.32 101.226 129.601 100.304 129.711 98.9429ZM155.076 97.9739C155.541 97.3652 156.211 96.9497 157.015 97.1845C159.526 97.9185 158.786 101.485 157.904 103.22C157.425 104.163 155.876 104.402 155.176 103.572C154.035 102.219 153.489 99.5157 154.939 98.1825C154.979 98.1136 155.022 98.044 155.076 97.9739ZM132.589 89.3654L132.986 89.2959C134.213 89.0836 135.738 88.8796 136.606 89.8665C137.067 90.3898 137.225 91.3624 136.606 91.8633C135.518 92.7446 134.314 92.4031 133.01 92.4777C131.935 92.5394 130.902 92.7174 129.867 93.0135C127.595 93.6629 125.744 94.8486 123.804 96.1505C123.55 96.3213 123.29 95.9956 123.411 95.7574C124.531 93.563 126.701 91.7604 128.875 90.6616C130.036 90.0751 131.305 89.5885 132.589 89.3654ZM152.787 88.3823L153.091 88.4445C156.394 89.1353 160.687 90.5153 162.251 93.7615C162.311 94.2205 162.248 94.3189 162.196 94.3832L162.179 94.4046C162.137 94.4595 162.104 94.5351 161.905 94.5976C161.849 94.5844 161.794 94.5705 161.737 94.5557C161.02 94.3677 160.453 94.1087 159.904 93.84L159.308 93.5465C158.617 93.2076 157.92 92.881 157.181 92.6399C155.605 92.1255 153.983 91.7631 152.337 91.5696C151.98 91.5277 151.636 91.4072 151.365 91.2006C151.107 91.0046 150.911 90.7332 150.821 90.3724C150.705 89.9056 150.738 89.5521 150.989 89.1309C151.177 88.8146 151.447 88.5953 151.756 88.4694C152.071 88.3411 152.43 88.3108 152.787 88.3823Z" fill="#363636"/>
<path fill-rule="evenodd" clip-rule="evenodd" d="M129.449 129.598C131.159 125.59 134.893 122.644 139.191 121.566C142.347 120.777 145.66 120.803 148.877 121.116C150.563 121.279 152.371 121.412 153.96 122.038C155.317 122.573 156.422 123.585 157.253 124.772C158.243 126.179 158.916 127.789 159.389 129.439C159.456 129.674 159.519 129.91 159.578 130.148C159.372 131.393 158.936 132.453 157.783 133.235C156.658 134 155.316 134.313 153.978 134.424C153.846 134.361 153.72 134.296 153.603 134.229C151.518 133.035 150.051 130.213 147.419 130.595C145.07 130.936 143.524 133.893 142.127 135.626C137.644 136.149 133.164 134.801 129.516 132.236C129.33 131.359 129.32 130.473 129.449 129.598M162.625 126.557C162.266 125.551 161.815 124.575 161.279 123.657C159.509 120.619 156.791 118.198 153.565 116.814C145.934 113.546 136.06 115.85 129.897 121.211C127.792 123.044 125.663 125.737 125.019 128.634C124.827 128.672 124.646 128.772 124.496 128.913C120.044 126.108 115.458 123.41 111.87 119.523C109.264 116.698 107.452 113.355 106.342 109.682C106.251 109.38 105.764 109.424 105.779 109.759C105.783 109.837 105.787 109.915 105.792 109.993C105.745 109.849 105.526 109.923 105.509 110.063C104.912 114.525 104.165 119.256 104.853 123.741C105.264 126.418 106.479 128.377 108.104 130.493C109.845 132.761 111.815 134.87 113.83 136.893C115.109 138.177 116.444 139.658 118.01 140.6C119.831 141.694 121.896 142.525 123.839 143.369C125.816 144.23 127.823 145.026 129.867 145.716C133.954 147.099 138.178 148.056 142.476 148.475C145.917 148.809 149.85 149.173 153.148 147.878C155.675 146.886 157.715 145.092 159.334 142.933C161.095 140.583 162.488 137.905 163.258 135.082C164.058 132.149 162.794 127.03 162.625 126.557" fill="#363636"/>
</svg>
