<svg width="240" height="324" viewBox="0 0 240 324" fill="none" xmlns="http://www.w3.org/2000/svg">
<path fill-rule="evenodd" clip-rule="evenodd" d="M192.496 217.789C192.496 216.078 190.13 213.043 190.126 211.494C192.115 211.138 193.778 208.442 193.337 206.753C192.561 206.16 190.526 204.991 189.684 204.445C184.556 204.601 186.505 197.464 185.925 193.836C185.34 190.287 184.906 186.575 184.051 183.006C182.532 180.15 181.819 176.948 180.367 174.106C179.719 173.164 178.671 172.301 178.357 171.206C175.181 167.736 170.809 165.656 167.211 162.717C168.607 162.269 168.514 160.385 168.424 159.175C168.749 157.597 168.401 155.617 166.962 154.727C166.476 153.142 164.35 152.589 163.107 153.599C162.291 149.938 159.096 147.716 155.749 146.358C155.752 146.347 155.755 146.336 155.758 146.326C152.383 144.986 148.338 144.318 144.971 145.071C146.748 125.257 131.579 124.53 123.88 126.195C119.942 127.047 114.033 129.698 112.691 133.384C111.933 135.465 109.759 142.177 109.449 144.318C103.57 140.962 96.7547 136.536 91.6555 143.293C90.6345 144.47 89.5046 145.345 87.9767 145.749C83.2063 146.988 76.8746 147.029 74.1632 151.894C72.5426 154.908 74.0001 156.894 73.5647 159.909C52.0908 174.994 34.1455 230.57 38.1748 256.425C39.1441 265.678 43.8765 282.055 55.5573 280.013C61.515 286.532 161.513 286.532 171.824 280.013C180.312 282.234 188.936 278.796 192.496 270.664C197.016 259.512 192.226 247.469 191.377 236.03C190.861 233.142 190.094 230.849 189.684 227.893C189.513 226.661 190.103 224.611 189.684 223.475C189.882 222.736 192.496 219.499 192.496 217.789Z" fill="#FCFCFC"/>
<path fill-rule="evenodd" clip-rule="evenodd" d="M145.228 138.667C145.464 139.679 145.248 140.819 145.288 141.858C145.325 142.85 145.442 143.837 145.615 144.814C147.428 143.86 149.57 143.738 151.637 144.045C154.309 144.442 157.402 145.321 159.497 147.108C160.014 147.549 160.442 148.072 160.801 148.647C161.232 149.339 161.507 150.119 162.189 150.614C163.245 151.381 164.554 151.677 165.569 152.526C166.604 153.392 167.247 154.686 167.383 156.021C167.455 156.732 167.338 157.396 167.203 158.089C167.082 158.713 167.142 158.969 167.306 159.569C167.435 160.041 167.189 160.576 166.788 160.836C167.647 161.426 168.495 162.034 169.329 162.668C174.183 166.354 178.288 170.948 181.134 176.355L181.203 176.489L181.283 176.65C181.976 178.076 183.791 182.243 184.016 183.18C184.177 183.669 184.333 184.16 184.479 184.654C184.862 185.964 185.187 187.29 185.456 188.626L185.528 188.991C185.747 190.114 186.123 191.444 186.063 192.64C186.693 195.907 187.251 199.188 187.728 202.483C187.79 202.914 187.618 203.265 187.352 203.498C187.989 203.6 188.623 203.726 189.249 203.853L189.613 203.93L189.795 203.97C191.1 204.264 192.387 204.693 193.242 205.789C194.163 206.975 194.182 208.499 193.257 209.693C192.471 210.707 191.323 211.189 190.126 211.494C189.889 211.553 189.65 211.608 189.411 211.656C189.251 211.69 189.145 211.47 189.297 211.386L189.552 211.245L189.898 211.055C190.801 210.557 191.739 209.995 192.238 209.097C192.917 207.878 192.38 206.749 191.216 206.13C190.241 205.611 189.036 205.478 187.954 205.3L187.507 205.227C186.375 205.046 185.221 204.929 184.079 205.058C183.08 205.172 182.068 205.512 181.261 206.123L181.186 206.182L181.109 206.247C180.401 206.86 179.383 208.239 180.718 208.636C181.738 208.938 182.982 208.863 184.054 208.922L184.193 208.93C185.091 208.991 186.029 208.991 186.938 209.099C187.263 209.137 187.584 209.19 187.899 209.264C188.801 209.477 188.491 210.678 187.696 210.762C187.502 210.784 187.303 210.794 187.104 210.798C186.585 211.189 185.866 211.367 185.252 211.61C184.665 211.842 184.075 212.073 183.481 212.299C183.993 212.322 184.504 212.364 185.013 212.428C185.178 212.447 185.18 212.669 185.013 212.686C183.788 212.81 182.562 212.946 181.341 213.117C179.45 213.379 177.572 213.73 175.736 214.264C174.394 214.657 173.069 215.124 171.783 215.669L171.395 215.837L171.234 215.907C170.067 216.413 168.558 217.005 167.888 218.119C167.537 218.701 167.383 219.599 167.877 220.155C168.406 220.754 169.513 220.685 170.254 220.714L170.313 220.717C171.881 220.793 173.45 220.803 175.02 220.749C178.309 220.633 181.601 220.273 184.831 219.641C185.427 219.525 185.685 220.419 185.085 220.559C181.275 221.444 177.422 221.93 173.513 221.953L173.085 221.953C171.562 222.245 170.068 222.679 168.587 223.169L168.291 223.268C167.417 223.564 165.923 223.858 165.407 224.726C165.065 225.303 165.185 225.699 165.524 225.967C166.119 226.438 167.387 226.527 168.004 226.55C170.476 226.643 172.95 226.66 175.423 226.607C176.66 226.58 177.895 226.536 179.131 226.472C180.34 226.409 181.63 226.229 182.835 226.345C183.353 226.396 183.526 227.157 182.964 227.298C181.479 227.675 179.813 227.642 178.279 227.69L178.102 227.696C176.454 227.755 174.805 227.78 173.157 227.776C171.742 227.771 170.328 227.742 168.915 227.69L167.666 227.64L167.445 227.63C166.779 227.594 166.099 227.517 165.509 227.243C164.964 228.156 165.371 229.38 166.075 230.103C166.745 230.792 167.71 231.13 168.635 231.342C168.722 231.361 168.809 231.379 168.895 231.397C170.928 231.811 172.998 231.775 174.9 232.709C176.499 233.495 177.963 234.805 179.754 235.116C181.356 235.395 182.52 234.689 183.373 233.383C183.42 233.311 183.467 233.24 183.511 233.167C184.183 232.085 184.666 230.894 185.374 229.832C185.736 229.292 186.143 228.772 186.642 228.349C186.866 228.156 188.433 227.324 188.679 227.074C189.733 225.992 188.799 223.716 189.074 222.359C189.395 220.78 190.783 220.225 191.615 219.001C193.197 216.672 188.858 214.49 190.155 211.944C190.172 211.912 190.193 211.889 190.221 211.874C190.335 211.813 190.517 211.889 190.506 212.039C190.362 213.937 192.171 215.243 192.824 216.887C193.567 218.758 192.38 219.891 191.167 221.14C189.612 222.744 190.707 224.54 190.36 226.472C190.315 226.725 190.242 226.948 190.148 227.148C190.414 227.313 190.619 227.586 190.664 227.967C191.197 232.49 191.77 236.999 192.706 241.46L192.906 242.407L193.174 243.671C193.841 246.833 194.464 250.008 194.582 253.24C194.954 255.968 195.102 258.719 194.881 261.465C194.214 269.824 189.542 278.57 181.056 281.136C179.091 281.73 177.008 281.884 174.992 281.468C174.302 281.326 173.334 281.013 172.466 280.54C172.517 281.097 172.558 281.654 172.576 282.21C172.862 282.528 172.991 283.01 172.828 283.422C172.136 283.194 171.507 282.833 170.941 282.34L170.847 282.256C170.511 281.008 170.413 279.642 170.364 278.327L170.351 277.953C170.338 277.589 170.33 277.232 170.317 276.883C170.245 274.713 170.296 272.538 170.408 270.37L170.49 268.773C170.679 265.05 170.833 261.335 170.729 257.602C170.611 253.305 170.243 249.027 169.783 244.754C169.544 242.549 169.274 240.349 168.997 238.149C168.775 236.378 168.403 234.472 168.397 232.646C166.975 232.341 165.579 231.758 164.704 230.564C163.776 229.298 163.639 227.679 164.463 226.381C163.667 225.291 164.319 224.263 165.304 223.57C163.791 222.723 162.948 220.41 162.724 218.802C162.572 217.699 162.524 216.048 162.995 214.807C162.319 214.831 161.643 214.901 160.967 215.017C160.185 215.154 159.418 215.355 158.661 215.604L158.279 215.731C158.085 215.796 157.868 215.872 157.652 215.962C159.019 218.223 157.263 220.273 155.011 220.859C154.582 220.97 154.145 221.049 153.703 221.112C152.708 221.25 151.692 221.292 150.705 221.383C148.817 221.556 146.917 221.803 145.022 221.884C144.606 221.903 144.338 221.708 144.211 221.438C144.207 221.434 144.205 221.431 144.205 221.427C144.16 221.355 144.13 221.279 144.12 221.199C144.126 221.205 144.135 221.209 144.141 221.214C144.05 220.706 144.355 220.089 145.022 220.015C147.758 219.707 150.532 219.692 153.276 219.466L153.452 219.451C154.314 219.377 155.328 219.24 156.01 218.694C156.644 218.187 156.701 217.528 156.447 216.932C156.443 216.946 156.439 216.963 156.437 216.978C156.418 217.096 156.255 217.092 156.203 217.01C156.044 216.769 156.004 216.532 156.044 216.304C155.854 216.084 155.624 215.89 155.374 215.74C154.269 215.068 152.816 214.884 151.559 214.685C150.184 214.467 148.798 214.368 147.41 214.303C144.678 214.173 141.938 214.396 139.25 214.886C139.138 214.905 139.092 214.749 139.202 214.713C140.249 214.366 141.321 214.074 142.404 213.844C142.379 213.839 142.354 213.835 142.329 213.829C142.234 213.806 142.166 213.69 142.198 213.597C142.202 213.582 142.208 213.567 142.214 213.554C141.754 213.343 141.562 212.633 142.119 212.345C143.858 211.447 145.899 211.041 147.807 210.671C149.638 210.318 151.489 210.071 153.342 209.852C156.475 209.484 159.891 209.492 162.906 208.503L163.03 208.461C164.257 208.038 165.723 207.18 165.809 205.73C165.935 203.538 162.68 204.109 161.323 204.162C157.612 204.304 153.904 204.561 150.209 204.959C149.454 205.039 148.7 205.121 147.946 205.206C146.791 205.335 145.633 205.47 144.479 205.614C143.835 205.694 143.176 205.8 142.512 205.901C142.305 205.952 142.103 205.988 141.9 206.007C141.885 206.009 141.872 206.005 141.862 205.999C140.896 206.134 139.926 206.237 138.984 206.208C138.876 206.206 138.809 206.036 138.923 205.986C140.14 205.47 141.494 205.166 142.852 204.927C143.693 204.299 144.709 203.796 145.544 203.31C146.689 202.642 148.001 201.66 149.3 201.26C149.885 200.799 150.549 200.43 151.16 200.178C150.984 199.905 150.921 199.527 150.952 199.208C151.069 198.065 151.984 197.426 153.04 197.202C153.367 197.135 153.745 197.084 154.149 197.065C154.157 196.851 154.252 196.642 154.464 196.486L154.526 196.438L154.57 196.403C155.279 195.827 156.687 194.205 154.992 194.087C154.092 194.023 153.331 194.683 152.615 195.129C151.128 196.057 149.689 196.103 147.991 195.873L147.227 195.763L147.1 195.746C145.872 195.585 144.626 195.562 143.941 196.815C143.205 198.155 142.948 199.377 141.464 200.115C140.047 200.818 138.473 200.958 137.172 201.926C135.777 202.961 134.729 204.415 133.588 205.705C131.072 208.545 128.193 211.054 125.226 213.413L124.699 213.831C121.967 215.991 119.147 218.117 116.089 219.781C116.068 219.791 116.047 219.796 116.028 219.796C115.945 219.787 115.884 219.681 115.958 219.61C119.531 216.137 123.71 213.322 127.379 209.942C129.006 208.444 130.554 206.867 132.044 205.231C133.345 203.796 134.499 202.184 136.016 200.962C136.753 200.368 137.55 199.914 138.441 199.597C139.274 199.299 140.207 199.151 140.974 198.694C142.476 197.802 142.331 195.689 143.833 194.729C145.121 193.906 146.69 194.207 148.118 194.402L148.288 194.425C149.214 194.548 150.171 194.651 151.054 194.286C151.928 193.924 152.632 193.248 153.513 192.889C154.741 192.383 156.481 192.504 157.111 193.854C157.713 195.144 156.891 196.31 155.932 197.166C157.24 197.403 158.387 198.035 158.484 199.324C159.443 199.292 160.4 199.258 161.359 199.225C164.7 199.109 168.057 198.884 171.399 198.944C171.323 198.603 171.289 198.252 171.285 197.895C171.283 197.697 171.291 197.498 171.306 197.295C171.331 196.948 171.559 196.739 171.898 196.703L172.653 196.623L172.905 196.598C174.319 196.464 175.901 196.436 176.979 197.371C177.557 197.876 178.024 199.039 177.741 199.814C178.4 200.041 179.028 200.33 179.6 200.696C180.735 200.315 181.926 200.358 183.067 200.755L183.203 200.803C184.014 201.101 185.163 201.665 185.604 202.47C184.534 195.217 183.092 188.026 181.28 180.921C180.124 178.084 178.662 175.372 176.89 172.869C172.426 166.563 165.995 162.226 160.219 157.24C159.709 157.801 159.16 158.335 158.647 158.849L158.429 159.068C157.383 160.127 156.293 161.141 155.178 162.127C152.848 164.188 150.395 166.09 147.96 168.022C143.051 171.918 138.613 176.055 134.92 181.141C134.854 181.233 134.67 181.179 134.721 181.057C137.254 175.034 142.505 170.455 147.274 166.207C149.782 163.972 152.349 161.792 154.761 159.453C155.885 158.362 156.974 157.233 158.002 156.051L158.257 155.754C158.929 154.967 160.502 152.565 161.542 154.298C161.76 154.661 161.75 155.124 161.542 155.487C161.247 156.003 160.872 156.495 160.461 156.967C161.919 157.76 163.347 158.598 164.743 159.484C164.663 159.057 164.683 158.585 164.758 158.113L164.782 157.963L164.884 157.377C165.03 156.513 165.105 155.71 164.557 154.868C163.872 153.814 162.581 153.485 161.552 152.877C160.367 152.175 159.748 151.236 159.113 150.044C157.898 147.763 155.152 146.849 152.792 146.115L152.495 146.023C150.314 145.347 147.955 144.985 145.775 145.634C145.979 146.587 146.247 147.526 146.581 148.44C146.937 149.414 147.751 150.496 147.667 151.547C147.61 152.275 146.737 153.053 146.013 152.497C144.988 151.71 144.783 150.428 144.508 149.207C144.242 148.026 144.073 146.816 144 145.608C143.931 144.443 143.985 143.279 144.129 142.123L144.239 141.273L144.266 141.076C144.385 140.218 144.564 139.316 145.046 138.643C145.093 138.579 145.206 138.577 145.228 138.667ZM115.475 133.839C115.49 133.908 115.501 133.976 115.511 134.044C115.581 134.333 115.608 134.611 115.599 134.891C115.603 134.992 115.596 135.093 115.577 135.193C115.539 135.522 115.46 135.86 115.353 136.229C115.125 137.015 114.864 137.791 114.572 138.555C113.995 140.067 113.315 141.509 112.473 142.892C110.952 145.389 109.02 147.463 106.741 149.255C107.173 149.612 107.596 149.983 108.02 150.348C110.067 152.11 112.059 153.953 113.989 155.844C117.415 159.203 120.773 162.624 124.052 166.128C125.669 167.855 127.256 169.606 128.835 171.368L128.886 171.427L128.942 171.494C129.503 172.172 130.623 173.79 131.46 173.53C131.882 173.398 132.326 172.768 132.614 172.468L133.144 171.915C133.32 171.73 133.495 171.544 133.667 171.356C136.751 167.976 139.669 164.466 142.408 160.798C143.745 159.008 145.038 157.184 146.283 155.329C146.923 154.375 147.552 153.413 148.167 152.442C148.763 151.504 149.244 150.495 150.121 149.795C150.765 149.281 151.658 149.752 151.495 150.595C151.24 151.922 150.321 153.044 149.599 154.166C148.872 155.293 148.129 156.409 147.369 157.514C145.907 159.64 144.381 161.721 142.8 163.761C141.439 165.517 140.019 167.228 138.561 168.905L138.162 169.361C136.593 171.151 135.054 173.05 133.32 174.683C131.768 176.145 130.073 175.719 128.659 174.298C126.87 172.501 125.21 170.558 123.489 168.696C120.051 164.974 116.576 161.281 113.066 157.627L111.912 156.425C110.566 155.02 109.226 153.606 107.921 152.166L107.753 151.979C106.264 150.304 104.751 148.205 102.635 147.354C102.482 147.292 102.538 147.075 102.704 147.106C104.058 147.356 105.189 148.039 106.241 148.854C107.187 147.289 108.03 145.639 108.766 143.951L108.294 143.746C104.917 142.286 101.111 140.814 97.4855 141.051C96.0244 141.146 94.4655 141.7 93.4567 142.797C92.5432 143.791 92.087 145.131 91.2487 146.19C90.2885 147.403 89.0361 147.948 87.4991 147.998L86.7518 148.02C85.8922 148.048 85.0678 148.093 84.196 148.282C81.8336 148.795 79.3429 149.626 77.3617 151.046C76.6429 151.56 75.901 152.269 75.5534 153.049C75.2089 153.822 75.1098 154.726 75.0762 155.56C75.0599 155.967 75.1818 156.504 75.08 156.893C75.0916 156.848 75.0969 156.872 75.0984 156.918C75.4151 157.168 75.6308 157.584 75.6542 157.997C77.6291 156.968 79.6736 156.065 81.7577 155.252C84.0783 154.346 86.4709 153.62 88.8639 152.933C91.206 152.261 93.6576 151.983 96.0451 151.503C96.3491 151.442 96.4548 151.853 96.1715 151.962C93.662 152.926 91.2339 154.069 88.7036 154.976C86.1745 155.883 83.6642 156.865 81.2084 157.956C76.4617 160.065 71.8765 162.749 68.1369 166.391C64.4845 169.948 61.6672 174.269 59.0471 178.614C56.4084 182.989 54.0534 187.523 51.9544 192.181C47.8022 201.396 44.6885 211.084 42.6386 220.981C40.6436 230.611 39.5289 240.585 39.9001 250.428C40.0763 255.104 40.6472 259.782 41.9748 264.278C42.609 266.427 43.4029 268.526 44.406 270.529C45.4639 272.642 46.8891 274.524 47.855 276.672C47.9344 276.849 47.9648 277.019 47.9604 277.177C52.0801 280.747 58.5284 278.341 62.987 276.209C73.2462 271.302 83.3152 265.931 92.8856 259.768C102.331 253.685 111.283 246.897 120.023 239.851C119.347 239.153 118.751 238.371 118.227 237.663C117.145 236.201 116.332 234.544 115.772 232.815C115.117 230.79 114.914 228.623 115.1 226.508L115.153 225.91C115.331 223.912 115.537 221.885 115.975 219.933C115.979 219.908 115.998 219.897 116.019 219.897C116.04 219.897 116.062 219.91 116.07 219.933C117.251 223.714 117.346 227.778 118.673 231.511C119.207 233.011 120.035 234.461 121.029 235.706C121.457 236.245 121.96 236.712 122.473 237.169C122.507 236.936 122.554 236.706 122.623 236.48L122.679 236.3C122.748 236.083 122.833 235.841 122.951 235.628C122.784 235.579 122.622 235.526 122.461 235.467C122.334 235.421 122.307 235.216 122.461 235.182C122.881 235.085 123.314 235.036 123.756 235.015C123.826 235.004 123.893 235.002 123.961 235.006C124.787 234.981 125.628 235.04 126.424 235.053C127.804 235.074 129.179 235.099 130.557 235.161C133.193 235.275 136.17 235.78 138.765 235.167C141.122 234.609 143.446 233.036 145.337 231.557C146.989 230.264 148.263 228.727 149.634 227.195C149.536 227.21 149.438 227.225 149.341 227.239L148.456 227.36C147.34 227.509 146.016 227.626 145.13 227.089C144.792 226.884 144.889 226.419 145.234 226.292C146.138 225.961 147.26 226.235 148.223 226.189C148.979 226.153 149.744 226.073 150.49 225.916C150.735 225.866 150.978 225.806 151.219 225.737C152.985 225.227 155.06 223.435 153.657 221.478C153.604 221.404 153.663 221.336 153.735 221.323C153.767 221.317 153.8 221.323 153.828 221.347C155.425 222.67 154.595 225.041 153.084 226.058C152.565 226.409 151.977 226.654 151.369 226.834C151.485 227.047 151.506 227.309 151.366 227.558C150.184 229.668 148.181 231.521 146.304 233.011C144.378 234.541 142.155 235.985 139.766 236.661C137.007 237.439 133.975 236.854 131.176 236.606C129.659 236.473 128.146 236.314 126.631 236.139C126.226 236.093 125.805 236.057 125.378 236.017C125.78 236.545 126.099 237.154 126.308 237.519C126.988 238.707 126.361 240.271 125.043 240.634C124.905 240.673 124.764 240.694 124.624 240.698C124.269 241.41 123.424 241.934 122.642 241.666C122.303 241.55 121.975 241.391 121.66 241.201C116.744 245.521 111.568 249.575 106.244 253.375C96.3715 260.421 86.0234 266.857 75.2934 272.515C72.8765 273.789 70.4411 275.029 67.9851 276.221L65.8712 277.241C63.5314 278.367 61.1367 279.488 58.6518 280.187C58.1674 280.323 57.6601 280.433 57.1404 280.517C57.1337 280.564 57.132 280.608 57.135 280.651C56.6678 280.713 56.2601 280.723 55.9119 280.68L55.8327 280.669C52.7868 280.882 49.5289 280.138 47.5693 277.912C47.2427 278.142 46.7665 278.167 46.3463 277.837C44.233 276.178 42.9732 273.652 41.8677 271.241C40.7467 268.795 39.868 266.246 39.2224 263.635C37.9328 258.419 37.4213 253.039 37.3944 247.674C37.2969 227 42.4725 206.144 51.4624 187.583C53.7424 182.876 56.2556 178.257 59.0456 173.832C61.828 169.419 65.0589 165.317 69.1966 162.099C70.3865 161.174 71.6243 160.327 72.901 159.548C72.0441 159.123 71.7037 158.043 71.6437 157.083C71.5106 154.951 71.7646 152.495 73.0123 150.696C74.7627 148.172 77.896 146.616 80.8013 145.86C82.318 145.465 83.8869 145.235 85.4513 145.157C86.2579 145.117 87.096 145.249 87.8929 145.162C88.596 145.086 89.0308 144.666 89.4352 144.114C90.471 142.7 91.1454 141.216 92.6313 140.179C94.1558 139.115 96.1313 138.708 97.9679 138.819C100.107 138.947 102.059 139.791 103.944 140.76C105.644 141.634 107.295 142.603 108.904 143.637C109.199 142.945 109.477 142.249 109.735 141.55C110.236 140.194 110.672 138.796 111.026 137.395C111.384 135.975 111.332 134.099 112.415 133.031C113.356 132.102 115.17 132.467 115.475 133.839ZM188.464 228.622L188.456 228.624C186.265 229.922 185.218 233.167 184.187 234.586C184.271 235.061 184.33 235.545 184.447 235.995C184.713 237.029 185.061 238.054 185.465 239.039C186.175 240.778 187.064 242.435 187.886 244.122C188.548 245.478 189.196 246.859 189.7 248.287C189.645 248.342 189.594 248.406 189.551 248.487C189.005 249.511 188.577 249.31 187.568 249.086L187.567 249.084C186.99 247.318 186.158 245.658 185.41 243.963L185.228 243.549L185.048 243.135C184.424 241.684 183.853 240.22 183.521 238.665C183.31 237.674 183.223 236.655 183.211 235.642C182.664 236.093 182.007 236.416 181.179 236.541C179.407 236.808 177.802 235.698 176.358 234.807L176.032 234.608C175.129 234.058 174.232 233.55 173.19 233.29C172.007 232.994 170.784 232.994 169.582 232.844C169.438 232.825 169.293 232.806 169.147 232.783C169.616 234.336 169.833 236.023 170.112 237.579C170.501 239.76 170.818 241.96 171.122 244.154C171.714 248.406 172.126 252.692 172.335 256.981C172.537 261.133 172.435 265.269 172.285 269.42L172.21 271.444C172.15 273.092 172.101 274.742 172.13 276.391C172.21 276.397 172.29 276.41 172.371 276.429C173.203 276.623 173.771 277.473 174.532 277.851C176.137 278.65 178.077 278.64 179.786 278.236C183.674 277.314 186.906 274.601 189.035 271.285C191.592 267.307 192.53 262.625 192.5 257.942C192.465 252.671 191.612 247.631 190.424 242.543L190.348 242.218C189.348 237.978 188.722 228.663 188.464 228.622ZM79.6099 217.987C79.632 219.405 79.0557 220.921 78.739 222.299C78.398 223.783 78.0579 225.267 77.7131 226.751L77.403 228.08C77.1448 229.188 76.8902 230.296 76.662 231.411C76.4744 232.327 76.3958 233.535 76.0885 234.545C79.7449 233.065 83.407 231.601 87.063 230.126C91.5672 228.309 96.0925 226.542 100.607 224.754C105.105 222.974 109.578 220.949 114.167 219.428C115.259 219.064 115.998 220.808 114.952 221.292C110.292 223.454 105.361 225.147 100.586 227.041L93.6795 229.784C87.3481 232.297 81.0123 234.798 74.6446 237.213C70.3073 238.857 65.9869 240.55 61.6221 242.112C59.5411 242.856 57.4413 243.56 55.3707 244.331C53.6362 244.978 51.7601 245.938 51.1179 247.801C51.0841 247.899 50.951 247.859 50.9658 247.759C51.2256 245.954 52.5653 244.826 54.0756 243.972C56.0803 242.836 58.2821 242.009 60.3982 241.098L60.6862 240.973C65.0073 239.088 69.3632 237.279 73.732 235.5C73.6887 235.394 73.6631 235.281 73.6612 235.163L73.6487 235.166C73.5693 234.358 73.9396 233.638 74.2061 232.886L74.9702 230.729C75.4794 229.293 75.9361 227.839 76.4066 226.39C76.8987 224.876 77.3954 223.363 77.8912 221.85C78.3112 220.568 78.5935 219.04 79.312 217.894C79.3986 217.756 79.6373 217.834 79.6099 217.987ZM163.755 214.799L163.701 215.075C163.637 215.396 163.578 215.721 163.563 216.046C163.521 216.898 163.618 217.749 163.844 218.572C164.066 219.385 164.376 220.172 164.818 220.892C165.236 221.571 165.843 222.103 166.229 222.799C166.269 222.873 166.295 222.947 166.305 223.019C166.453 222.957 166.599 222.902 166.741 222.858C167.919 222.484 169.123 222.171 170.345 221.937L170.151 221.923L170.026 221.913C167.986 221.741 166.061 221.073 166.476 218.69C166.712 217.343 167.769 216.44 168.901 215.799L169.043 215.721C169.104 215.687 169.168 215.653 169.229 215.624C168.204 215.45 167.461 215.237 166.204 215.025C165.388 214.888 164.571 214.812 163.755 214.799ZM70.546 185.446C72.5522 189.501 74.0615 193.813 75.2003 198.187C75.75 200.3 76.2166 202.433 76.5917 204.583L76.7149 205.301L76.7849 205.691C77.1354 207.608 77.5804 209.684 77.0658 211.554C76.8978 212.165 75.8837 212.407 75.5998 211.746C74.7433 209.751 74.8637 207.457 74.6155 205.322C74.3546 203.082 73.9986 200.852 73.5549 198.641C72.7027 194.392 71.5066 190.242 70.1733 186.124L70.0246 185.666C69.9114 185.361 70.4045 185.16 70.546 185.446ZM147.659 203.587C147.061 203.868 146.463 204.126 145.935 204.384C145.895 204.405 145.853 204.424 145.81 204.445C146.408 204.344 147.008 204.249 147.608 204.16C147.602 203.965 147.621 203.773 147.659 203.587ZM171.053 201.556C170.963 201.585 170.884 201.632 170.815 201.697L170.781 201.731C170.699 201.808 170.641 201.898 170.607 202.003C170.554 202.104 170.529 202.212 170.534 202.329L170.564 202.553C170.604 202.697 170.676 202.821 170.781 202.926L170.952 203.059C171.068 203.125 171.191 203.163 171.322 203.172L171.379 203.174L171.55 203.174C171.648 203.171 171.74 203.147 171.826 203.101C171.916 203.072 171.995 203.025 172.064 202.96L172.098 202.926C172.18 202.85 172.239 202.759 172.273 202.654C172.318 202.568 172.342 202.476 172.346 202.378L172.345 202.329L172.315 202.104C172.28 201.978 172.22 201.868 172.136 201.771L172.098 201.731L171.927 201.599C171.812 201.532 171.688 201.494 171.557 201.485L171.5 201.483H171.379C171.262 201.479 171.154 201.503 171.053 201.556ZM165.556 201.27C165.107 201.353 164.853 201.897 164.966 202.31C165.092 202.767 165.526 202.97 165.962 202.908L166.006 202.9C166.516 202.806 167.017 202.843 167.503 203.022C167.931 203.18 168.429 202.845 168.543 202.432C168.673 201.959 168.383 201.55 167.953 201.392C167.181 201.107 166.354 201.123 165.556 201.27ZM76.5468 171.247C77.569 172.745 78.2073 174.738 78.8369 176.45L78.8999 176.621C79.5692 178.42 80.2148 180.234 80.8169 182.058C82.0188 185.699 83.5852 189.508 83.8746 193.354C83.928 194.064 82.8423 194.348 82.5276 193.719C81.6231 191.911 81.1368 190.025 80.6016 188.087C80.0912 186.237 79.5595 184.395 79.0275 182.552C78.4957 180.71 77.9813 178.862 77.4576 177.018C76.9482 175.224 76.239 173.229 76.1224 171.362C76.1071 171.119 76.4293 171.074 76.5468 171.247ZM99.6192 159.182C100.984 160.129 102.101 161.515 103.256 162.7C104.428 163.903 105.583 165.117 106.729 166.345C108.642 168.397 110.521 170.483 112.461 172.51C116.328 176.55 120.703 180.268 126.04 182.166C127.332 182.626 126.766 184.699 125.471 184.23C120.012 182.25 115.49 178.589 111.501 174.448C109.435 172.303 107.54 170.011 105.691 167.678C104.826 166.587 103.968 165.492 103.121 164.386L102.615 163.722C101.551 162.317 100.249 160.917 99.4702 159.331C99.4265 159.242 99.5224 159.115 99.6192 159.182Z" fill="#171717"/>
<path fill-rule="evenodd" clip-rule="evenodd" d="M164.267 102.294C163.812 98.2964 164.4 89.9405 164.44 89.4328C164.689 86.2235 163.186 73.5503 160.344 74.718C155.578 70.9431 149.229 70.1095 143.292 69.7113C130.961 68.8841 117.843 70.7831 108.321 79.0849C103.612 83.3962 99.028 89.6668 99.3965 96.1958C95.1182 102.385 89.0867 110.874 94.4173 118.109C96.2293 120.421 99.1091 121.281 101.385 123.032C105.964 126.726 108.836 132.028 113.458 135.701C125.704 146.709 146.496 149.008 158.527 136.488C167.83 127.42 166.326 113.854 164.689 102.294C163.589 94.5222 165.154 110.093 164.267 102.294Z" fill="#FCFCFC"/>
<path fill-rule="evenodd" clip-rule="evenodd" d="M126.82 52.7583C130.118 52.0926 133.504 51.6783 136.872 51.803L137.131 51.8131C139.665 51.9144 142.875 52.1386 145.085 53.6126C145.212 53.485 145.417 53.4194 145.602 53.508C148.229 54.7624 151.118 55.6693 153.884 56.5705C156.638 57.4672 159.494 58.0592 162.38 58.2978C163.465 58.3877 164.395 59.5604 163.707 60.6123C163.544 60.863 163.384 61.1162 163.226 61.37C163.491 61.3423 163.756 61.3138 164.022 61.287C164.895 61.199 165.767 62.1313 165.715 62.9818C165.683 63.5167 165.625 64.0453 165.54 64.5675C165.873 64.5606 166.203 64.6104 166.523 64.7455C168.14 65.4288 168.027 67.3561 167.906 68.8224C167.739 70.8573 166.978 73.0127 165.565 74.5357C166.62 75.6315 167.367 76.9402 167.812 78.4945C168.135 79.6294 168.315 80.8383 168.226 82.0198L168.198 82.3735C168.088 83.6556 167.87 85.0751 166.948 85.9974C166.475 86.4729 165.892 86.6462 165.336 86.5913C165.672 89.546 165.887 92.5176 166.09 95.4786L166.185 96.8938C166.638 103.737 166.978 110.625 166.889 117.48C166.806 123.886 165.541 130.104 161.613 135.305C158.036 140.042 152.901 143.533 147.091 144.861C143.96 145.577 140.763 145.628 137.594 145.171C136.058 144.949 134.512 144.609 133.054 144.072C131.44 143.476 130.28 142.599 129.194 141.285C128.681 140.661 128.928 139.334 129.951 139.458C131.497 139.646 132.909 139.872 134.392 140.33L134.605 140.397C136.082 140.87 137.611 141.223 139.155 141.373C142.318 141.68 145.529 141.371 148.559 140.412C153.492 138.848 157.741 135.362 160.464 130.983C163.696 125.793 164.062 119.9 164.015 113.932C163.965 107.382 163.752 100.829 163.405 94.2863L163.346 93.196C163.162 89.8292 162.984 86.4603 162.828 83.0913C162.78 82.0346 162.706 80.9694 162.572 79.9147C161.354 79.2004 160.261 78.2155 159.549 77.0002C158.119 77.592 156.615 78.0189 155.231 78.3592C152.025 79.148 148.697 79.3394 145.434 78.8455C144.554 79.2092 143.656 79.529 142.744 79.8042C142.498 79.9135 142.252 80.0208 142.006 80.1261C139.808 81.0666 137.579 81.8634 135.26 82.4467L134.69 82.5889C133.469 82.8899 132.143 83.1863 130.844 83.2794C130.631 83.3619 130.401 83.4316 130.149 83.4929C128.966 83.7803 127.739 83.8712 126.526 83.7698C125.345 83.6704 124.491 82.4763 125.142 81.3583C125.617 80.5424 126.097 79.7287 126.581 78.9172C124.897 79.6188 123.158 80.2022 121.405 80.6967C119.635 81.1955 117.839 81.6161 116.041 82.0029C115.079 82.2079 114.114 82.3896 113.155 82.5947C112.468 82.7405 111.414 82.8166 110.854 83.2689C110.235 83.7655 110.06 84.9237 109.825 85.6381C109.517 86.5659 109.227 87.498 108.963 88.4406C108.437 90.3216 108.006 92.2301 107.673 94.1576C107.339 96.0873 107.115 98.0359 106.99 99.9909C106.866 101.944 106.92 103.909 106.72 105.854C106.612 106.885 105.505 107.416 104.687 106.695C104.591 106.61 104.495 106.525 104.399 106.438L104.256 106.308C103.557 105.674 102.879 105.002 102.319 104.245C102.218 104.106 102.12 103.96 102.03 103.812C102.015 103.812 102.002 103.808 101.987 103.797L101.832 103.68C100.124 102.408 97.2689 100.749 95.6028 102.863C95.0719 103.536 94.8001 104.394 94.5745 105.221L94.1787 106.701C93.9226 107.668 93.6816 108.64 93.5406 109.628C93.2216 111.843 93.3822 114.397 94.9056 116.172C95.5141 116.882 96.3528 117.389 97.2885 117.522C97.8106 117.594 98.3261 117.505 98.8437 117.44C99.3697 117.374 99.8766 117.48 100.403 117.429C101.239 117.347 101.605 118.349 101.292 118.979C101.123 119.317 100.924 119.608 100.699 119.856C100.88 120.012 101.054 120.181 101.22 120.359C101.715 120.517 102.158 120.858 102.49 121.308C102.758 121.671 102.898 122.066 102.921 122.483C102.951 122.586 102.976 122.692 102.999 122.8L103.453 123.536C103.552 123.697 103.652 123.857 103.751 124.013C104.905 125.831 106.185 127.369 107.776 128.819C109.308 130.214 110.97 131.463 112.409 132.959L112.579 133.137C113.92 134.551 115.334 136.263 114.809 138.319C114.674 138.848 113.936 139.228 113.455 138.871C111.906 137.721 111.127 135.899 109.813 134.504C108.46 133.067 106.962 131.776 105.606 130.343C104.324 128.99 103.312 127.458 102.549 125.771C102.245 126.107 101.801 126.346 101.187 126.439C100.13 126.598 99.1456 125.979 98.6852 125.063C98.3892 125.194 98.0873 125.313 97.7829 125.406C96.1815 125.896 95.174 124.114 95.7782 122.798C96.1012 122.092 96.5047 121.479 97.0056 120.963C95.4399 120.748 93.847 119.938 92.8181 118.928C90.2366 116.39 89.8817 112.575 90.4627 109.183C90.7711 107.384 91.3033 105.564 91.9944 103.876C92.1146 103.582 92.2437 103.286 92.385 102.994C92.3068 102.992 92.2266 102.958 92.1759 102.893C91.709 102.254 91.1409 101.732 90.7942 101.018C90.4752 100.363 90.1204 99.6992 89.8688 99.0166C89.3514 97.6195 89.0979 96.0429 88.9289 94.5655C88.5803 91.5411 88.7153 88.5357 89.1782 85.5303C89.966 80.4114 91.8691 75.5127 94.6728 71.2143C94.5202 71.134 94.3739 71.0372 94.2375 70.9226L94.1702 70.8639L94.0608 70.765C93.2607 70.0407 93.3298 68.6832 94.0608 67.9496L94.2917 67.718C94.584 67.4275 94.8361 67.1973 95.3083 66.881C95.378 66.8343 95.4492 66.7903 95.5213 66.7493C95.2741 66.2924 95.1883 65.7581 95.3605 65.1686C95.9605 63.1151 98.914 63.1878 100.786 64.0833C102.857 62.2342 105.154 60.629 107.643 59.3292C113.571 56.235 120.274 54.0772 126.82 52.7583ZM96.1754 106.843C97.2825 106.481 98.7529 107.24 99.748 107.697C101.009 108.276 102.082 109.132 103.122 110.036C103.64 110.489 103.732 111.228 103.604 111.86C103.591 111.924 103.578 111.989 103.563 112.055C103.426 112.729 102.674 113.259 102.008 113.24C100.616 113.202 99.9529 112 99.1647 110.981C99.0719 111.146 98.9557 111.298 98.8118 111.412L98.7147 111.488C98.3876 111.738 98.0271 111.937 97.5949 111.917C97.2886 111.903 96.9951 111.824 96.7245 111.683C96.0485 111.326 95.7508 110.451 95.9344 109.738C96.0485 109.29 96.3104 108.939 96.6527 108.696L96.5251 108.609C96.2521 108.419 96.0032 108.219 95.8091 107.923L95.7654 107.853H95.7823C95.571 107.49 95.7085 106.995 96.1754 106.843Z" fill="#171717"/>
<path fill-rule="evenodd" clip-rule="evenodd" d="M143.152 128.274C141.732 127.695 140.465 126.728 139.538 125.493C139.216 125.063 139.133 124.61 139.2 124.195C139.276 123.729 139.552 123.306 139.928 123.023C140.305 122.739 140.777 122.598 141.233 122.67C141.63 122.732 142.024 122.949 142.337 123.399L142.402 123.489C142.953 124.235 143.67 124.846 144.488 125.241C145.276 125.621 146.158 125.798 147.07 125.695C148.808 125.499 150.005 124.559 151.278 123.282C151.436 123.121 151.594 122.955 151.752 122.786C151.852 122.633 151.991 122.534 152.146 122.483C152.317 122.425 152.511 122.429 152.689 122.491C152.86 122.55 153.013 122.664 153.116 122.815C153.213 122.958 153.269 123.135 153.251 123.339C153.134 124.661 152.443 125.842 151.461 126.769C150.37 127.799 148.924 128.511 147.563 128.761C146.064 129.036 144.536 128.839 143.152 128.274ZM148.271 107.866C149.866 108.836 152.297 111.098 150.581 113.503C148.56 115.624 145.652 113.193 144.219 112.093C142.889 111.241 141.396 113.433 142.629 114.428C152.986 122.099 157.19 108.12 149.078 106.726C148.184 106.572 147.853 107.566 148.271 107.866ZM129.711 98.9429C129.887 96.7541 133.219 96.257 133.551 98.423C133.847 100.363 133.498 102.145 132.624 103.892C131.79 105.561 129.692 104.783 129.533 103.263C129.32 101.226 129.601 100.304 129.711 98.9429ZM155.076 97.9739C155.541 97.3652 156.211 96.9497 157.015 97.1845C159.526 97.9185 158.786 101.485 157.904 103.22C157.425 104.163 155.876 104.402 155.176 103.572C154.035 102.219 153.489 99.5157 154.939 98.1825C154.979 98.1136 155.022 98.044 155.076 97.9739ZM132.589 89.3654L132.986 89.2959C134.213 89.0836 135.738 88.8796 136.606 89.8665C137.067 90.3898 137.225 91.3624 136.606 91.8633C135.518 92.7446 134.314 92.4031 133.01 92.4777C131.935 92.5394 130.902 92.7174 129.867 93.0135C127.595 93.6629 125.744 94.8486 123.804 96.1505C123.55 96.3213 123.29 95.9956 123.411 95.7574C124.531 93.563 126.701 91.7604 128.875 90.6616C130.036 90.0751 131.305 89.5885 132.589 89.3654ZM152.787 88.3823L153.091 88.4445C156.394 89.1353 160.687 90.5153 162.251 93.7615C162.311 94.2205 162.248 94.3189 162.196 94.3832L162.179 94.4046C162.137 94.4595 162.104 94.5351 161.905 94.5976C161.849 94.5844 161.794 94.5705 161.737 94.5557C161.02 94.3677 160.453 94.1087 159.904 93.84L159.308 93.5465C158.617 93.2076 157.92 92.881 157.181 92.6399C155.605 92.1255 153.983 91.7631 152.337 91.5696C151.98 91.5277 151.636 91.4072 151.365 91.2006C151.107 91.0046 150.911 90.7332 150.821 90.3724C150.705 89.9056 150.738 89.5521 150.989 89.1309C151.177 88.8146 151.447 88.5953 151.756 88.4694C152.071 88.3411 152.43 88.3108 152.787 88.3823Z" fill="#171717"/>
<path fill-rule="evenodd" clip-rule="evenodd" d="M129.449 129.598C131.159 125.59 134.893 122.644 139.191 121.566C142.347 120.777 145.66 120.803 148.877 121.116C150.563 121.279 152.371 121.412 153.96 122.038C155.317 122.573 156.422 123.585 157.253 124.772C158.243 126.179 158.916 127.789 159.389 129.439C159.456 129.674 159.519 129.91 159.578 130.148C159.372 131.393 158.936 132.453 157.783 133.235C156.658 134 155.316 134.313 153.978 134.424C153.846 134.361 153.72 134.296 153.603 134.229C151.518 133.035 150.05 130.213 147.419 130.595C145.07 130.936 143.524 133.893 142.127 135.626C137.644 136.149 133.164 134.801 129.516 132.236C129.33 131.359 129.32 130.473 129.449 129.598ZM162.625 126.557C162.266 125.551 161.815 124.575 161.279 123.657C159.509 120.619 156.791 118.198 153.565 116.814C145.934 113.546 136.06 115.85 129.897 121.211C127.792 123.044 125.663 125.737 125.019 128.634C124.827 128.672 124.646 128.772 124.496 128.913C120.043 126.108 115.458 123.41 111.87 119.523C109.264 116.698 107.452 113.355 106.342 109.682C106.251 109.38 105.764 109.424 105.779 109.759C105.783 109.837 105.787 109.915 105.792 109.993C105.745 109.849 105.526 109.923 105.509 110.063C104.912 114.525 104.165 119.256 104.853 123.741C105.264 126.418 106.479 128.377 108.104 130.493C109.845 132.761 111.815 134.87 113.83 136.893C115.109 138.177 116.444 139.658 118.01 140.6C119.831 141.694 121.896 142.525 123.839 143.369C125.816 144.23 127.823 145.026 129.867 145.716C133.954 147.099 138.178 148.056 142.476 148.475C145.917 148.809 149.85 149.173 153.148 147.878C155.675 146.886 157.715 145.092 159.334 142.933C161.095 140.583 162.488 137.905 163.258 135.082C164.058 132.149 162.793 127.03 162.625 126.557Z" fill="#171717"/>
</svg>
