<svg width="382" height="384" viewBox="0 0 382 384" fill="none" xmlns="http://www.w3.org/2000/svg">
<path fill-rule="evenodd" clip-rule="evenodd" d="M372.672 312.921C366.903 386.733 266.192 397.331 246.087 326.21L246.075 326.215C246.004 325.938 245.852 325.385 245.771 325.111L245.784 325.109C244 318.142 243.335 310.601 243.842 303.3L243.843 303.301C244.807 288.235 251.238 273.176 261.56 262.171L261.561 262.173C264.437 259.063 267.599 256.262 270.974 253.783C277.35 272.983 286.598 290.152 298.318 304.433L297.864 304.991C298.429 305.303 298.991 305.615 299.552 305.929C299.746 306.163 299.957 306.426 300.148 306.668C299.366 308.662 301.027 310.598 302.991 310.979C302.393 312.382 303.858 312.937 304.737 313.189C307.634 313.851 311.038 313.995 313.232 312.375C316.064 309.788 315.07 304.683 312.009 302.743C312.021 302.71 312.032 302.677 312.042 302.644C311.632 302.6 311.261 302.449 310.957 302.201C309.425 301.61 307.638 301.616 306.138 302.277C295.954 285.759 285.741 267.806 280.089 248.236C282.476 247.045 284.958 245.991 287.479 245.108L287.477 245.105C287.545 245.082 287.748 245.014 287.812 244.99L287.813 244.991C290.152 244.188 292.56 243.515 294.983 242.994L294.982 242.992C295.196 242.948 295.642 242.855 295.857 242.809L295.857 242.812C300.176 241.944 304.675 241.534 309.156 241.598L309.156 241.597C309.324 241.6 309.962 241.613 310.169 241.617L310.169 241.621C311.691 241.663 313.257 241.775 314.787 241.922C314.772 241.978 314.748 242.052 314.718 242.137C314.843 242.143 314.965 242.162 315.084 242.191C315.102 242.115 315.12 242.039 315.137 241.962C316.344 242.098 317.563 242.263 318.762 242.466L318.762 242.465L319.62 242.614L319.62 242.617C335.006 245.327 349.503 254.439 358.947 266.923L358.946 266.923C362.932 272.106 366.135 277.881 368.475 284.103L368.476 284.102L368.852 285.12L368.85 285.121C371.994 293.867 373.311 303.471 372.657 312.921L372.672 312.921ZM262.659 216.024C239.527 238.008 213.867 258.459 194.282 283.864L190.62 281.657L190.99 281.586C189.766 281.465 188.634 280.322 187.727 279.579C189.68 279.716 190.302 280.078 191.465 277.853C195.54 270.542 199.056 263.084 203.45 255.868C207.046 249.506 210.645 243.205 214.238 236.778C216.137 234.01 219.31 226.639 214.08 222.933C227.781 216.695 243.566 209.2 258.199 200.11C259.383 205.454 261.23 210.623 262.927 215.775L262.659 216.024ZM184.051 177.362C182.09 175.563 179.931 173.826 178.947 171.217C181.976 171.715 184.972 172.002 188.317 172.057C188.508 172.057 188.684 171.878 188.687 171.678C188.755 167.831 188.749 163.595 188.4 159.483C190.045 160.296 191.366 159.368 192.855 158.571C194.414 159.734 196.025 159.389 197.931 158.571C197.949 158.566 205.633 155.726 205.65 155.723C207.364 155.188 208.099 154.678 208.53 153.591C208.752 153.65 209.199 153.767 209.421 153.824C211.26 156.547 237.962 165.003 240.336 161.867C242.819 162.919 245.788 162.068 248.417 161.88C250.471 162.052 252.56 162.513 254.611 162.254C255.017 164.376 255.427 166.499 255.838 168.619C250.324 176.637 249.504 180.269 251.075 189.902C251.415 191.895 252.073 192.564 254.532 192.854C239.922 200.837 225.23 208.486 210.803 217.021C212.844 212.197 214.873 207.279 216.793 202.457C217.475 200.977 218.387 198.801 218.46 196.774C219.025 189.25 195.491 182.349 186.272 179.859C186.011 178.788 184.828 178.157 184.051 177.362V177.362ZM259.102 191.154C259.208 190.971 259.624 190.098 259.726 189.896C259.961 190.34 260.423 191.164 260.718 191.565C260.142 191.771 258.734 192.539 258.175 192.833L259.102 191.154ZM177.147 229.466C176.898 230.469 176.673 231.421 176.455 232.337C171.005 235.172 165.584 237.763 160.115 240.541L160.288 240.86C157.194 242.667 153.826 243.761 150.787 245.637C148.41 235.409 146.599 225.048 145.252 214.605C146.507 214.559 147.754 214.441 149.022 214.183C150.288 214.215 151.473 214.075 152.481 213.743C159.514 218.923 166.956 223.718 174.605 228.004C175.455 228.569 176.341 228.753 177.302 228.84L177.147 229.466ZM176.263 307.019C175.41 306.935 174.637 307.828 173.816 308.121C171.266 309.437 168.775 310.777 166.323 312.141C165.474 307.215 163.35 302.657 163.205 297.564L163.123 297.717C162.815 297.12 162.187 296.054 161.826 295.48C162.43 295.62 163.572 295.882 164.168 296.017L164.101 296.109C164.872 295.976 165.925 296.465 166.655 296.559C169.302 297.059 172.006 297.571 174.691 297.961C174.001 299.035 174.038 299.093 175.316 299.095C174.585 300.559 174.415 302.33 174.485 303.872C174.506 304.152 174.62 304.096 174.763 304.205C175.046 305.01 175.601 305.564 176.544 305.916L176.263 307.019ZM152.942 251.031L152.702 250.284L152.999 250.183C152.952 250.067 152.766 250 152.621 250.03L152.593 249.945C159.93 246.819 167.111 243.305 174.347 239.975C170.098 252.216 161.653 262.799 159.533 275.781L158.414 275.854C155.923 267.46 153.886 258.863 151.916 250.549L152.266 250.431C152.218 250.797 152.582 251.117 152.942 251.031V251.031ZM158.223 311.654C157.426 311.924 156.463 312.02 155.576 311.929C151.718 311.188 147.788 310.582 143.954 309.982C146.135 289.107 139.159 267.839 124.939 252.524C130.227 247.724 135.837 242.669 141.831 237.299C147.432 264.422 153.799 291.197 158.721 311.486L158.223 311.654ZM134.489 303.43C134.454 305.093 134.35 306.776 134.197 308.432C118.309 305.956 101.234 303.38 84.0771 301.331L84.8417 300.508C85.8033 299.328 84.1856 297.39 83.2285 296.849C81.4321 295.781 79.419 296.185 77.4313 297.129L76.7726 296.209C80.4426 292.893 84.1189 289.606 87.7728 286.273C92.0185 288.078 96.3161 289.639 100.599 291.293L100.432 292.322C101.389 292.326 102.353 292.201 103.268 292.294C113.85 296.232 125.016 300.022 134.499 303L134.489 303.43ZM133.445 313.872C132.799 317.48 131.839 321.038 130.614 324.475L130.605 324.47C117.242 366.683 59.2836 381.038 29.2039 347.474C-4.58148 314.459 11.9036 248.908 59.2365 238.981C61.946 243.844 64.222 248.749 66.6525 253.673C67.8212 256.521 69.9309 259.05 70.4092 262.169C70.7248 263.315 71.0201 264.46 71.3042 265.605C71.3506 265.627 71.397 265.648 71.444 265.668C71.4405 265.653 71.437 265.639 71.4335 265.624L72.4798 265.191C74.5718 268.781 77.2465 275.073 79.6283 278.901C82.7134 283.536 82.5642 283.199 84.8612 283.464C82.1311 286.169 79.3589 288.917 76.6287 291.618C74.2071 293.966 71.9195 296.951 68.2756 297.62C67.0905 297.729 66.0851 298.108 65.3809 298.906C65.2164 299.401 64.9703 299.867 64.6909 300.311C63.4408 305.004 69.879 308.652 73.2387 304.678C93.4642 307.772 113.314 310.107 133.549 313.296L133.445 313.872ZM90.1169 230.522C98.2164 230.409 108.014 231.392 118.731 230.795C119.369 230.624 120.102 230.498 120.591 230.143C123.448 231.593 126.35 233.088 129.288 234.442C129.061 235.713 130.44 236.47 130.878 237.581C127.295 240.947 123.607 244.239 120.206 247.84C111.62 240.066 101.15 234.453 89.9655 231.649L90.1169 230.522ZM381.088 297.717C377 264.326 347.501 234.642 313.586 232.9L313.415 231.795C315.032 231.167 316.452 229.873 317.636 227.948C306.913 226.877 295.846 228.139 285.984 231.763C284.154 232.471 282.167 233.174 280.136 232.909C279.842 232.328 279.485 231.721 279.092 231.11C279.076 231.107 279.059 231.103 279.043 231.097C278.443 230.886 277.868 230.595 277.577 230.001C277.307 229.453 277.316 228.792 277.204 228.202C277.184 228.095 277.209 228.003 277.26 227.932C276.321 226.318 275.447 224.686 273.431 224.505L274.094 223.799C274.372 223.477 274.206 222.906 273.729 222.808C271.034 213.087 267.739 203.774 265.178 193.992L264.357 194.228C264.252 193.961 263.602 192.347 263.483 192.048L264.936 193.055L264.762 192.385C277.498 197.321 289.865 199.497 301.745 197.429L301.751 197.394C303.154 196.969 304.472 196.365 305.562 195.594C306.251 195.645 306.434 195.236 306.77 194.112C307.469 191.808 308.256 189.487 309.002 187.238C313.282 173.282 319.177 159.878 323.057 145.994C323.159 145.911 323.514 145.573 323.443 145.555C308.159 136.657 271.374 139.358 251.428 142.342C251.774 147.713 252.805 152.972 253.801 158.083C246.557 152.953 239.638 146.917 230.941 144.343L232.988 143.927C233.323 143.872 233.536 143.225 233.184 143.089L232.782 142.945C233.531 137.146 226.984 136.464 223.32 139.318C222.518 139.98 221.624 142.258 223.109 142.759L223.043 143.87C221.822 144.053 220.257 144.74 218.952 145.407C219.245 143.635 218.59 141.208 216.519 142.879C186.825 129.323 199.707 115.399 197.295 93.4202C197.142 86.8212 196.345 86.4064 190.055 83.4496C186.425 81.2388 182.524 79.6908 178.765 77.7469L179.032 77.4807C178.685 76.7892 177.934 75.2927 177.521 74.4683L177.367 74.5137C176.794 73.1349 176.354 71.7374 176.094 70.286C175.943 68.5999 175.153 67.5778 173.269 67.2557C168.534 66.261 163.797 67.0226 161.899 72.013L161.876 72.017C161.415 73.3355 160.527 74.6818 159.42 75.3245L160.105 75.9353C160.076 75.9879 160.048 76.0403 160.019 76.0926L158.944 75.7727C158.946 75.7147 158.953 75.634 158.958 75.5752C158.354 75.8493 157.638 76.0552 156.906 76.0545C133.974 72.1707 127.108 90.0674 130.516 109.805C129.166 114.898 127.972 120 126.74 125.07C123.145 141.992 112.351 152.509 108.674 168.867C107.705 172.842 103.68 180.153 107.213 182.702C106.608 187.374 108.573 192.394 112.08 195.907C106.782 196.055 99.4005 204.673 105.648 208.913C107.921 209.907 110.652 209.793 113.132 210.222L112.94 210.857C113.042 211.421 113.993 211.384 114.451 211.329C114.45 212.681 114.278 214.157 114.832 215.355C114.893 216.038 115.174 216.261 115.313 216.214C116.228 216.244 117.156 216.131 118.081 216.184C119.48 218.433 121.574 219.853 123.739 218.705C125.057 218.021 125.034 216.192 126.281 215.266C129.544 213.222 133.252 213.558 136.702 213.613C138.131 218.398 138.775 223.255 139.9 228.086C138.425 229.933 136.739 231.806 134.803 233.768L134.551 233.709L134.295 233.789C132.824 232.476 131.191 230.236 129.103 231.052C111.676 215.314 83.6348 217.734 62.0886 217.888C52.3429 218.003 42.28 218.109 32.3971 218.558C29.5777 218.623 27.7589 218.831 27.6618 220.946C25.7981 221.027 24.4142 221.484 22.6611 221.62C21.5661 221.678 20.9956 221.765 20.9581 222.076C21.17 225.095 21.2891 228.254 22.3442 231.074C23.4488 233.865 26.818 233.862 29.3903 232.832C30.3554 232.419 29.5234 231.227 29.4951 230.497C28.9084 228.107 28.542 225.661 28.4315 223.148C29.6476 223.243 30.7115 223.3 32.1126 223.318L32.1364 223.966C34.6004 224.062 45.073 224.246 47.6269 223.891C46.5793 225.154 46.1737 226.452 47.1795 227.875C49.8364 230.828 54.735 229.483 58.2241 229.928L58.2781 231.059C3.32173 241.264 -17.6021 315.655 22.2592 353.954C61.2393 396.208 135.767 371.047 143.301 314.815C146.544 315.358 149.804 315.788 153.039 316.473C151.128 318.208 148.385 319.086 146.511 320.746C143.259 323.906 142.295 325.981 143.785 327.61L143.813 327.587C145.007 328.25 146.464 328.194 147.796 327.743C148.64 327.858 149.516 327.99 150.355 327.99C151.719 327.962 153.008 327.621 153.369 326.545C153.409 326.136 152.624 325.44 152.242 325.099C154.345 323.634 156.46 321.951 158.873 320.364C159.464 320.07 159.742 319.778 159.949 319.26C170.327 322.965 181.193 315.045 187.809 309.166C187.801 309.199 187.794 309.234 187.786 309.268C188.59 308.479 189.435 307.711 190.351 307.575C190.617 307.306 190.915 307.052 191.25 306.817L196.142 306.99C197.46 307.037 199.217 307.324 200.414 306.881C203.187 305.55 202.001 301.47 200.591 299.59C202.813 299.458 205.068 299.495 207.275 299.198C212.932 298.538 211.324 292.889 206.789 291.611C205.532 289.995 199.948 288.281 199.795 286.25C220.852 263.932 243.604 242.663 264.691 221.574C265.385 223.846 265.53 226.272 265.552 228.568C265.555 234.09 267.025 239.558 268.359 244.832C219.626 275.545 226.071 355.835 279.671 377.664C332.186 401.665 389.233 352.519 381.088 297.717V297.717Z" fill="white"/>
<path fill-rule="evenodd" clip-rule="evenodd" d="M317.703 227.686C316.63 229.451 315.168 231.053 313.16 231.833C340.933 233.631 365.773 252.775 375.894 278.105C401.242 337.749 342.086 404.696 278.981 377.695C224.625 354.448 218.372 276.416 267.239 244.084C266.165 239.873 265.078 235.589 264.655 231.262C264.561 230.207 264.538 229.146 264.515 228.085C264.471 226.101 264.427 224.12 263.922 222.183C242.929 242.809 221.937 263.441 201.196 284.312L200.489 285.028C200.449 285.07 200.4 285.114 200.348 285.162C200.153 285.34 199.916 285.557 199.906 285.781C200.141 286.684 201.977 287.702 203.703 288.658C204.995 289.373 206.224 290.054 206.672 290.627C211.671 292.291 213.203 298.366 206.894 299.27C205.491 299.464 204.072 299.513 202.655 299.561C202.146 299.579 201.638 299.596 201.13 299.62C202.452 301.747 202.955 305.727 200.163 306.918C199.103 307.305 197.846 307.214 196.672 307.128C196.325 307.103 195.984 307.078 195.658 307.067L190.971 306.901C188.527 308.74 188.283 311.707 188.042 314.623C187.936 315.915 187.83 317.197 187.534 318.366C186.388 326.919 180.444 332.571 171.527 332.573C161.71 333.259 151.559 332.734 142.043 330.155C142.011 330.205 141.945 330.251 141.881 330.228C140.667 329.49 141.981 327.92 142.697 327.257C140.714 324.841 143.891 321.516 145.651 319.837C146.526 319.011 147.622 318.419 148.72 317.824C149.591 317.354 150.463 316.882 151.227 316.293C149.492 315.947 147.741 315.675 145.99 315.404C145.097 315.266 144.204 315.127 143.313 314.979C134.077 371.738 62.4864 396.392 21.3898 353.864C-18.4849 314.271 1.28764 241.596 57.6991 230.002C56.6966 229.894 55.586 229.908 54.4474 229.922C51.4136 229.961 48.1806 230.002 46.2642 227.733C45.5071 226.704 45.2658 225.159 45.9942 224.091C44.6279 224.232 21.7081 224.266 31.6412 223.396C30.6187 223.381 29.5985 223.346 28.5818 223.272C28.6438 224.284 28.7415 225.295 28.8839 226.299C29.0546 227.51 29.3231 228.691 29.5923 229.876C29.7091 230.389 29.826 230.904 29.9351 231.422C30.0707 232.063 29.7456 232.697 29.0873 232.887C26.1962 233.967 22.7412 234.016 21.3482 230.793C20.3609 228.164 20.1684 225.289 19.9813 222.494C19.9609 222.189 19.9405 221.885 19.9192 221.582C19.9538 220.669 21.1161 220.608 22.1677 220.552C22.6716 220.526 23.15 220.501 23.4669 220.384C24.5428 220.157 25.6119 220.017 26.6976 219.92C27.0449 217.61 29.7291 217.544 31.9197 217.49C32.4549 217.477 32.9606 217.464 33.3956 217.42C42.7959 217.037 52.2058 216.929 61.6146 216.82C64.0909 216.791 66.5671 216.763 69.0431 216.729C69.4754 216.723 69.9088 216.716 70.3433 216.71C90.4296 216.405 112.894 216.065 128.783 229.92C130.649 229.388 132.13 230.842 133.391 232.079C133.592 232.277 133.789 232.47 133.98 232.648C134.039 232.629 134.098 232.628 134.156 232.642C135.784 230.981 137.352 229.264 138.814 227.448C138.416 225.715 138.076 223.967 137.736 222.218C137.177 219.35 136.619 216.481 135.804 213.678L135.687 213.674C132.563 213.586 128.866 213.48 126.178 215.216C125.647 215.644 125.359 216.244 125.072 216.841C124.712 217.591 124.355 218.336 123.521 218.728C121.019 220.06 118.619 218.3 117.298 216.252C116.891 216.239 116.489 216.256 116.087 216.273C115.667 216.29 115.249 216.308 114.827 216.291C114.12 216.252 113.903 215.654 113.811 215.017C113.355 213.971 113.377 212.831 113.399 211.723C113.4 211.629 113.402 211.535 113.404 211.442C112.742 211.482 111.704 210.938 111.927 210.197C111.279 210.102 110.621 210.037 109.961 209.972C108.236 209.802 106.503 209.632 104.917 208.926C98.5812 205.052 104.745 195.949 110.483 195.015C107.404 191.62 105.681 187.009 106.147 182.458C103.448 180.286 105.251 175.238 106.639 171.352C107.061 170.167 107.446 169.091 107.653 168.237C109.074 161.715 112.029 155.687 114.959 149.712L115.092 149.439C116.001 147.688 116.85 146.101 117.647 144.613C121.265 137.855 123.784 133.149 125.716 124.45C125.996 123.299 126.274 122.146 126.552 120.994C127.495 117.079 128.438 113.164 129.469 109.272C129.392 108.696 129.32 108.172 129.253 107.687C128.786 104.284 128.582 102.803 128.773 98.7263C129.275 82.2251 137.349 72.3185 156.522 74.9918C158.951 74.8293 160.248 73.2124 160.962 71.0702C161.027 70.9226 161.256 71.032 161.218 71.1763C160.898 72.6599 160.406 74.3471 159.059 75.223C158.389 83.0559 171.104 85.6723 176.47 81.7879C178.111 80.7688 178.54 79.8667 178.578 78.0133C177.843 77.1149 177.714 76.0055 177.585 74.8961C177.516 74.301 177.447 73.7059 177.284 73.1433L179.268 77.0982C180.459 77.7009 181.665 78.2693 182.871 78.8374C185.238 79.9527 187.602 81.0668 189.838 82.4364C196.222 85.4487 197.239 85.9739 197.405 92.874C197.997 99.5087 197.531 105.157 197.12 110.137C196.026 123.391 195.322 131.916 216 141.723C217.904 140.394 219.219 142.085 219.116 143.97C220.192 143.447 221.274 143.027 222.478 142.811C220.525 142.215 221.287 139.393 222.497 138.376C226.453 135.376 233.249 135.926 232.915 142.054C233.825 142.38 233.546 143.808 232.639 143.992C238.675 146.09 243.81 149.888 248.895 153.65C250.096 154.538 251.293 155.424 252.499 156.285C251.552 151.414 250.663 146.51 250.372 141.573C250.298 141.547 250.284 141.433 250.362 141.4C250.231 140.582 250.56 140.454 250.775 141.299C265.697 138.613 281.017 138.513 296.147 138.714C304.304 138.817 312.514 139.901 320.097 142.971C320.292 143.071 320.602 143.187 320.959 143.32C322.356 143.842 324.465 144.628 323.129 145.794C322.859 147.49 322.292 149.14 321.731 150.776C321.635 151.055 321.539 151.334 321.445 151.613L320.781 153.455C316.876 164.3 312.971 175.143 309.363 186.088C309.268 186.371 309.174 186.655 309.079 186.939C308.356 189.106 307.633 191.273 306.954 193.454C306.922 193.557 306.89 193.665 306.858 193.776C306.61 194.633 306.312 195.662 305.279 195.67C304.213 196.397 303.025 196.942 301.794 197.337C299.456 210.729 288.586 220.661 278.886 229.524L278.705 229.689C279.184 230.391 279.64 231.118 280.036 231.871C281.88 232.034 283.607 231.38 285.317 230.732C286.162 230.412 287.003 230.093 287.851 229.876C297.239 226.835 307.418 225.912 317.234 226.883C317.619 226.922 317.943 227.315 317.703 227.686ZM258.898 358.19C292.915 394.374 353.945 380.845 371.524 335.491C395.699 278.615 338.275 215.018 278.75 242.83C279.043 243.839 279.335 244.846 279.639 245.851C313.163 228.849 355.801 246.943 368.875 281.114C391.621 334.62 338.613 394.761 281.961 370.537C234.19 350.346 227.593 281.571 269.485 251.943C269.16 250.91 268.846 249.874 268.544 248.836C233.069 273.13 228.569 328.165 258.898 358.19ZM317.883 310.846C316.913 310.06 315.948 309.268 314.988 308.47C314.918 309.178 314.739 309.872 314.442 310.526C315.59 310.63 316.736 310.738 317.883 310.846ZM312.794 309.523C312.75 309.601 312.704 309.677 312.656 309.753C312.658 309.76 312.66 309.766 312.662 309.773C312.664 309.779 312.666 309.786 312.668 309.792C312.699 309.731 312.729 309.669 312.757 309.606C312.769 309.579 312.782 309.551 312.794 309.523ZM312.507 309.982C312.427 310.101 312.342 310.22 312.251 310.335L312.322 310.341C312.396 310.248 312.464 310.15 312.525 310.048L312.507 309.982ZM308.743 308.761C308.737 308.865 308.744 308.898 308.754 308.898C308.772 308.898 308.805 308.778 308.781 308.773C308.783 308.773 308.769 308.77 308.743 308.761ZM307.704 304.965C308.152 305.508 308.622 306.078 308.786 306.771C308.892 307.221 308.856 307.638 308.81 308.078C309.034 307.902 309.239 307.661 309.446 307.417C309.971 306.8 310.511 306.166 311.391 306.544C311.548 304.357 308.876 302.81 306.911 303.497C306.891 303.52 306.825 303.635 306.845 303.676C307.009 304.121 307.35 304.534 307.704 304.965ZM306.04 310.542C306.04 310.454 306.055 310.364 306.086 310.28C305.624 310.678 305.065 310.929 304.463 311.052C304.606 311.097 304.755 311.137 304.901 311.176L304.927 311.183C305.093 310.831 305.619 310.67 306.014 310.55L306.04 310.542ZM304.585 302.556C304.226 302.669 303.823 302.797 303.828 303.134C303.961 303.113 303.846 303.267 303.781 303.274C304.067 303.339 304.349 303.433 304.623 303.549C304.629 303.171 304.767 302.739 304.95 302.422C304.851 302.471 304.721 302.513 304.585 302.556ZM301.848 306.054C301.982 306.253 302.115 306.452 302.241 306.656C302.945 307.854 301.144 308.899 300.33 307.76C300.378 307.909 300.437 308.051 300.509 308.183C300.564 308.138 300.609 308.222 300.545 308.248C301.166 309.316 302.499 309.737 303.726 309.716C303.66 308.871 303.758 308.86 303.811 309.71C307.014 309.296 306.475 304.069 301.216 304.742C301.182 304.772 301.147 304.803 301.114 304.835C301.322 305.269 301.585 305.662 301.848 306.054ZM270.219 254.222C266.965 256.659 263.877 259.47 261.111 262.511C268.916 271.341 276.521 280.367 284.124 289.389C286.984 292.784 289.844 296.178 292.714 299.562C293.037 299.943 293.365 300.322 293.693 300.702C294.508 301.644 295.325 302.59 296.067 303.582C296.512 303.826 296.958 304.067 297.41 304.299C285.255 289.47 276.298 272.251 270.219 254.222ZM243.913 303.474C243.473 310.697 244.179 318.056 246.007 324.967C257.026 320.981 268.165 317.305 279.301 313.63C284.677 311.856 290.053 310.082 295.414 308.273C286.295 306.351 277.002 305.928 267.705 305.505C259.742 305.142 251.776 304.779 243.913 303.474ZM284.183 312.723C273.19 316.351 262.196 319.979 251.162 323.486C250.774 323.61 250.385 323.738 249.995 323.866C248.684 324.296 247.364 324.73 246.026 325.038C266.361 396.198 364.711 385.957 371.575 313.031C354.176 313.92 336.701 313.453 319.378 311.544C328.699 318.665 338.283 325.45 347.861 332.231C351.776 335.003 355.689 337.774 359.584 340.567C359.825 340.783 359.516 341.123 359.251 340.991C345.191 331.919 331.745 321.817 318.633 311.454C317.18 311.276 315.729 311.077 314.284 310.855C314.049 311.297 313.757 311.709 313.407 312.065C319.184 331.032 323.283 350.583 325.299 370.283C325.32 370.585 324.814 370.652 324.76 370.354C321.938 350.826 318.216 331.429 313.107 312.342C310.603 314.162 307.043 313.895 304.149 313.253C305.908 333.004 307.439 352.802 308.622 372.588C308.593 373.024 307.905 373.167 307.807 372.696C306.141 352.893 304.983 333.022 303.89 313.175C302.788 312.835 301.568 312.084 301.848 310.873C300.836 310.561 299.953 309.883 299.435 309.028C298.891 309.831 298.344 310.633 297.797 311.435C296.686 313.065 295.576 314.694 294.481 316.334C294.704 316.158 294.926 315.981 295.148 315.805C297.092 314.263 299.038 312.72 301.04 311.259C301.275 311.088 301.552 311.295 301.604 311.53C300.257 313.048 298.495 314.315 296.734 315.581C295.486 316.478 294.239 317.374 293.142 318.359C284.664 331.254 277.32 344.869 271.302 359.034C271.051 359.626 270.056 359.374 270.306 358.765C275.785 345.19 282.73 332.209 290.908 320.013C287.25 322.795 283.573 325.629 279.89 328.469C272.42 334.226 264.924 340.004 257.504 345.413C266.327 338.377 275.209 331.409 284.098 324.453C285.368 323.462 286.639 322.47 287.909 321.478C289.329 320.37 290.749 319.261 292.169 318.153C294.176 315.233 296.274 312.374 298.501 309.621C295.036 311.803 291.575 314.005 288.112 316.209C277.538 322.938 266.942 329.681 256.112 335.902C255.839 335.962 255.696 335.669 255.856 335.469C264.131 329.94 272.744 324.779 281.344 319.626C287.362 316.021 293.373 312.419 299.257 308.698C298.912 307.975 298.808 307.147 299.052 306.298C298.939 306.156 298.825 306.017 298.713 305.88C283.024 297.112 266.108 289.206 249.689 282.722C264.987 288.053 279.782 294.724 293.979 302.443C290.497 298.229 286.995 294.028 283.492 289.827C275.952 280.784 268.411 271.738 261.067 262.558C250.889 273.694 244.801 288.384 243.919 303.383C251.173 304.3 258.513 304.518 265.851 304.735C276.799 305.06 287.743 305.385 298.392 308.03C298.895 308.197 298.683 308.87 298.177 308.795C297.682 308.72 297.189 308.632 296.698 308.537C295.574 309.005 294.407 309.376 293.243 309.746C292.82 309.88 292.398 310.014 291.978 310.153C289.379 311.009 286.781 311.866 284.183 312.723ZM357.769 266.442C344.033 278.539 329.763 290.244 314.675 300.661C313.372 300.663 315.265 299.299 316.178 298.642C316.375 298.5 316.526 298.391 316.589 298.336C330.635 288.105 344.232 277.3 357.687 266.336C348.181 254.077 334.167 245.336 318.79 242.637L318.669 243.545C316.327 261.169 313.985 278.799 312.675 296.533C320.557 281.141 329.252 265.462 339.679 251.853C330.513 266.899 321.362 281.973 313.53 297.742C313.337 298.124 313.15 298.515 312.961 298.908C312.778 299.29 312.594 299.675 312.403 300.055C312.379 300.277 312.367 300.504 312.354 300.732C312.331 301.168 312.308 301.607 312.2 302.019C314.145 303.462 315.184 305.95 315.002 308.312C316.175 309.174 317.347 310.039 318.517 310.907L318.803 310.934C320.816 311.125 322.828 311.315 324.843 311.484C340.395 312.812 356.037 313.029 371.626 312.313C372.273 302.801 370.927 293.16 367.661 284.31C349.936 289.614 332.407 295.559 315.125 302.108C314.669 302.253 314.359 301.542 314.797 301.345C332.036 294.617 349.71 288.937 367.632 284.231C365.27 277.825 361.929 271.78 357.769 266.442ZM287.826 244.939C288.844 246.939 289.771 248.959 290.643 251.022C291.006 251.74 292.144 254.908 290.287 254.035C289.647 253.356 289.268 252.456 288.952 251.597C288.175 249.51 287.499 247.402 286.948 245.245C284.695 246.045 282.461 246.986 280.312 248.041C285.861 266.999 295.598 284.319 305.919 301.082C307.37 300.55 309.047 300.571 310.488 301.102C311.486 299.281 311.543 298.262 311.643 296.477C311.655 296.26 311.667 296.032 311.682 295.79C313.199 277.985 314.992 260.135 318.479 242.582C317.365 242.389 316.245 242.227 315.118 242.095C315.085 242.236 315.052 242.378 315.018 242.52C314.786 243.507 314.545 244.529 314.47 245.541C314.454 245.717 314.347 245.924 314.147 245.957C312.026 246.082 313.078 243.18 313.504 242.006L313.531 241.93C312.104 241.8 310.669 241.718 309.226 241.686C307.818 260.75 307.145 279.849 306.945 298.956C306.927 299.283 306.446 299.282 306.427 298.956C306.13 279.855 307.087 260.686 309.07 241.682C304.382 241.588 299.697 242.01 295.167 242.947C297.768 260.385 300.748 277.766 304.013 295.089C304.045 295.409 303.549 295.446 303.462 295.162C299.869 277.921 296.982 260.489 294.897 243.004C292.507 243.508 290.148 244.152 287.826 244.939ZM266.647 228.188C266.728 230.072 266.809 231.955 267.164 233.818C271.927 259.62 283.755 283.95 300.432 304.378C300.435 304.377 300.438 304.377 300.443 304.377C300.11 302.908 302.59 303.009 303.522 303.218C303.211 302.735 303.938 302.233 304.445 301.883C304.577 301.792 304.694 301.711 304.774 301.644C290.607 284.08 275.072 248.206 274.038 225.853C274.038 225.688 274.298 225.648 274.333 225.813C275.254 230.003 276.322 234.167 277.469 238.309C287.282 233.753 297.919 231.492 308.781 231.644C309.323 231.39 309.834 231.141 310.252 230.741C310.529 230.607 310.777 230.551 311.037 230.491C311.135 230.469 311.235 230.446 311.338 230.419C311.926 230.075 312.574 229.819 313.22 229.564C314.312 229.133 315.4 228.703 316.196 227.849C307.406 227.062 298.469 227.829 289.954 230.11C286.87 231.152 283.778 232.165 280.636 233.028C280.749 233.202 280.831 233.405 280.913 233.608C281.051 233.947 281.189 234.287 281.469 234.494C282.067 235 281.578 235.86 280.942 236.048C279.879 236.361 279.46 235.307 279.239 234.525C278.746 232.773 278.167 231.022 277.275 229.423C277.002 228.929 276.757 228.411 276.512 227.892C275.807 226.402 275.098 224.902 273.7 223.925C273.177 224.057 272.629 224.049 272.084 224.041C271.839 224.037 271.593 224.033 271.351 224.043C270.235 224.06 269.127 224.222 268.023 224.383C267.488 224.461 266.954 224.539 266.421 224.601C266.543 225.793 266.595 226.99 266.647 228.188ZM264.772 217.704C265.101 218.771 265.431 219.838 265.731 220.913C265.973 221.831 266.16 222.752 266.299 223.676C268.085 222.492 270.247 221.957 272.376 221.778C271.201 217.422 269.88 213.073 268.56 208.727C266.918 203.318 265.276 197.914 263.921 192.51C263.918 192.476 263.918 192.442 263.92 192.407C263.921 192.381 263.924 192.355 263.926 192.329L263.808 192.266C262.622 191.64 261.741 191.175 260.321 191.547C259.471 191.718 258.759 192.112 258.608 192.978C258.585 193.106 258.503 193.175 258.404 193.197C260.124 198.786 261.832 204.398 262.847 210.169C263.24 212.745 264.005 215.223 264.772 217.704ZM224.062 259.937C228.842 255.109 233.622 250.281 238.439 245.488C246.749 237.178 255.123 228.928 263.549 220.733C263.212 219.593 262.855 218.462 262.498 217.329C262.301 216.704 262.103 216.079 261.909 215.452C253.039 225.046 243.479 234.065 233.919 243.085C220.34 255.897 206.759 268.71 195.15 283.173C195.107 283.229 195.059 283.281 195.009 283.327C195.325 283.322 197.963 283.638 196.585 283.694C196.981 283.793 197.255 284.292 196.851 284.527L198.811 285.708C198.942 284.855 199.857 284.024 200.715 283.244C201.175 282.827 201.618 282.424 201.917 282.04C209.385 274.762 216.723 267.35 224.062 259.937ZM206.255 291.763C206.042 291.62 205.82 291.472 205.78 291.216C202.212 289.061 198.646 286.906 195.08 284.749C194.624 284.847 194.121 284.864 193.616 284.881C192.477 284.92 191.325 284.959 190.662 285.929C190.688 286.09 190.628 286.267 190.473 286.343C190.159 286.682 189.424 286.564 189.401 285.939C189.449 284.476 191.697 283.715 192.915 283.439C192.313 283.075 191.712 282.712 191.112 282.348C190.767 282.14 190.423 281.932 190.078 281.724C188.924 281.98 187.79 282.323 186.681 282.726C186.552 282.772 186.415 282.836 186.273 282.902C185.89 283.079 185.47 283.273 185.097 283.192C185.073 283.22 185.052 283.247 185.033 283.275C185.026 283.284 185.02 283.294 185.014 283.304C185.116 283.347 185.217 283.394 185.272 283.408C185.735 283.537 185.619 284.185 185.162 284.208C184.45 284.243 183.298 284.051 183.537 283.065C184.155 281.682 186.81 281.099 188.304 280.772C188.355 280.761 188.404 280.75 188.452 280.739C188.242 280.613 188.029 280.483 187.815 280.352C185.598 279.003 183.152 277.513 180.512 277.751C180.118 278.025 179.639 278.006 179.195 277.872C177.479 278.23 175.928 279.102 174.508 280.089C173.464 280.721 172.536 281.564 171.608 282.406C170.05 283.819 168.495 285.231 166.398 285.644C163.558 286.026 159.851 283.132 159.189 280.573C159.126 280.564 159.063 280.55 159.001 280.531C158.118 283.371 158.146 286.345 158.227 289.271C163.212 289.586 168.193 289.982 173.175 290.377C180.808 290.984 188.444 291.591 196.096 291.906C198.452 292.021 200.807 292.125 203.164 292.217C204.272 292.271 205.358 292.254 206.4 291.863C206.354 291.829 206.305 291.796 206.255 291.763ZM158.175 289.693C158.169 289.734 158.161 289.775 158.154 289.816C158.471 289.759 158.797 289.749 159.123 289.751C158.8 289.711 158.48 289.657 158.195 289.562C158.189 289.606 158.183 289.649 158.175 289.693ZM206.067 297.846C210.485 297.681 210.82 294.535 207.217 292.408C206.769 292.677 206.183 292.707 205.661 292.734C205.515 292.742 205.375 292.749 205.244 292.761C205.034 293.41 202.925 293.236 201.268 293.099C200.518 293.037 199.861 292.983 199.515 293.016C192.9 292.866 186.306 292.296 179.716 291.727C173.035 291.149 166.359 290.572 159.667 290.433C159.589 290.433 159.508 290.432 159.425 290.43C158.736 290.418 157.93 290.405 157.574 290.938C157.564 292.307 157.895 293.426 159.443 293.624C169.461 296.087 179.702 297.61 190.017 298.033C195.346 298.237 200.747 298.293 206.067 297.846ZM198.449 303.974C198.448 303.619 198.446 303.264 198.451 302.909C198.453 302.757 198.467 302.576 198.482 302.384C198.502 302.122 198.524 301.841 198.52 301.588C196.689 301.402 194.856 301.218 193.02 301.083C193.114 301.285 193.162 301.506 193.15 301.721C193.456 302.002 193.628 302.439 193.567 302.862C193.789 303.211 193.866 303.639 193.753 304.021C195.317 304.055 196.882 304.04 198.449 303.974ZM158.194 317.47C168.834 322.269 179.397 314.608 187.164 308.001C187.377 307.572 187.63 307.166 187.931 306.793C186.507 306.685 185.092 306.668 183.679 306.651C181.155 306.622 178.642 306.592 176.117 306.04C177.189 307.166 175.596 307.684 174.432 308.062C174.119 308.164 173.837 308.256 173.647 308.346C171.22 309.3 168.778 310.219 166.324 311.101C167.196 319.048 159.537 317.7 157.779 311.569C157.24 311.701 156.691 311.743 156.133 311.718C156.028 311.851 155.86 311.94 155.651 311.909C153.695 311.63 151.747 311.293 149.798 310.957C148.822 310.788 147.845 310.619 146.868 310.457C145.255 310.212 143.644 309.937 142.033 309.662C139.068 309.156 136.101 308.649 133.115 308.328C133.119 308.297 133.122 308.264 133.124 308.232C128.287 307.515 123.45 306.769 118.613 306.022C104.442 303.834 90.2619 301.645 76.0099 300.197C75.3309 300.132 74.7585 299.627 74.8622 298.906C74.8599 298.908 74.8576 298.909 74.8553 298.91C74.7743 299.382 74.7273 299.872 74.6801 300.364C74.5316 301.913 74.3807 303.486 73.1572 304.615C99.8828 306.994 126.492 310.867 152.922 315.364C154.461 315.759 155.88 316.41 157.308 317.066C157.603 317.201 157.898 317.336 158.194 317.47ZM172.972 330.482C181.882 330.054 184.974 323.127 185.703 315.364C185.765 314.882 185.816 314.38 185.869 313.867C185.993 312.671 186.122 311.417 186.397 310.227C179.201 316.332 169.679 322.542 159.778 319.456C159.569 319.868 159.125 320.121 158.695 320.366C158.505 320.474 158.318 320.58 158.155 320.698C156.334 322.021 154.508 323.343 152.682 324.659C153.336 325.266 153.853 326.106 153.128 326.87C151.692 328.423 149.455 328.116 147.504 327.849L147.383 327.833C146.126 328.229 144.666 328.34 143.437 327.765C142.782 328.308 142.086 328.999 142.068 329.873C142.166 329.784 142.189 329.857 142.155 329.951L142.269 329.959C152.471 330.7 162.761 331.447 172.972 330.482ZM146.808 320.033C145.257 321.498 143.695 323.305 143.268 325.427C143.142 326.485 144.09 326.754 144.957 326.676C145.104 326.475 145.508 326.4 145.749 326.526C146.275 326.372 146.778 326.126 147.263 325.886C151.194 323.978 154.913 321.667 158.263 318.889C157.801 318.741 157.166 318.434 156.474 318.099C154.991 317.383 153.242 316.538 152.35 316.84C151.882 317.126 151.42 317.422 150.958 317.718C149.624 318.573 148.291 319.427 146.808 320.033ZM24.8672 350.582C57.8531 385.338 117.132 372.533 134.32 328.732C136.263 324.044 137.674 319.193 138.548 314.225C137.261 314.023 135.975 313.823 134.687 313.625C126.24 363.995 64.144 386.544 27.4822 348.127C-6.78877 313.59 8.77801 248.855 57.5968 237.04C57.3647 236.373 57.1843 235.695 57.0741 234.999C5.38754 246.997 -11.8866 314.099 24.8672 350.582ZM116.509 250.091C104.507 239.335 88.6399 233.156 72.3783 233.215C67.3313 233.215 62.3693 233.776 57.5325 234.891C57.7094 235.577 57.9553 236.237 58.2471 236.881C78.1656 232.019 99.9947 238.1 114.702 252.155C115.095 251.765 115.489 251.375 115.883 250.986L116.069 250.802C116.097 250.626 116.221 250.47 116.342 250.319C116.402 250.243 116.462 250.167 116.509 250.091ZM54.1522 228.544C55.1975 228.522 56.1826 228.501 56.9913 228.584C62.1364 228.768 67.2303 228.674 72.3783 228.48C83.5497 229.091 94.7183 229.26 105.897 229.429C109.939 229.49 113.982 229.551 118.027 229.633C118.07 229.568 118.126 229.509 118.194 229.459C113.367 226.655 108.152 223.966 102.446 223.654C90.4453 223.158 78.4153 223.448 66.3892 223.737C59.6954 223.899 53.0028 224.06 46.3171 224.085C45.915 224.863 46.0563 225.809 46.5295 226.561C47.8751 228.677 51.2466 228.606 54.1522 228.544ZM28.5404 222.503C31.7288 222.161 34.9412 221.98 38.1497 221.899C59.269 221.407 80.4329 220.915 101.548 221.582C104.162 221.812 106.654 222.367 109.089 223.223C110.527 223.611 111.937 224.099 113.302 224.7C114.469 225.198 115.552 225.843 116.634 226.489C117.674 227.109 118.714 227.729 119.83 228.219C120.746 228.676 121.666 229.129 122.586 229.581C124.815 230.676 127.046 231.773 129.229 232.949C129.811 233.262 129.73 233.881 129.362 234.222C129.581 234.593 129.867 234.918 130.151 235.241C130.227 235.327 130.302 235.412 130.376 235.499C130.691 235.241 131.015 234.994 131.338 234.746C131.843 234.361 132.348 233.975 132.822 233.55C132.608 233.366 132.355 233.1 132.074 232.804C131.066 231.744 129.706 230.312 128.571 230.992C128.498 231.043 128.421 231.038 128.358 231.003C111.647 217.621 88.8531 217.508 68.1286 218.122C57.2366 218.205 46.3425 218.351 35.452 218.564C34.9347 218.644 34.0781 218.624 33.1067 218.602C30.7034 218.546 27.5972 218.474 27.187 219.863C28.5392 219.835 28.5392 221.188 28.5393 222.222C28.5393 222.319 28.5393 222.413 28.5404 222.503ZM27.0974 230.34C26.9588 230.778 26.6617 231.074 26.3138 231.212C26.6344 231.168 26.9561 231.092 27.2686 231.001C27.2077 230.782 27.1514 230.563 27.0974 230.34ZM129.09 236.123C128.735 235.684 128.379 235.244 128.258 234.699C128.237 234.6 128.228 234.459 128.234 234.304C125.8 233.174 123.403 231.955 121.009 230.738C120.723 230.593 120.437 230.447 120.151 230.302C119.826 230.497 119.345 230.617 118.898 230.729C118.815 230.75 118.732 230.77 118.652 230.791C118.537 230.998 118.323 231.149 118.007 231.143C108.552 230.965 99.0977 230.784 89.6426 230.599C100.793 233.396 111.157 238.918 119.71 246.547C122.196 243.942 124.839 241.489 127.482 239.036C128.222 238.349 128.962 237.662 129.699 236.971C129.535 236.672 129.313 236.398 129.09 236.123ZM71.855 271.961C71.0821 268.554 70.3095 265.147 69.3832 261.793C69.1027 259.895 68.1505 258.174 67.196 256.45C66.6397 255.444 66.0826 254.438 65.6572 253.394C65.0481 252.162 64.4484 250.929 63.8495 249.698C62.1241 246.152 60.4049 242.619 58.4826 239.145C57.251 239.444 56.0274 239.783 54.8154 240.164C59.0984 253.452 63.0462 266.856 66.9912 280.25C68.0585 283.874 69.1255 287.497 70.1989 291.116L70.2834 291.102C71.7713 290.844 73.3328 290.573 74.5313 289.61C75.1919 289.079 76.134 289.959 75.563 290.516C74.1586 291.707 72.3277 292.058 70.512 292.406C68.2664 292.836 66.044 293.262 64.6797 295.269C64.1489 296.12 63.9536 297.207 64.5246 298.007C65.2841 297.006 66.5438 296.72 67.7345 296.557C70.541 296.051 72.5856 293.952 74.522 291.964C74.9393 291.536 75.3515 291.113 75.7652 290.712C77.9672 288.533 80.1682 286.353 82.3691 284.172L83.1192 283.429C80.5669 283.198 76.8222 275.539 74.0983 269.967C73.0485 267.82 72.1503 265.983 71.5304 265.001C72.0678 267.347 72.6367 269.688 73.2058 272.029C74.4938 277.329 75.7825 282.631 76.7062 288C76.7363 288.254 76.7388 288.508 76.7413 288.761C76.7434 288.981 76.7456 289.201 76.7659 289.422C76.7714 289.473 76.6974 289.475 76.6805 289.434C74.5362 283.781 73.1953 277.869 71.855 271.961ZM91.9138 321.643C90.514 320.819 93.092 319.591 93.8441 320.383C93.8785 320.407 93.8889 320.444 93.882 320.474C103.456 320.462 113.015 321.087 122.535 322.054C123.783 322.183 125.028 322.329 126.272 322.486C126.673 322.565 127.089 322.603 127.506 322.641C128.313 322.714 129.124 322.788 129.828 323.16C130.95 319.935 131.812 316.635 132.417 313.275C121.961 311.634 111.475 310.202 100.989 308.769C91.6463 307.493 82.3031 306.217 72.9815 304.793C68.9167 308.969 61.9726 304.614 63.8123 299.264C61.5536 297.145 63.4002 293.661 65.7895 292.47C66.9625 291.808 68.2562 291.476 69.5705 291.229C68.2916 286.923 66.9997 282.62 65.7076 278.316C61.905 265.649 58.1007 252.976 54.6212 240.225C9.92255 254.01 -2.85417 314.282 29.156 346.583C60.2507 379.769 114.77 366.14 129.401 324.355C128.15 324.243 126.899 324.129 125.648 324.015C115.658 323.108 105.633 322.197 95.5927 321.877C95.2971 321.864 94.9988 321.855 94.6993 321.846C93.7672 321.818 92.8234 321.79 91.9138 321.643ZM137.578 230.834C137.339 231.047 137.101 231.26 136.871 231.475C127.206 240.838 117.686 250.347 108.167 259.856C101.938 266.077 95.7094 272.299 89.4396 278.48C87.0949 280.666 84.8574 282.984 82.6188 285.304C78.7846 289.277 74.947 293.253 70.5608 296.571C69.9393 296.919 69.2695 297.202 68.5768 297.379C68.3512 297.428 68.1167 297.468 67.8799 297.509C66.8401 297.687 65.7539 297.873 65.1669 298.824C62.7872 302.83 67.7446 307.367 71.635 304.58C71.5777 304.584 71.4391 304.536 71.5467 304.492C72.5896 304.22 73.2715 302.803 73.4652 301.806C71.9887 302.588 71.1015 301.136 70.3564 299.917C70.1632 299.601 69.9796 299.301 69.7977 299.059C69.4414 299.036 69.0796 299.102 68.7056 299.172C68.572 299.196 68.4368 299.221 68.2998 299.242C66.3924 299.176 67.7921 297.495 69.6393 298.046C70.5487 297.924 71.4697 298.569 72.2014 299.087C72.3824 299.206 72.5817 299.296 72.7801 299.386C73.0973 299.53 73.4121 299.673 73.6467 299.928C73.6697 299.637 73.6984 299.345 73.7467 299.057C72.9389 298.829 72.4645 297.864 72.7621 297.096C72.8734 296.563 73.4098 296.122 73.981 296.113C73.9671 296.116 73.9535 296.118 73.9399 296.12C73.9221 296.123 73.9045 296.126 73.8868 296.129C73.9348 296.125 74.2189 296.081 74.2066 296.075C74.4938 296.101 74.8721 296.186 75.015 296.443C86.9506 285.308 99.092 274.375 111.234 263.441C121.108 254.55 130.982 245.658 140.746 236.657C140.225 234.193 139.708 231.728 139.194 229.264C138.708 229.824 138.14 230.331 137.578 230.834ZM74.1982 296.074C74.203 296.074 74.2057 296.074 74.2066 296.075C74.2038 296.074 74.201 296.074 74.1982 296.074ZM87.4241 286.447C84.8575 288.774 82.2897 291.101 79.7231 293.425C86.3456 291.991 93.1779 291.652 99.9285 291.332C98.7576 290.879 97.5828 290.433 96.4075 289.986C93.396 288.842 90.3819 287.697 87.4241 286.447ZM76.7142 296.12C78.6743 295.157 81.0878 294.654 83.04 295.851C84.3697 296.572 86.0795 299.025 84.8001 300.401C100.986 302.355 117.11 304.769 133.215 307.276C133.34 305.833 133.42 304.383 133.452 302.922C124.859 300.221 116.333 297.304 107.856 294.266C106.103 293.631 104.352 292.986 102.604 292.335C101.56 292.353 100.514 292.38 99.4702 292.415C95.4506 292.495 91.4465 292.843 87.4434 293.19C84.7282 293.425 82.0134 293.66 79.2946 293.813C79.0022 294.075 78.7011 294.336 78.3983 294.597C77.8269 295.091 77.2497 295.59 76.7142 296.12ZM139.34 308.248C139.442 307.086 139.517 305.918 139.562 304.745C138.279 304.392 137.004 304.016 135.732 303.629C135.69 304.971 135.608 306.307 135.49 307.636C136.773 307.838 138.057 308.042 139.34 308.248ZM119.584 257.246C130.28 269.628 136.014 285.896 135.762 302.239C137.039 302.622 138.318 302.994 139.603 303.349C140.009 285.787 133.613 268.314 121.744 255.283C121.023 255.938 120.303 256.591 119.584 257.246ZM125.287 252.068C130.989 258.343 135.526 265.5 138.791 273.382C143.44 284.541 145.254 296.898 144.113 309.005L144.213 309.02C147.89 309.595 151.572 310.17 155.222 310.872C156.015 310.934 156.82 310.87 157.576 310.616C151.723 286.475 146.052 262.236 141.008 237.896C135.754 242.605 130.512 247.327 125.287 252.068ZM159.064 311.632C159.004 311.463 158.951 311.284 158.907 311.107C158.958 311.283 159.011 311.458 159.064 311.632ZM175.569 302.006C176.464 299.641 179.105 298.638 180.664 301.016C182.758 305.442 174.585 306.151 175.569 302.006ZM173.448 303.387C173.422 301.965 173.467 300.471 174.009 299.148C173.407 299.13 172.993 298.408 173.297 297.901C170.924 297.536 168.558 297.114 166.206 296.636C165.996 296.641 165.647 296.543 165.263 296.435C164.34 296.176 163.212 295.859 163.311 296.779C163.343 299.866 164.176 302.811 165.009 305.757C165.479 307.417 165.948 309.076 166.274 310.761C168.536 309.508 170.815 308.291 173.114 307.104C173.431 306.979 173.733 306.787 174.036 306.595C174.614 306.229 175.193 305.862 175.879 305.956C174.978 305.618 174.226 305.056 173.841 304.107C173.617 303.977 173.455 303.738 173.448 303.387ZM162.651 295.869C162.621 295.862 162.591 295.855 162.561 295.848C162.576 295.873 162.59 295.897 162.604 295.922C162.62 295.951 162.637 295.981 162.653 296.011C162.676 295.968 162.703 295.926 162.731 295.887C162.705 295.88 162.678 295.875 162.651 295.869ZM143.637 213.825C141.666 213.616 139.697 213.387 137.729 213.154C139.337 221.523 141.256 229.825 143.175 238.126C145.2 246.889 147.225 255.651 148.885 264.493C148.969 264.913 149.054 265.333 149.138 265.753C152.178 280.858 155.224 295.994 159.711 310.762C159.778 310.975 159.842 311.192 159.907 311.409C160.274 312.645 160.648 313.905 161.616 314.836C162.787 315.72 164.235 315.861 164.932 314.474C165.17 313.645 165.004 312.819 164.836 311.977C164.81 311.847 164.784 311.717 164.759 311.586C164.31 309.426 163.94 307.237 163.57 305.049C163.036 301.888 162.502 298.728 161.729 295.66C156.761 294.715 155.939 293.938 156.242 288.905L156.245 288.85C156.365 286.84 156.486 284.812 156.876 282.834C157.128 281.645 157.558 280.479 158.099 279.36C158.122 278.666 158.168 277.974 158.235 277.285C157.11 277.298 156.83 276.118 156.58 275.058C156.485 274.656 156.393 274.271 156.262 273.976C156.205 273.784 156.148 273.593 156.091 273.402C155.813 272.472 155.536 271.542 155.263 270.612C149.758 252.045 145.608 233.05 143.637 213.825ZM152.351 249.978C152.365 249.969 152.38 249.987 152.373 249.999C152.274 250.19 152.083 250.081 152.012 249.922C154.017 258.384 156.026 266.852 158.502 275.196C159.733 267.447 163.297 260.487 166.86 253.528C169.038 249.273 171.217 245.018 172.862 240.584C170.969 241.459 169.075 242.348 167.178 243.238C162.249 245.55 157.306 247.87 152.351 249.978ZM157.082 242.416C155.131 243.443 153.182 244.47 151.241 245.506C151.165 245.531 151.086 245.534 151.009 245.521C151.326 246.95 151.651 248.378 151.984 249.804C151.998 249.526 152.38 249.337 152.658 249.199C152.733 249.162 152.8 249.129 152.851 249.099C155.2 247.763 157.628 246.566 160.054 245.371C160.322 245.238 160.589 245.106 160.857 244.974C162.047 244.392 163.235 243.807 164.422 243.222C167.439 241.736 170.456 240.251 173.492 238.805C174.199 236.712 174.741 234.573 175.26 232.426C169.33 235.963 163.2 239.192 157.082 242.416ZM145.712 216.008C145.789 216.61 145.865 217.206 146.04 217.792C146.507 224.681 147.982 231.477 149.453 238.253C149.886 240.251 150.319 242.247 150.726 244.243C152.131 243.423 153.613 242.75 155.096 242.077C156.6 241.394 158.106 240.71 159.534 239.871C156.784 241.229 154.031 242.579 151.243 243.849C156.106 241.136 161.138 238.642 166.168 236.149C169.291 234.601 172.413 233.054 175.494 231.454C175.702 230.58 175.91 229.706 176.126 228.833C175.291 228.73 174.55 228.446 173.834 227.992C166.22 223.726 158.927 219.032 151.907 213.878C150.86 214.191 149.716 214.281 148.61 214.262C147.583 214.463 146.54 214.596 145.496 214.648C145.596 215.104 145.654 215.558 145.712 216.008ZM168.845 282.753C171.749 280.409 174.862 278.085 178.482 276.947C178.227 275.572 178.319 274.119 178.852 272.824C170.535 272.819 165.17 273.574 159.9 280.443C159.946 280.579 160.089 280.654 160.214 280.72C160.367 280.8 160.495 280.868 160.396 281.016C162.389 283.551 166.141 285.28 168.845 282.753ZM122.986 216.254C123.549 214.762 124.489 213.41 126.035 212.771C126.182 212.703 126.331 212.638 126.48 212.577C122.428 212.317 118.435 211.736 114.479 210.82C114.543 211.092 114.598 211.369 114.653 211.647C114.821 212.489 114.99 213.341 115.427 214.096C117.423 213.489 118.682 214.467 119.743 216.025C120.544 216.946 122.293 217.701 122.986 216.254ZM109.194 171.33C108.674 172.203 108.261 173.128 107.956 174.084C107.332 176.035 107.152 178.116 107.394 180.155C122.014 171.034 140.052 168.749 156.896 171.932C161.128 172.534 165.435 172.847 169.689 172.27C169.016 168.493 169.343 164.613 169.665 160.786C169.73 160.015 169.794 159.247 169.851 158.482C170.026 155.897 170.318 153.105 172.132 151.077C162.799 149.419 153.48 146.434 145.511 141.298C134.266 133.931 132.479 124.914 130.181 113.318C130.025 112.531 129.867 111.732 129.703 110.92C128.63 119.839 126.756 125.527 124.238 133.167C123.762 134.612 123.263 136.125 122.742 137.744C121.037 142.569 118.855 146.996 116.691 151.388C113.6 157.661 110.544 163.863 108.962 171.047C109.106 170.995 109.285 171.178 109.194 171.33ZM155.281 76.4059C143.182 75.5502 135.393 77.1025 132.548 88.2584C128.609 104.299 132.411 119.352 139.935 134.006C146.82 143.752 159.688 146.335 171.071 148.619C171.449 148.695 171.825 148.771 172.199 148.846C172.709 148.437 174.008 148.9 175.247 149.342C176.139 149.66 176.999 149.967 177.511 149.929C177.534 149.904 177.557 149.877 177.58 149.849C177.628 149.792 177.677 149.734 177.729 149.689C177.58 149.819 177.58 149.819 177.628 149.77C177.675 149.722 177.766 149.629 177.81 149.565C178.512 148.542 179.019 147.381 179.509 146.25L179.51 146.248C179.511 146.245 179.513 146.241 179.515 146.238C179.515 146.235 179.516 146.232 179.518 146.229C179.519 146.228 179.519 146.227 179.52 146.226C180.079 144.916 180.579 143.895 181.08 142.874C181.579 141.853 182.079 140.833 182.638 139.525C160.12 134.693 142.553 118.649 148.763 96.1715C148.794 96.0825 148.932 96.0948 148.933 96.194C148.937 97.0264 148.927 97.8584 148.916 98.6902C148.894 100.424 148.872 102.156 148.983 103.891C149.735 120.169 159.624 127.916 175.021 134.509C173.352 124.303 169.675 116.782 166.179 109.631C161.298 99.6478 156.769 90.3855 158.551 75.5443C157.583 76.0808 156.44 76.3165 155.281 76.4059ZM180.006 80.4873C176.191 86.8995 165.419 86.3847 160.494 81.4588C160.061 81.0091 159.669 80.5087 159.338 79.9765C159.795 92.9629 163.775 100.935 167.979 109.355C171.31 116.026 174.781 122.978 176.751 132.927C177.045 129.597 177.319 126.577 177.574 123.774C178.997 108.097 179.807 99.182 180.006 80.4873ZM188.553 83.0485C186.411 81.4569 184.116 80.0528 181.644 79.0022L181.581 78.9705C181.249 78.8035 180.909 78.6324 180.572 78.4514C182.535 95.9879 181.653 106.183 180.467 119.893C180.05 124.715 179.595 129.971 179.213 136.135C181.045 136.742 182.919 137.233 184.822 137.596C185.879 137.799 185.894 139.24 185.171 139.737C185.103 139.859 185.035 139.659 184.971 139.472C184.91 139.297 184.854 139.133 184.806 139.252C184.808 139.244 184.814 139.232 184.821 139.213C184.62 139.685 184.436 140.164 184.251 140.643C185.71 140.966 187.133 141.445 188.553 141.923C190.263 142.5 191.97 143.075 193.73 143.372C192.488 142.374 191.241 141.342 190.242 140.101C189.877 139.594 189.563 139.493 189.189 139.372C188.916 139.284 188.61 139.185 188.229 138.911C188.211 139.31 188.192 139.563 188.176 139.77C188.146 140.167 188.129 140.394 188.157 141.155C188.179 141.751 187.293 141.723 187.231 141.155C187.127 140.492 187.024 139.858 186.924 139.245C186.377 135.878 185.926 133.108 185.972 129.416C185.976 127.935 185.975 126.525 185.974 125.173C185.967 112.598 185.963 104.962 189.194 91.5071C189.222 91.4382 189.312 91.4529 189.321 91.5239C189.442 92.4508 189.404 93.3826 189.365 94.3144C189.358 94.4875 189.351 94.6605 189.345 94.8335C189.133 98.1417 188.914 101.049 188.711 103.737C188.017 112.957 187.518 119.595 188.134 130.97C188.243 131.68 188.226 132.533 188.207 133.416C188.169 135.309 188.127 137.343 189.322 138.419C190.886 140.133 192.767 140.972 194.748 141.855C195.751 142.303 196.78 142.762 197.806 143.352C198.105 143.582 198.46 143.511 198.815 143.44C198.948 143.414 199.081 143.387 199.21 143.377C200.057 143.231 200.883 143.142 201.73 143.344C203.78 143.838 205.199 145.54 206.398 147.131C207.973 146.207 209.784 145.963 211.597 145.718C212.912 145.54 214.228 145.363 215.458 144.925C215.349 144.659 215.259 144.385 215.202 144.109C192.858 132.924 193.282 126.079 195.065 104.345C195.092 103.058 195.123 101.922 195.151 100.881C195.276 96.2692 195.35 93.5243 194.804 87.8491C194.393 85.8093 192.792 85.1206 191.092 84.3894C190.223 84.0156 189.328 83.6307 188.553 83.0485ZM216.979 144.337C217.291 144.992 217.671 145.792 216.765 146.128C214.905 146.81 212.943 147.012 210.979 147.216C209.618 147.356 208.256 147.497 206.924 147.798C207.041 147.956 207.234 148.148 207.445 148.358C208.156 149.065 209.077 149.981 207.999 150.517C208.052 150.63 208.103 150.747 208.152 150.865C210.4 150.581 212.658 150.35 214.916 150.119C216.414 149.966 217.913 149.813 219.409 149.644C218.153 147.878 217.487 145.766 217.405 143.619C217.327 143.87 217.142 144.098 216.931 144.236C216.947 144.269 216.963 144.303 216.979 144.337ZM248.242 155.725C240.686 150.087 232.463 143.949 222.501 144.358C221.404 144.342 220.261 144.34 219.163 144.462C219.295 145.834 219.799 147.171 220.524 148.349C229.502 146.889 237.433 152.005 243.393 158.067C246.212 160.172 249.911 160.438 253.327 160.538C253.203 159.89 253.077 159.242 252.95 158.594L252.909 158.384C251.778 158.462 250.918 157.766 250.068 157.077C249.698 156.777 249.329 156.479 248.941 156.246C248.708 156.073 248.475 155.899 248.242 155.725ZM230.049 140.233C229.167 138.327 226.108 139.259 224.602 139.903C224.276 140.09 224.014 140.297 223.822 140.575C224.263 140.724 224.57 141.172 224.565 141.609C226.442 141.903 228.353 142.049 230.254 142.013C230.316 141.444 230.299 140.959 230.138 140.482C230.139 140.485 230.042 140.233 230.049 140.233ZM242.538 159.771C242.534 159.774 242.53 159.778 242.526 159.781C242.237 160.037 241.951 160.308 241.662 160.582C241.455 160.778 241.247 160.976 241.035 161.17C242.318 161.449 243.647 161.307 244.951 161.168C245.037 161.158 245.124 161.149 245.21 161.14C244.274 160.776 243.39 160.314 242.572 159.736C242.561 159.748 242.55 159.759 242.538 159.771ZM189.327 157.226C189.541 157.145 189.758 157.041 189.978 156.925C189.881 156.843 189.784 156.761 189.687 156.679C189.025 156.12 188.365 155.562 187.681 155.033C187.628 155.933 188.442 156.563 189.103 157.076C189.133 157.099 189.163 157.122 189.192 157.145C189.236 157.173 189.281 157.2 189.327 157.226ZM205.203 148.154C203.955 146.467 202.672 144.733 200.426 144.689C200.492 144.723 200.556 144.758 200.619 144.796C199.432 144.388 198.221 144.552 197.016 144.716C196.284 144.815 195.555 144.914 194.835 144.885C192.707 144.712 190.767 143.972 188.829 143.232C187.206 142.612 185.584 141.992 183.852 141.707C183.645 142.263 183.441 142.821 183.238 143.38C182.328 145.879 181.415 148.39 180.081 150.692C184.403 150.006 188.176 153.114 191.312 155.696C191.439 155.801 191.565 155.905 191.69 156.007C191.729 155.99 191.768 155.974 191.807 155.958C192.138 156.329 192.577 156.552 193.007 156.77C193.078 156.805 193.149 156.841 193.219 156.878C193.224 157.129 193.481 157.214 193.723 157.295C193.832 157.331 193.939 157.367 194.018 157.416C194.012 157.426 194.006 157.436 194.001 157.445C193.989 157.465 193.978 157.484 193.966 157.502C194.808 157.738 195.601 157.456 196.427 157.162C196.471 157.146 196.516 157.13 196.56 157.114C197.867 156.615 199.199 156.164 200.532 155.713C202.578 155.021 204.625 154.328 206.581 153.459C207.246 152.924 206.972 152.23 206.712 151.569C206.479 150.981 206.258 150.419 206.718 150.019C206.181 149.476 205.694 148.818 205.203 148.154ZM179.761 151.166C179.228 151.879 178.539 152.427 177.537 152.471C177.289 152.482 177.042 152.464 176.797 152.428C176.746 153.482 176.679 154.54 176.612 155.601C176.336 159.979 176.057 164.393 176.892 168.711C180.198 169.428 183.549 169.949 186.927 170.189C187.066 166.212 186.896 162.229 186.589 158.264C185.616 157.097 184.921 155.15 186.667 154.284C184.604 152.787 182.208 151.856 179.761 151.166ZM172.276 161.459C172.149 163.919 172.022 166.38 172.144 168.843C172.121 169.221 172.186 169.68 172.254 170.158C172.416 171.303 172.595 172.562 171.617 173.097C171.459 173.922 169.148 174.127 167.718 174.254C167.35 174.287 167.04 174.315 166.841 174.346C170.422 174.658 173.872 175.624 177.319 176.589C178.868 177.022 180.416 177.455 181.976 177.829C180.222 176.154 178.538 173.899 178.942 171.372C175.219 170.87 174.321 170.469 174.323 166.582C174.088 161.809 174.298 156.762 176.17 152.301C175.282 152.047 174.441 151.818 173.539 151.574C172.549 153.65 172.482 155.968 172.416 158.233C172.405 158.605 172.394 158.974 172.379 159.342C172.349 160.047 172.313 160.753 172.276 161.459ZM250.046 189.505C248.422 180.28 249.364 175.681 254.765 167.994C254.402 166.121 254.04 164.249 253.681 162.374C252.383 162.487 251.027 162.318 249.697 162.153C249.108 162.079 248.523 162.006 247.951 161.959C247.276 162.008 246.591 162.098 245.901 162.189C243.918 162.449 241.902 162.714 240.015 162.032C237.773 164.205 224.835 160.294 221.599 159.278C220.756 158.999 219.906 158.734 219.055 158.468C215.47 157.348 211.879 156.226 208.76 154.069C208.143 153.673 208.719 152.697 209.339 153.096C210.717 153.982 212.161 154.766 213.661 155.428C219.503 157.592 225.605 158.858 231.702 160.123C233.149 160.424 234.596 160.724 236.039 161.036C236.364 161.063 236.707 161.156 237.054 161.251C237.831 161.463 238.625 161.679 239.26 161.159C239.818 160.682 240.365 160.191 240.911 159.701C241.161 159.477 241.411 159.253 241.662 159.031C236.206 153.136 229.046 149.458 220.876 148.932C222.117 151.025 219.664 151.441 218.059 151.452C216.584 151.615 215.112 151.798 213.64 151.981C211.956 152.19 210.272 152.398 208.584 152.578C208.753 154.441 206.894 155.318 205.351 155.776C202.796 156.72 200.241 157.663 197.685 158.607C195.993 159.355 194.005 159.855 192.353 158.741C192.193 158.823 192.032 158.911 191.868 159C190.846 159.554 189.74 160.154 188.574 159.788C188.862 163.584 188.86 167.39 188.798 171.192C188.792 171.695 188.361 172.143 187.839 172.134C185.039 172.085 182.237 171.878 179.469 171.453C180.229 173.045 181.549 174.233 182.844 175.4C183.234 175.752 183.622 176.102 183.992 176.46C184.227 176.699 184.494 176.922 184.764 177.146C185.369 177.65 185.983 178.161 186.245 178.882C196.651 181.501 207.03 185.182 215.968 191.123C220.015 193.873 218.564 198.492 216.864 202.173C215.132 206.518 213.357 210.845 211.54 215.155C221.487 209.31 231.653 203.827 241.816 198.345C245.346 196.441 248.875 194.537 252.394 192.619C250.929 192.336 250.236 190.827 250.046 189.505ZM207.346 224.903C207.43 224.856 207.516 224.812 207.601 224.766C207.577 224.772 207.553 224.779 207.529 224.785C207.478 224.799 207.428 224.813 207.378 224.828L207.346 224.903ZM256.575 196.987C256.5 196.554 256.424 196.119 256.336 195.686C256.144 194.75 255.967 193.709 256.247 192.767C255.272 192.552 254.308 192.429 253.316 192.667C247.102 196.963 240.433 200.575 233.775 204.182C231.467 205.432 229.161 206.681 226.874 207.958C225.885 208.509 224.895 209.059 223.905 209.609C219.593 212.003 215.279 214.397 211.053 216.936C210.089 218.199 209.479 219.784 208.869 221.369C208.465 222.418 208.062 223.466 207.556 224.42C207.702 224.362 207.848 224.304 207.994 224.247C211.31 222.935 214.658 221.611 217.693 219.744C218.032 219.675 218.88 219.155 219.795 218.595C221.192 217.74 222.744 216.791 222.869 217.205C230.877 213.267 238.761 209.096 246.575 204.801C248.206 203.908 249.831 203.008 251.452 202.1C251.873 201.919 252.492 201.531 253.176 201.102C254.587 200.218 256.274 199.16 257.07 199.385C256.855 198.592 256.715 197.79 256.575 196.987ZM193.891 284.1L193.987 284.088L193.923 284.05C193.815 284.076 193.707 284.105 193.599 284.135C193.696 284.123 193.794 284.112 193.891 284.1ZM193.45 282.476C193.471 282.393 193.507 282.314 193.561 282.242C209.558 262.856 228.253 245.805 246.886 228.81C251.881 224.254 256.871 219.702 261.804 215.11C261.539 214.309 261.272 213.509 261.005 212.709C259.659 208.683 258.314 204.656 257.356 200.522C243.765 208.907 229.219 215.95 214.65 222.596C218.88 226.406 216.868 232.411 214.277 236.562C211.873 240.861 209.443 245.146 207.013 249.432C205.835 251.508 204.658 253.584 203.483 255.662C200.527 260.556 197.883 265.61 195.238 270.664C194.135 272.772 193.032 274.88 191.906 276.976C191.772 277.178 191.638 277.407 191.498 277.646C190.905 278.662 190.212 279.848 188.983 279.769C189.962 280.584 191.103 280.715 192.337 280.465C192.826 280.409 192.918 281.195 192.452 281.297C192.213 281.349 191.974 281.397 191.734 281.443L192.301 281.784C192.684 282.014 193.067 282.245 193.45 282.476ZM257.674 182.929C257.517 182.127 257.361 181.326 257.205 180.525C256.985 179.397 256.765 178.269 256.545 177.141C256.028 174.491 255.511 171.841 254.997 169.19C254.751 169.689 254.499 170.187 254.247 170.685C252.655 173.83 251.058 176.984 251.095 180.597C251.024 183.08 251.342 185.57 251.695 188.024C251.715 188.162 251.732 188.313 251.749 188.471C251.832 189.203 251.932 190.095 252.417 190.594C252.875 190.922 253.432 190.82 254.003 190.716C254.462 190.632 254.929 190.547 255.357 190.683C255.482 190.704 255.616 190.745 255.753 190.786C256.093 190.888 256.456 190.997 256.758 190.842C257.535 190.264 257.818 189.33 258.096 188.414C258.22 188.004 258.344 187.597 258.51 187.227C258.233 185.794 257.953 184.362 257.674 182.929ZM259.396 190.814C259.36 190.759 259.325 190.703 259.294 190.646C259.246 190.744 259.195 190.84 259.142 190.935C259.226 190.891 259.31 190.851 259.396 190.814ZM264.428 193.521C264.407 193.407 264.387 193.291 264.369 193.176C264.341 193.161 264.313 193.145 264.288 193.129C264.28 193.124 264.273 193.119 264.266 193.114C264.301 193.202 264.337 193.291 264.372 193.38L264.428 193.521ZM300.981 197.571C290.369 199.522 279.106 197.339 268.912 194.255C267.641 193.836 266.379 193.379 265.144 192.863C266.556 198.328 268.235 203.726 269.914 209.126C271.235 213.372 272.556 217.62 273.748 221.901C274.41 222.198 274.519 223.196 274.051 223.695C275.5 224.064 276.31 225.47 277.066 226.784C277.308 227.203 277.543 227.612 277.793 227.976C287.388 219.399 296.617 209.817 300.981 197.571ZM303.945 146.723C304.085 146.309 303.419 146.132 303.28 146.544C300.221 156.577 297.63 166.781 295.38 177.017C294.953 178.429 296.091 178.353 295.991 177.638C298.122 167.233 300.949 156.923 303.945 146.723ZM23.9931 230.622C24.2436 230.877 24.5503 231.071 24.9283 231.166C25.073 231.203 25.2201 231.227 25.3694 231.24C25.0342 231.141 24.7137 230.887 24.5078 230.564C24.3412 230.612 24.1654 230.631 23.9931 230.622ZM22.2675 224.178C22.2824 223.952 22.3031 223.727 22.3284 223.503C22.3391 223.409 22.3486 223.309 22.3586 223.204C22.404 222.727 22.4575 222.163 22.6696 221.764C22.3996 221.868 22.1308 221.975 21.8608 222.086C22.0251 222.777 22.1515 223.477 22.2675 224.178Z" fill="#363636"/>
<path fill-rule="evenodd" clip-rule="evenodd" d="M192.304 54.2083C192.062 52.0898 192.375 47.6618 192.396 47.3928C192.528 45.6921 191.729 38.9762 190.218 39.595C187.684 37.5946 184.308 37.1529 181.152 36.9418C174.596 36.5035 167.621 37.5098 162.559 41.9092C160.055 44.1938 157.618 47.5168 157.814 50.9767C155.539 54.2563 152.332 58.755 155.166 62.5891C156.13 63.814 157.661 64.2702 158.871 65.1979C161.306 67.1556 162.833 69.9653 165.29 71.9114C171.801 77.7447 182.855 78.9632 189.252 72.3283C194.198 67.5231 193.398 60.3343 192.528 54.2083C191.943 50.0898 192.775 58.3413 192.304 54.2083Z" fill="white"/>
<path fill-rule="evenodd" clip-rule="evenodd" d="M172.394 27.958C174.147 27.6052 175.948 27.3857 177.738 27.4518L177.876 27.4571C179.224 27.5108 180.93 27.6296 182.105 28.4107C182.173 28.3431 182.281 28.3084 182.38 28.3553C183.777 29.02 185.313 29.5006 186.783 29.9782C188.247 30.4534 189.766 30.7671 191.3 30.8935C191.877 30.9411 192.371 31.5626 192.006 32.1201C191.919 32.2529 191.834 32.3871 191.75 32.5216C191.891 32.5069 192.032 32.4918 192.173 32.4776C192.637 32.431 193.101 32.925 193.074 33.3757C193.057 33.6592 193.026 33.9393 192.98 34.216C193.157 34.2123 193.333 34.2388 193.503 34.3103C194.363 34.6724 194.303 35.6938 194.239 36.4708C194.149 37.5491 193.745 38.6913 192.994 39.4984C193.555 40.0791 193.952 40.7726 194.188 41.5963C194.36 42.1977 194.456 42.8383 194.409 43.4644L194.394 43.6519C194.335 44.3313 194.219 45.0835 193.729 45.5723C193.477 45.8243 193.167 45.9161 192.872 45.887C193.051 47.4527 193.165 49.0275 193.273 50.5966L193.324 51.3465C193.564 54.9731 193.745 58.6233 193.698 62.2558C193.654 65.6505 192.981 68.9455 190.893 71.7019C188.991 74.2118 186.261 76.062 183.172 76.7654C181.507 77.1451 179.807 77.1719 178.123 76.93C177.306 76.8124 176.484 76.6321 175.709 76.3476C174.85 76.0318 174.234 75.567 173.656 74.8703C173.383 74.5399 173.515 73.8366 174.059 73.9027C174.881 74.0021 175.632 74.1219 176.42 74.3644L176.533 74.3999C177.318 74.6508 178.132 74.8379 178.953 74.9174C180.634 75.0798 182.341 74.9163 183.952 74.4078C186.575 73.579 188.834 71.7321 190.282 69.4115C192 66.6607 192.195 63.5382 192.17 60.3753C192.143 56.9046 192.03 53.4319 191.845 49.9648L191.814 49.387C191.716 47.6028 191.622 45.8175 191.539 44.0323C191.513 43.4723 191.474 42.9078 191.403 42.3489C190.755 41.9703 190.174 41.4484 189.795 40.8044C189.035 41.118 188.235 41.3443 187.499 41.5246C185.795 41.9426 184.025 42.044 182.29 41.7823C181.823 41.975 181.345 42.1445 180.861 42.2903C180.73 42.3482 180.599 42.4051 180.468 42.4609C179.3 42.9593 178.115 43.3815 176.881 43.6907L176.578 43.766C175.929 43.9255 175.224 44.0826 174.534 44.1319C174.42 44.1756 174.298 44.2126 174.164 44.2451C173.535 44.3974 172.882 44.4455 172.238 44.3918C171.61 44.3391 171.156 43.7063 171.502 43.1139C171.755 42.6815 172.01 42.2503 172.267 41.8203C171.372 42.1921 170.447 42.5012 169.515 42.7633C168.574 43.0276 167.619 43.2505 166.663 43.4555C166.152 43.5641 165.639 43.6604 165.129 43.7691C164.764 43.8463 164.203 43.8867 163.905 44.1263C163.576 44.3895 163.483 45.0033 163.358 45.3819C163.194 45.8735 163.04 46.3675 162.9 46.867C162.621 47.8638 162.391 48.8751 162.214 49.8966C162.036 50.9191 161.917 51.9518 161.851 52.9878C161.785 54.0227 161.814 55.0643 161.707 56.0947C161.65 56.6412 161.061 56.9223 160.627 56.5404C160.576 56.4956 160.524 56.4503 160.473 56.4045L160.398 56.3355C160.026 55.9995 159.665 55.6433 159.368 55.2423C159.314 55.1684 159.262 55.0911 159.214 55.0127C159.206 55.0127 159.199 55.0105 159.191 55.0049L159.109 54.943C158.2 54.2688 156.683 53.3898 155.797 54.5099C155.514 54.8667 155.37 55.321 155.25 55.7594L155.04 56.5439C154.903 57.056 154.775 57.571 154.7 58.095C154.531 59.2687 154.616 60.6217 155.426 61.5625C155.75 61.9388 156.195 62.2076 156.693 62.2782C156.971 62.3163 157.245 62.2692 157.52 62.2345C157.799 62.1998 158.069 62.2558 158.349 62.2289C158.794 62.1852 158.988 62.7161 158.822 63.0499C158.732 63.2291 158.626 63.3836 158.506 63.5147C158.603 63.5975 158.695 63.6871 158.783 63.7812C159.046 63.8652 159.282 64.0455 159.459 64.2841C159.601 64.4767 159.675 64.6862 159.688 64.9068C159.703 64.9617 159.717 65.0177 159.729 65.0748L159.97 65.4648C160.023 65.5503 160.076 65.6348 160.129 65.7177C160.742 66.6809 161.423 67.4963 162.269 68.2646C163.083 69.0038 163.967 69.6657 164.732 70.4587L164.822 70.5528C165.536 71.3022 166.287 72.2093 166.008 73.299C165.936 73.579 165.544 73.7806 165.288 73.5913C164.465 72.982 164.05 72.0166 163.352 71.2774C162.633 70.5158 161.836 69.8315 161.115 69.0721C160.433 68.3553 159.895 67.5433 159.49 66.6495C159.328 66.8276 159.092 66.9542 158.765 67.0035C158.204 67.0875 157.68 66.7593 157.436 66.2743C157.278 66.3438 157.118 66.4065 156.956 66.4558C156.104 66.7156 155.569 65.7715 155.89 65.0737C156.062 64.6996 156.276 64.3748 156.543 64.1015C155.71 63.9873 154.863 63.5583 154.316 63.023C152.944 61.6779 152.755 59.6563 153.064 57.8587C153.228 56.9055 153.511 55.9412 153.878 55.0463C153.942 54.8907 154.011 54.7339 154.086 54.5793C154.044 54.5782 154.002 54.5603 153.975 54.5255C153.726 54.1873 153.424 53.9107 153.24 53.5321C153.07 53.1849 152.882 52.8332 152.748 52.4715C152.473 51.7311 152.338 50.8956 152.248 50.1127C152.063 48.51 152.135 46.9174 152.381 45.3247C152.8 42.6121 153.812 40.0162 155.302 37.7383C155.221 37.6958 155.143 37.6445 155.071 37.5838L155.035 37.5526L154.977 37.5002C154.551 37.1164 154.588 36.397 154.977 36.0083L155.1 35.8856C155.255 35.7316 155.389 35.6096 155.64 35.442C155.677 35.4172 155.715 35.3939 155.753 35.3722C155.622 35.1301 155.576 34.8469 155.668 34.5346C155.987 33.4464 157.557 33.4849 158.553 33.9594C159.654 32.9795 160.875 32.1289 162.198 31.4401C165.35 29.8004 168.914 28.6569 172.394 27.958ZM156.101 56.6188C156.69 56.4273 157.472 56.8294 158.001 57.0713C158.671 57.3782 159.242 57.8318 159.794 58.3112C160.07 58.5508 160.119 58.9428 160.051 59.2777C160.044 59.3113 160.037 59.346 160.029 59.3808C159.956 59.738 159.556 60.0192 159.202 60.0091C158.462 59.9889 158.11 59.3516 157.69 58.8118C157.641 58.8992 157.579 58.9798 157.503 59.0403L157.451 59.0806C157.277 59.2126 157.086 59.3181 156.856 59.308C156.693 59.3001 156.537 59.2587 156.393 59.1836C156.034 58.9944 155.875 58.5307 155.973 58.1532C156.034 57.9158 156.173 57.7299 156.355 57.6011L156.287 57.5548C156.142 57.4541 156.01 57.3479 155.906 57.1913L155.883 57.1542H155.892C155.78 56.9616 155.853 56.6995 156.101 56.6188Z" fill="#363636"/>
<path fill-rule="evenodd" clip-rule="evenodd" d="M185.99 63.7747C186.024 63.8113 185.949 63.8606 185.913 63.8339C185.485 63.5247 184.811 63.7002 184.398 63.8402C184.398 63.8402 184.247 68.6915 184.414 68.8064C184.581 68.9214 186.935 68.8531 186.935 69.141C186.935 70.0819 185.519 70.4351 184.751 70.3791C183.541 70.2912 182.294 70.1192 181.086 70.2585C179.878 70.3978 177.311 71.1666 175.997 70.1042C174.43 68.837 174.642 66.7545 175.946 65.3949C176.768 64.5379 177.977 64.0238 179.17 63.6429C180.914 63.0854 185.027 62.7256 185.99 63.7747ZM182.771 67.3363C182.139 67.5819 178.993 68.6177 178.246 68.8064C179.119 68.7439 182.102 68.6749 182.771 68.3517C182.847 68.0493 182.895 67.2885 182.771 67.3363ZM183.252 63.9734C181.54 64.2506 177.842 65.501 177.311 66.1666C178.118 66.04 182.621 65.501 183.129 65.501C183.203 65.1092 183.154 64.4223 183.252 63.9734ZM183.799 56.3771C184.647 56.8912 185.939 58.09 185.027 59.3644C183.953 60.4882 182.406 59.1997 181.644 58.617C180.938 58.1654 180.144 59.3269 180.799 59.8542C186.306 63.9193 188.541 56.5115 184.228 55.7727C183.753 55.6913 183.577 56.2181 183.799 56.3771ZM185.679 48.8757C186.177 48.8716 186.468 49.1938 186.842 49.4808C187.226 49.7764 187.69 50.0121 188.139 50.1927C188.608 50.3807 189.109 50.53 189.602 50.6365C190.113 50.7467 190.584 50.6951 191.092 50.7884C192.437 51.0358 192.119 53.2734 190.769 53.1628C189.555 53.0632 188.251 52.3191 187.329 51.5475C186.889 51.1789 186.518 50.7564 186.156 50.3149L186.088 50.2319C185.767 49.8369 185.468 49.4327 185.629 48.9143C185.636 48.8919 185.656 48.876 185.679 48.8757ZM174.454 55.4062C174.455 54.692 174.872 53.0614 175.903 53.0614C176.548 53.0614 176.939 54.1712 177.006 55.3152L177.009 55.3618C177.039 56.0731 176.843 57.6278 175.903 57.6278C174.954 57.6278 174.463 56.1553 174.454 55.4315L174.454 55.4062ZM189.635 55.4062C189.634 54.692 189.216 53.0614 188.185 53.0614C187.557 53.0614 187.17 54.1164 187.088 55.2295L187.082 55.3152C187.042 56.0024 187.225 57.6278 188.185 57.6278C189.135 57.6278 189.625 56.1553 189.635 55.4315L189.635 55.4062ZM177.828 48.9823C178.471 48.7055 179.208 48.7841 179.595 49.4443C179.962 50.069 179.712 50.822 179.132 51.2064C178.562 51.5839 177.796 51.7893 177.141 52.0052L177.069 52.0292C176.433 52.2424 175.798 52.4166 175.141 52.5528C174.528 52.6801 173.91 52.7743 173.289 52.8495L173.102 52.8715C172.618 52.9273 171.942 53.1151 171.505 52.84C171.467 52.8157 171.452 52.7654 171.475 52.7251C171.729 52.2866 172.403 52.1119 172.836 51.8898C173.391 51.6044 173.939 51.3006 174.481 50.9916C175.03 50.6791 175.577 50.3614 176.119 50.0389C176.683 49.7039 177.229 49.2401 177.828 48.9823Z" fill="#363636"/>
<path fill-rule="evenodd" clip-rule="evenodd" d="M173.792 68.6776C174.701 66.5533 176.686 64.992 178.971 64.4212C180.65 64.0031 182.411 64.0165 184.121 64.1824C185.018 64.2687 185.979 64.3395 186.824 64.6714C187.545 64.9549 188.133 65.4908 188.575 66.1199C189.101 66.8654 189.459 67.7187 189.71 68.5932C189.746 68.7175 189.779 68.8428 189.811 68.9687C189.701 69.6285 189.469 70.1901 188.856 70.605C188.258 71.0101 187.545 71.1758 186.833 71.2346C186.763 71.2012 186.696 71.1669 186.634 71.1317C185.525 70.4989 184.745 69.0034 183.346 69.2058C182.097 69.3866 181.275 70.9532 180.533 71.8719C178.149 72.1489 175.767 71.4347 173.827 70.0755C173.729 69.6103 173.723 69.1412 173.792 68.6776M191.431 67.0661C191.24 66.5326 191 66.0158 190.715 65.529C189.774 63.919 188.329 62.6363 186.614 61.903C182.557 60.1708 177.307 61.3919 174.03 64.2329C172.911 65.204 171.779 66.6312 171.437 68.1664C171.335 68.1865 171.238 68.2396 171.159 68.3142C168.791 66.8281 166.353 65.3982 164.446 63.3381C163.06 61.8413 162.097 60.07 161.507 58.1235C161.458 57.9632 161.199 57.9867 161.207 58.1639C161.209 58.2054 161.212 58.2468 161.214 58.2883C161.189 58.212 161.072 58.2513 161.064 58.3253C160.746 60.6899 160.349 63.1969 160.715 65.5738C160.933 66.9921 161.58 68.0305 162.443 69.1517C163.369 70.3535 164.416 71.4713 165.488 72.5433C166.168 73.2237 166.878 74.0086 167.71 74.5075C168.678 75.0872 169.776 75.5279 170.809 75.9752C171.861 76.4315 172.927 76.8531 174.014 77.2186C176.187 77.9518 178.433 78.4586 180.718 78.6806C182.548 78.8578 184.639 79.0507 186.392 78.3644C187.736 77.8386 188.82 76.8879 189.681 75.7442C190.618 74.4985 191.358 73.0797 191.767 71.5834C192.193 70.0292 191.52 67.3167 191.431 67.0661" fill="#363636"/>
</svg>
