<svg width="391" height="780" viewBox="0 0 391 780" fill="none" xmlns="http://www.w3.org/2000/svg">
<path fill-rule="evenodd" clip-rule="evenodd" d="M193.893 408.892C193.631 418.405 192.092 427.887 190.935 437.345C190.009 446.694 188.262 456.132 186.859 465.307C186.803 466.911 184.595 467.691 183.528 466.498C183.556 445.638 189.134 424.234 187.158 402.937C188.751 402.048 190.372 401.066 191.919 400.083C194.005 402.834 194.236 406.01 193.893 408.892M111.484 285.906C109.098 294.569 104.043 302.036 101.829 310.712L99.4907 310.48C98.3403 291.342 101.574 272.539 105.351 254.044L107.701 254.183C108.53 264.841 113.979 274.937 111.484 285.906M368.888 215.413C368.761 215.057 368.632 214.693 368.511 214.325L367.142 214.618C369.692 209.787 367.314 208.198 364.429 204.204L364.115 204.93L363.005 202.504C362.784 201.888 362.559 201.365 361.951 201.134C361.356 198.116 359.586 195.352 357.229 193.85L356.777 194.357C355.843 193.541 354.717 193.23 353.644 192.852C355.946 189.377 357.426 184.87 358.978 181.145C360.242 177.232 362.218 173.435 362.589 169.468C362.29 165.655 358.686 168.132 356.929 170.033C351.56 174.741 346.936 182.198 343.471 191.253C337.521 189.705 334.107 191.338 332.454 199.468C330.933 204.991 329.377 210.655 329.172 216.381C328.373 216.107 326.956 215.076 326.19 215.885C312.966 230.353 297.351 241.5 282.25 253.699C270.837 245.305 264.899 228.697 258.622 216.231C247.673 194.832 236.724 163.506 208.56 163.616C204.828 163.227 201.183 162.781 197.659 161.697C196.295 161.326 194.608 160.88 194.145 160.051C193.311 157.382 193.153 154.494 191.685 152.047C187.659 145.503 178.936 144.988 172.101 146.409C160.495 148.56 160.787 147.304 159.95 159.509C159.698 162.407 157.452 162.822 155.055 163.422C152.333 164.28 149.559 164.981 146.762 165.546C147.052 165.464 147.342 165.384 147.633 165.302C102.212 166.021 72.0541 218.703 66.0712 255.973C59.1223 294.104 68.1101 336.54 82.3193 368.566C81.7092 380.229 83.9974 391.944 85.4461 403.44C86.3554 406.316 89.5036 406.596 90.4037 403.264L91.5132 398.879L92.7009 403.244C93.454 405.945 94.6642 406.266 95.7531 406.284C97.104 406.284 97.8445 405.618 97.8889 402.107L100.126 401.569C100.988 403.212 101.845 404.664 103.199 405.674C105.923 425.474 107.633 446.062 114.245 465.222C116.882 472.332 120.931 478.788 123.904 485.764C109.884 517.405 107.534 552.469 104.167 586.348C104.438 586.369 105.829 586.491 106.126 586.517L105.359 588.557C104.31 589 103.694 589.935 103.376 590.969C102.669 590.911 99.7185 590.933 99.8828 591.608C100.224 595.589 101.34 598.429 103.455 600.501C103.484 601.14 103.524 601.791 103.573 602.395C99.377 617.034 96.3022 632.641 94.4339 648.733C92.0588 651.018 91.4643 658.535 95.0067 660.54C104.786 667.272 117.923 670.469 130.291 669.255C143.677 667.989 159.641 662.656 153.235 647.392C153.152 646.918 152.502 646.895 151.99 646.999C150.855 645.898 149.625 645.066 148.294 644.598C145.65 637.995 143.272 631.072 141.198 624.161C140.187 620.986 139.142 617.704 139.228 614.223C139.729 605.674 140.609 602.141 146.55 595.408C150.228 597.176 157.237 584.372 158.844 581.684C162.223 573.733 166.529 566.505 170.137 558.704C170.695 557.387 172.643 557.358 173.405 558.5C173.748 558.981 173.834 559.576 173.641 560.133C170.498 569.198 166.219 577.854 162.092 586.311C163.498 591.223 164.054 599.427 167.571 603.083C169.484 615.809 156.393 621.64 164.828 635.754C161.973 635.95 161.707 637.091 161.757 640.558C161.747 643.047 161.683 645.659 162.152 647.986C162.721 650.845 165.36 651.611 169.321 652.454C172.531 653.164 175.622 653.975 178.807 654.741C182.029 655.812 185.423 655.724 186.747 652.466C202.7 657.872 248.689 657.254 263.9 650.09C268.101 648.409 271.063 647.459 267.206 642.726C265.082 629.219 230.412 638.876 225.515 624.061C224.816 622.137 223.807 621.126 221.842 620.775C222.142 619.247 221.742 617.548 220.04 617.108C219.528 616.955 218.983 616.916 218.455 616.434C217.146 613.738 214.999 612.103 212.498 610.669C213.52 609.2 212.694 608.515 212.235 606.871C211.768 603.725 212.84 600.711 212.785 597.654C213.36 596.69 213.804 595.34 214.724 594.671C215.576 594.07 215.046 593.809 214.714 593.145C214.968 592.921 215.541 592.411 215.8 592.207C216.797 591.112 215.752 589.515 214.475 589.392C214.318 588.864 214.131 588.251 214.011 587.727C217.544 577.111 221.712 563.327 223.096 548.723C224.435 525.363 223.179 505.669 230.299 481.929C240.251 444.339 259.584 409.064 259.845 369.287C259.513 362.693 261.341 355.672 259.683 349.201L261.742 348.13C262.038 348.472 262.574 348.462 262.681 347.998C264.032 345.807 262.518 343.179 262.207 340.78C262.914 340.023 262.561 339.334 261.708 338.921C252.563 306.648 237.266 301.934 241.477 261.593C248.347 276.145 263.567 290.877 280.343 288.711C297.243 291.236 336.666 250.081 344.279 236.777C345.675 236.885 345.692 235.885 345.904 234.943C352.858 235.76 359.368 230.304 359.497 223.628C365.6 227.41 372.121 222.009 368.888 215.413" fill="white"/>
<path fill-rule="evenodd" clip-rule="evenodd" d="M320.248 259.197L319.593 259.78C308.88 269.301 297.517 278.805 284.105 284.185C282.288 284.847 280.395 285.026 278.528 285.42C262.929 285.574 252.337 273.502 242.459 263.093C243.286 245.28 242.602 226.888 235.559 210.242L235.391 209.814C233.668 205.46 231.561 201.143 228.193 197.816C228.109 197.735 227.995 197.856 228.067 197.942C230.941 201.461 232.615 205.759 233.817 210.095L233.878 210.316C237.977 225 238.69 240.409 238.151 255.576L238.134 256.035C237.766 266.283 236.88 276.586 238.115 286.813C239.015 297.369 243.69 306.913 248.781 316.029C253.218 324.449 256.535 333.45 258.546 342.752C257.899 345.497 255.557 347.51 253.122 349.038C248.721 351.754 243.622 353.24 238.642 354.484C218.265 359.71 197.041 362.136 176.075 359.606C153.708 356.705 131.879 350.702 110.217 344.589C107.99 343.907 105.517 343.288 103.389 342.226C103.247 342.07 103.078 341.937 102.895 341.828C102.528 336.636 102.04 331.49 101.677 326.311C102.168 316.278 104.957 306.522 109.232 297.462C117.043 282.608 114.463 273.575 109.701 258.441C108.607 254.59 107.826 250.56 107.923 246.59C108.422 244.09 108.904 241.587 109.348 239.077C109.533 238.596 109.735 238.119 109.961 237.645C110.004 237.555 109.882 237.484 109.825 237.567C109.726 237.709 109.631 237.854 109.536 238.001C109.866 236.086 110.172 234.168 110.441 232.246C110.476 231.993 110.148 231.893 110.053 232.14C101.494 255.137 96.5255 279.789 96.73 304.364C96.8514 311.6 97.3501 318.833 97.8821 326.053L97.8326 326.749C97.644 329.48 97.5448 332.264 98.5019 334.867C98.7057 339.332 99.4642 343.744 99.2287 348.222C98.6762 352.311 97.4413 355.205 94.367 358.032C91.3224 361.121 87.8377 363.676 83.8678 365.449C67.3635 317.259 57.6939 267.201 81.5609 219.55C92.6381 196.35 111.707 175.507 137.298 168.877C133.651 172.901 136.494 178.92 139.116 182.756L139.276 182.989C151.835 201.567 179.49 205.993 200.23 201.952C210.278 200.231 219.698 193.737 220.5 182.877C221.123 175.603 216.975 168.429 210.706 164.845L211.47 164.929C217.571 165.606 223.497 166.583 228.181 170.942C245.443 186.887 253.45 209.597 263.647 230.156L264.053 230.904C268.42 238.99 272.64 247.723 279.896 253.587L278.54 254.741V254.741C278.369 254.888 278.552 255.22 278.768 255.132C279.467 254.85 280.16 254.554 280.851 254.253C281.826 255.033 282.945 254.244 283.062 253.253C299.47 245.411 313.339 232.973 326.212 220.356C329.462 227.87 334.943 236.067 343.717 237.295C335.433 244.08 328.102 251.925 320.248 259.197ZM188.359 403.282C189.424 402.676 190.475 402.048 191.512 401.396C193.225 404.132 192.789 406.536 192.605 409.558C192.214 414.598 192.301 419.726 191.277 424.687C189.503 437.347 188.454 450.575 185.819 462.912C185.76 463.602 185.699 464.291 185.645 464.981C185.575 465.888 184.149 465.893 184.22 464.981C185.955 444.502 189.638 423.903 188.359 403.282ZM198.017 649.984C211.385 652.2 225.031 650.628 238.405 649.204L240.368 648.95C246.698 648.128 253.065 647.265 259.282 645.887C259.806 645.454 260.613 645.263 260.928 644.622L261.312 644.649C261.636 644.466 261.967 644.294 262.302 644.132C263.279 643.957 264.075 643.745 265.084 643.469C266.452 643.933 266.595 645.135 265.666 645.986C265.759 646.42 265.239 646.668 264.899 646.86C264.844 646.97 264.76 647.074 264.633 647.163C264.023 647.547 263.407 648.007 262.709 648.197C261.003 649.968 257.339 650.641 255.321 651L255.121 651.036C238.35 654.033 221.192 654.839 204.208 653.485C201.28 653.25 198.354 652.951 195.439 652.588L194.645 652.487C192.127 652.162 189.351 652.036 187.416 650.197C186.452 649.282 184.52 649.86 184.574 651.314L184.578 651.37C184.747 653.759 179.153 651.783 178.046 651.474L178.013 651.465C174.916 650.626 171.839 649.699 168.732 648.9L167.97 648.753C165.272 648.218 165.062 647.947 165.032 644.608L164.932 643.7C164.796 642.49 164.651 641.284 164.455 640.083L164.379 639.633C164.291 639.129 163.432 636.005 164.864 636.419C165.044 636.472 165.22 636.327 165.229 636.152C175.292 642.551 186.181 647.905 198.017 649.984ZM144.869 658.038L145.723 657.526C147.154 656.662 148.59 655.724 149.605 654.411C151.279 654.474 151.967 652.9 151.904 651.496C153.309 656.06 151.566 659.713 147.448 662.024C133.103 669.628 114.749 668.508 100.468 661.278C99.098 660.571 97.7586 659.805 96.4595 658.978L96.1672 658.792C95.6804 658.48 95.2083 658.146 94.9491 657.611C94.3243 655.781 94.3328 653.978 94.2651 651.939C95.3471 653.396 97.1428 654.406 98.6349 655.409C101.482 657.312 104.567 658.822 107.766 660.033C119.612 664.428 133.682 664.16 144.869 658.038ZM101.482 283.237C102.626 273.319 104.587 263.539 106.486 253.748C107.258 264.271 112.728 274.518 110.296 285.164C107.918 293.733 102.823 301.335 100.646 309.979C100.223 301.052 100.484 292.119 101.482 283.237ZM115.58 369.286C114.293 369.52 112.97 369.515 111.668 369.423C106.393 368.785 105.559 371.975 105.577 376.436C105.416 379.32 105.24 382.203 105.089 385.088L105.002 386.82C104.893 389.126 104.603 391.704 104.893 394.115C103.937 396.304 103.42 398.586 103.268 400.978C102.829 400.86 102.359 400.917 102.022 401.147C100.086 397.701 99.6229 393.494 99.2239 389.614C99.0292 387.706 96.222 387.618 96.1793 389.614C96.1247 392.328 96.0843 395.044 96.0368 397.758L95.9632 401.945V401.945L95.9634 402.008C95.9752 402.604 96.2451 404.111 95.511 404.053L95.4692 404.048C94.1032 403.946 94.0402 399.09 93.7448 397.879L92.6051 389.756V389.756C92.349 387.939 89.7334 388.532 89.5535 390.117L89.5486 390.168C89.2287 393.881 88.9043 397.593 88.6295 401.308C88.5428 401.951 88.5312 403.113 87.8292 403.394C87.2091 402.837 87.0915 401.901 86.9597 401.123C85.7922 390.405 83.5999 379.824 82.2482 369.131C83.1245 369.006 83.9272 368.461 84.1837 367.622C91.2167 366.186 98.5974 362.231 102.131 355.804C102.836 356.425 103.387 357.238 104.071 357.876C105.152 358.888 106.339 359.801 107.474 360.746C110.656 363.438 113.85 365.978 116.967 368.752C116.511 368.902 116.095 369.193 115.58 369.286ZM192.099 149.878C192.135 149.738 192.329 149.779 192.339 149.911C192.533 152.614 193.182 155.465 194.17 158.114C194.524 158.171 194.863 158.37 195.11 158.757C195.443 159.276 197.033 159.638 197.863 159.882L197.981 159.918C201.426 160.981 205.022 161.41 208.595 161.789C225.399 162.717 231.515 167.979 240.995 181.273C252.249 196.249 258.563 214.024 267.046 230.554C269.133 234.574 271.387 238.499 273.864 242.293L274.1 242.653C276.313 246.017 278.761 249.425 282.141 251.695C290.319 244.844 299.066 238.728 307.156 231.771L307.913 231.116C313.983 225.873 319.78 220.318 325.297 214.497C325.948 213.809 327.169 213.629 328.071 214.032C328.424 208.793 329.905 203.653 331.27 198.591C332.704 192.07 335.195 187.663 342.708 189.276C345.732 181.669 349.781 174.244 355.912 168.689L356.306 168.335C357.611 167.151 359.325 165.453 361.158 165.606C362.823 165.744 363.678 167.249 363.744 168.78C363.821 170.596 363.028 172.445 362.46 174.147L362.412 174.293C361.681 176.528 360.892 178.744 360.058 180.943C359.256 183.06 358.396 185.155 357.496 187.231C356.579 188.968 355.904 191.843 354.233 192.893C353.37 193.406 352.482 192.717 352.39 191.836C352.259 190.682 352.924 189.668 353.414 188.663C353.865 187.738 354.306 186.809 354.736 185.875C356.464 182.116 358.014 178.278 359.346 174.364C359.742 173.046 361.361 169.62 360.799 168.436C360.237 168.441 359.079 169.628 358.669 169.981C352.228 175.311 348.042 182.675 343.254 189.395C346.259 190.253 349.521 190.655 352.017 192.67C357.151 197.146 353.028 206.007 346.146 204.357C348.067 208.435 349.719 215.022 346.315 218.706C345.291 219.663 343.304 219.358 342.993 217.832C342.66 216.21 343.059 214.821 343.425 213.25C344.087 210.051 344.489 206.775 344.037 203.518L343.895 203.434C342.729 202.727 341.995 201.933 342.031 200.471C341.879 199.413 343.007 197.989 344.14 198.854C344.508 199.134 344.957 199.155 345.344 199.437C346 200.061 346.816 200.551 347.747 200.544L347.837 200.541C349.034 200.532 349.918 199.811 350.283 198.693C351.286 195.624 347.816 194.593 345.56 194.003L344.977 193.823C338.819 191.942 336.587 191.912 335.039 199.141C333.363 204.534 331.886 210.087 329.052 215.016L329.404 215.857C332.254 222.636 335.831 230.44 343.491 232.519C343.762 230.254 346.215 230.173 347.989 230.229C350.28 230.106 352.579 228.945 354.197 227.276C355.611 225.854 356.322 223.873 357.885 222.605C357.178 220.998 358.776 219.225 360.446 220.149C361.571 220.77 362.251 221.657 363.609 221.837C364.813 221.998 365.922 221.578 366.836 220.808C369.223 218.794 368.088 215.833 368.672 213.195C367.903 214.525 366.625 215.544 365.257 216.248C356.123 221.467 356.214 211.235 361.263 212.916C366.746 211.67 366.654 209.69 364.604 205.042L364.568 204.933C364.234 203.958 363.49 202.233 364.181 201.182C364.219 201.129 364.288 201.113 364.338 201.16C364.965 201.776 365.212 202.81 365.741 203.535L366.372 204.288C368.289 206.595 370.295 209.336 369.05 212.416C369.183 212.387 369.328 212.444 369.373 212.605C369.962 214.745 371.133 216.848 370.89 219.137C370.384 224.155 364.938 226.91 360.429 224.818C359.562 231.269 353.194 235.911 346.811 235.624C346.609 236.508 345.954 237.285 344.94 237.366C335.547 252.395 298.625 291.06 280.519 289.444C278.787 290.228 276.583 289.835 274.75 289.598C260.688 287.766 248.936 277.494 242.38 265.319C239.97 305.2 253.588 304.716 262.7 337.756C263.612 338.327 264.144 339.574 263.436 340.629C263.827 342.628 264.628 344.676 264.319 346.727C264.167 347.312 263.861 347.846 263.583 348.381C263.011 349.474 261.503 349.343 260.797 348.493C261.995 352.819 261.484 357.361 261.177 361.772C260.99 364.363 261.004 366.918 261.001 369.511C260.644 408.983 241.339 444.572 231.415 482.02C228.608 492.516 226.452 503.213 225.604 514.056C224.704 525.591 225.331 537.19 224.248 548.712C222.993 562.055 219.424 575.024 215.215 587.708C215.467 588.735 215.99 589.905 215.667 590.79C209.655 591.802 203.852 593.643 198.012 595.352C197.783 595.417 197.641 595.559 197.569 595.728L196.234 596.171V596.171C195.368 596.459 195.739 597.833 196.613 597.542L198.072 597.058C203.062 595.409 208.11 593.833 213.3 593.094L213.459 593.029C214.497 592.615 215.718 592.31 216.265 593.452C216.542 594.03 216.323 594.613 215.926 595.071C215.591 595.458 215.165 595.696 214.872 596.135C214.545 596.712 214.268 597.319 213.942 597.905C213.946 600.802 212.991 603.671 213.361 606.561C213.64 607.76 214.613 608.91 213.995 610.194L214.277 610.374C215.914 611.424 217.479 612.577 218.555 614.2C218.79 614.555 218.968 615.288 219.237 615.539C219.517 615.8 220.039 615.831 220.384 615.954C222.128 616.483 223.225 618.056 223.075 619.881C227.158 621.054 225.752 625.196 229.967 628.079C234.294 631.21 240.152 631.554 245.263 632.367L253.972 633.753V633.753L254.478 633.815C259.991 634.494 267.18 635.772 268.289 642.203L268.378 642.307C269.71 643.895 270.991 646.91 269.347 648.634C268.01 649.819 266.184 650.376 264.565 651.066C262.32 652.685 259.085 653.44 256.622 653.897C235.33 657.834 213.395 658.29 191.959 655.236L191.6 655.183C190.102 654.959 188.555 654.656 187.188 654.015C185.275 657.23 181.592 656.826 178.491 655.914C176.056 655.312 173.622 654.719 171.188 654.127L170.96 654.067C167.2 653.103 161.868 652.81 160.957 648.23C160.487 645.872 160.518 643.248 160.541 640.852L160.536 640.065C160.533 638.046 160.692 635.31 162.98 634.884C159.801 629.002 160.494 621.77 163.455 615.939L163.612 615.653C165.791 611.663 167.152 608.331 166.429 603.617C164.978 602.252 164.301 600.292 163.764 598.365C162.636 594.309 161.652 590.21 160.818 586.083L162.111 583.43C165.904 575.646 169.654 567.829 172.488 559.64C172.748 558.888 171.525 558.356 171.186 559.092C167.603 566.857 163.221 574.236 159.885 582.118C157.674 586.24 155.018 590.116 152.041 593.724L151.91 593.908C150.754 595.49 149.786 596.016 147.888 596.668C147.584 596.796 147.275 596.798 146.985 596.716C145.174 599.167 142.976 601.11 142.024 604.037C140.986 607.274 140.59 610.834 140.385 614.219C140.276 618.628 142.116 622.792 143.271 626.98C145.038 632.621 147.005 638.201 149.181 643.698C150.344 644.168 151.399 644.89 152.372 645.78C153.183 645.702 154.037 646.07 154.34 647.057L154.466 647.469C155.538 651.02 156.447 655.121 155.056 658.677C151.209 667.295 138.846 669.443 130.39 670.475C117.867 671.663 104.731 668.674 94.3055 661.547C92.8331 660.516 91.8285 659.343 91.5839 657.516L91.5582 657.288C91.2216 654.232 91.1435 650.606 93.2677 648.237C95.0835 632.736 98.0581 617.241 102.342 602.226C102.309 601.802 102.283 601.378 102.261 600.951C99.8701 598.464 98.9342 594.963 98.6658 591.601C98.6347 590.189 100.066 589.894 101.176 589.721L101.584 589.717C105.201 589.692 108.933 589.869 112.16 591.217L112.001 591.224C111.838 591.232 111.667 591.251 111.543 591.336C113.16 591.853 114.923 592.083 116.469 592.763C117.614 592.819 118.612 593.362 119.771 593.46L119.956 593.472C120.162 593.49 120.319 593.429 120.431 593.327C123.546 593.882 126.643 594.628 129.752 595.085C130.649 595.216 131.037 593.847 130.131 593.714C125.971 593.103 121.83 591.982 117.641 591.463C116.715 591.104 115.82 590.644 114.891 590.273C114.837 590.15 114.735 590.04 114.57 589.963C113.552 589.485 112.494 589.092 111.412 588.764C108.638 587.905 105.724 587.544 102.835 587.373L103.039 585.309C106.363 551.586 108.789 516.959 122.579 485.553C119.649 478.791 115.664 472.351 113.1 465.395C112.036 462.615 111.39 459.781 110.547 456.944C109.999 455.585 109.546 454.208 109.327 452.751C105.951 437.32 104.042 421.624 102.05 405.972C100.709 404.865 99.8231 403.269 99.0458 401.801L99.0423 402.024C98.9964 404.441 98.6547 407.224 95.6093 407.153C93.1513 407.093 92.0752 405.261 91.5245 403.235C90.4539 407.472 85.6968 407.704 84.3025 403.531C83.6802 401.849 83.7064 399.929 83.5211 398.163C82.5272 388.472 80.453 378.788 81.0488 369.03C80.4219 368.816 79.8757 368.337 79.6094 367.539C67.7347 331.6 57.1669 293.14 64.8756 255.217C72.5835 218.062 93.4584 176.469 132.907 165.933C140.893 163.917 149.006 163.233 157.193 162.712C158.374 160.429 159.137 157.832 159.292 155.246C159.34 154.5 159.304 153.761 159.302 153.014C159.299 152.324 159.594 151.502 159.456 150.857C159.423 150.701 159.636 150.649 159.693 150.793C159.867 151.246 160.221 151.473 160.461 151.855C161.057 152.934 161.215 154.214 161.373 155.42C161.964 160.125 160.618 164.967 157.769 168.745L157.67 168.875C156.787 170.055 155.105 172.193 153.367 171.169C151.852 170.274 152.822 168.453 153.726 167.478L153.794 167.405C155.017 166.135 156.043 164.777 156.877 163.295C153.173 164.282 149.498 165.368 145.805 166.395L145.63 166.492C142.738 168.065 138.441 169.75 138.82 173.651C146.51 196.837 180.531 202.794 201.558 197.259L201.893 197.168C205.916 196.06 209.945 194.278 212.683 191.031L212.796 190.895C217.656 185.146 217.284 175.648 211.198 170.927C207.583 167.969 202.589 166.398 198.079 165.374C199.391 167.55 202.291 169.086 202.819 171.664C202.955 172.548 202.465 173.39 201.489 173.409C199.01 173.456 197.181 170.811 195.88 169.033C193.164 165.315 191.623 160.819 191.294 156.24C191.13 154.012 191.541 152.004 192.099 149.878ZM356.152 191.708C356.02 191.618 356.093 191.351 356.271 191.424C363.01 194.215 365.762 204.21 360.688 209.714C359.004 211.489 356.48 212.515 354.181 211.584C351.355 211.106 349.705 208.256 349.343 205.63C349.318 205.508 349.456 205.452 349.533 205.529L349.547 205.545C350.615 206.86 352.298 207.74 353.832 208.413C354.261 208.18 354.732 207.996 355.204 207.886C355.876 207.735 356.565 208.261 356.501 208.946C359.674 208.366 360.945 204.594 361.041 201.732L361.044 201.646C361.172 197.686 359.379 194.024 356.152 191.708Z" fill="black"/>
<path fill-rule="evenodd" clip-rule="evenodd" d="M221.255 114.714C220.743 110.23 221.405 100.86 221.449 100.291C221.73 96.6918 220.04 82.4799 216.846 83.7894C211.487 79.5562 204.351 78.6214 197.677 78.1749C183.816 77.2472 169.069 79.3768 158.366 88.6865C153.072 93.5213 147.919 100.553 148.333 107.875C143.524 114.815 136.744 124.335 142.736 132.449C144.773 135.041 148.01 136.006 150.569 137.969C155.716 142.112 158.945 148.058 164.14 152.176C177.905 164.52 201.278 167.099 214.802 153.058C225.26 142.89 223.569 127.677 221.73 114.714C220.493 105.998 222.252 123.459 221.255 114.714Z" fill="white"/>
<path fill-rule="evenodd" clip-rule="evenodd" d="M179.16 59.1637C182.867 58.4171 186.674 57.9526 190.46 58.0924L190.751 58.1037C193.6 58.2173 197.207 58.4687 199.692 60.1217C199.835 59.9785 200.065 59.9051 200.274 60.0044C203.227 61.411 206.474 62.428 209.584 63.4387C212.679 64.4443 215.889 65.1082 219.133 65.3757C220.354 65.4765 221.398 66.7916 220.625 67.9712C220.442 68.2523 220.263 68.5363 220.084 68.8209C220.382 68.7899 220.681 68.7579 220.979 68.7278C221.961 68.6292 222.941 69.6746 222.883 70.6284C222.847 71.2282 222.782 71.821 222.686 72.4066C223.06 72.3988 223.431 72.4547 223.79 72.6062C225.609 73.3725 225.482 75.5337 225.346 77.1781C225.157 79.4601 224.302 81.8771 222.714 83.585C223.9 84.8139 224.739 86.2814 225.24 88.0244C225.603 89.2972 225.805 90.6529 225.705 91.9777L225.674 92.3744C225.55 93.8122 225.305 95.4039 224.269 96.4383C223.737 96.9715 223.081 97.1659 222.456 97.1043C222.834 100.418 223.076 103.75 223.304 107.071L223.411 108.658C223.92 116.332 224.302 124.056 224.202 131.743C224.109 138.927 222.687 145.9 218.272 151.733C214.251 157.044 208.478 160.96 201.947 162.448C198.427 163.251 194.834 163.308 191.272 162.796C189.545 162.547 187.807 162.166 186.168 161.564C184.354 160.896 183.05 159.912 181.829 158.438C181.252 157.739 181.53 156.25 182.679 156.39C184.418 156.6 186.005 156.854 187.672 157.367L187.911 157.442C189.571 157.973 191.291 158.369 193.027 158.537C196.582 158.881 200.192 158.535 203.597 157.459C209.143 155.705 213.919 151.797 216.98 146.886C220.614 141.065 221.024 134.457 220.972 127.764C220.916 120.419 220.676 113.07 220.286 105.734L220.219 104.511C220.012 100.735 219.813 96.9573 219.637 93.1794C219.583 91.9943 219.5 90.7998 219.35 89.6171C217.98 88.816 216.752 87.7116 215.952 86.3488C214.344 87.0124 212.653 87.4911 211.097 87.8727C207.493 88.7572 203.752 88.972 200.084 88.4181C199.095 88.826 198.086 89.1846 197.061 89.4932C196.784 89.6157 196.507 89.7361 196.231 89.8541C193.76 90.9088 191.255 91.8024 188.647 92.4565L188.007 92.6159C186.635 92.9535 185.144 93.2859 183.684 93.3903C183.444 93.4828 183.185 93.561 182.902 93.6297C181.573 93.952 180.193 94.054 178.83 93.9402C177.502 93.8288 176.542 92.4897 177.274 91.2359C177.808 90.321 178.348 89.4086 178.891 88.4984C176.999 89.2853 175.044 89.9395 173.073 90.4941C171.083 91.0534 169.064 91.5251 167.043 91.9588C165.962 92.1887 164.877 92.3925 163.799 92.6224C163.027 92.7859 161.842 92.8713 161.212 93.3785C160.517 93.9354 160.32 95.2343 160.056 96.0354C159.709 97.0758 159.384 98.121 159.087 99.1781C158.496 101.287 158.011 103.428 157.636 105.589C157.261 107.753 157.009 109.938 156.869 112.131C156.729 114.321 156.79 116.525 156.565 118.705C156.444 119.862 155.199 120.457 154.28 119.649C154.173 119.554 154.064 119.458 153.956 119.361L153.796 119.215C153.01 118.504 152.247 117.75 151.618 116.902C151.504 116.745 151.395 116.582 151.293 116.416C151.276 116.416 151.262 116.411 151.245 116.399L151.071 116.268C149.15 114.841 145.941 112.981 144.068 115.352C143.472 116.107 143.166 117.068 142.912 117.996L142.467 119.656C142.18 120.74 141.909 121.829 141.75 122.938C141.392 125.422 141.572 128.285 143.285 130.276C143.969 131.073 144.911 131.641 145.963 131.791C146.55 131.871 147.13 131.772 147.711 131.698C148.303 131.625 148.873 131.743 149.464 131.686C150.405 131.594 150.815 132.717 150.464 133.424C150.274 133.803 150.05 134.13 149.797 134.407C150.001 134.583 150.196 134.772 150.383 134.971C150.939 135.149 151.437 135.531 151.811 136.036C152.112 136.443 152.269 136.886 152.295 137.353C152.328 137.469 152.357 137.588 152.383 137.709L152.892 138.534C153.004 138.715 153.116 138.894 153.228 139.069C154.525 141.108 155.964 142.833 157.752 144.459C159.474 146.023 161.343 147.424 162.961 149.102L163.151 149.301C164.659 150.887 166.249 152.807 165.659 155.112C165.507 155.705 164.677 156.132 164.136 155.731C162.395 154.442 161.519 152.399 160.042 150.834C158.522 149.223 156.838 147.775 155.313 146.168C153.872 144.651 152.734 142.933 151.877 141.041C151.535 141.418 151.036 141.686 150.345 141.79C149.158 141.968 148.051 141.273 147.533 140.247C147.201 140.394 146.861 140.527 146.519 140.631C144.719 141.181 143.586 139.183 144.265 137.706C144.629 136.915 145.082 136.228 145.645 135.649C143.885 135.407 142.095 134.5 140.938 133.367C138.036 130.52 137.637 126.242 138.29 122.438C138.637 120.421 139.235 118.381 140.012 116.487C140.147 116.158 140.292 115.826 140.451 115.499C140.363 115.496 140.273 115.458 140.216 115.385C139.691 114.669 139.053 114.084 138.663 113.283C138.304 112.548 137.906 111.804 137.623 111.038C137.041 109.471 136.756 107.703 136.566 106.047C136.174 102.655 136.326 99.2848 136.846 95.9145C137.732 90.1741 139.871 84.6807 143.023 79.8604C142.851 79.7704 142.687 79.6617 142.534 79.5333L142.458 79.4674L142.335 79.3565C141.436 78.5442 141.513 77.0219 142.335 76.1993L142.594 75.9397C142.923 75.6138 143.206 75.3557 143.737 75.0009C143.816 74.9486 143.896 74.8993 143.977 74.8533C143.699 74.3409 143.602 73.7417 143.796 73.0807C144.47 70.7779 147.791 70.8594 149.895 71.8636C152.223 69.79 154.805 67.99 157.603 66.5323C164.267 63.0625 171.802 60.6426 179.16 59.1637ZM144.712 119.815C145.956 119.409 147.609 120.26 148.728 120.772C150.146 121.422 151.352 122.381 152.521 123.396C153.103 123.903 153.207 124.733 153.062 125.441C153.048 125.512 153.034 125.586 153.017 125.659C152.862 126.415 152.017 127.01 151.269 126.989C149.704 126.946 148.958 125.598 148.072 124.455C147.968 124.64 147.837 124.811 147.676 124.939L147.566 125.024C147.199 125.303 146.793 125.527 146.308 125.505C145.963 125.489 145.633 125.401 145.329 125.242C144.569 124.842 144.235 123.86 144.441 123.062C144.569 122.559 144.864 122.166 145.249 121.893L145.105 121.795C144.798 121.582 144.518 121.357 144.3 121.026L144.251 120.947H144.27C144.033 120.54 144.187 119.985 144.712 119.815Z" fill="black"/>
<path fill-rule="evenodd" clip-rule="evenodd" d="M204.512 143.544C202.994 143.556 201.287 142.987 200.146 142.542L199.849 142.425C198.861 142.03 197.847 141.577 197.09 140.816C196.848 140.569 196.591 140.289 196.46 139.995C196.383 139.823 196.351 139.645 196.425 139.467C196.699 139.441 196.958 139.406 197.204 139.361C197.321 139.34 197.433 139.317 197.519 139.317C197.835 139.315 198.148 139.355 198.461 139.395C198.506 139.4 198.552 139.406 198.597 139.412C198.841 139.442 199.083 139.474 199.325 139.507C200.029 139.601 200.729 139.694 201.443 139.729C201.958 139.753 202.499 139.724 203.044 139.695C204.459 139.618 205.921 139.513 207.011 140.502C207.296 140.761 207.415 141.087 207.415 141.419C207.415 141.823 207.245 142.234 206.985 142.556C206.397 143.286 205.492 143.536 204.512 143.544ZM212.789 130.811C212.129 131.8 211.028 132.436 209.521 132.367C206.524 132.23 202.948 131.102 200.439 129.471C199.785 129.046 199.362 128.367 199.286 127.639L199.15 126.345L198.42 127.423C198.344 127.535 198.267 127.647 198.19 127.759C197.979 128.068 197.767 128.376 197.568 128.692C196.802 129.906 196.1 131.132 195.463 132.418C195.012 133.329 194.682 134.347 194.351 135.375C193.793 137.11 193.253 138.816 192.06 140.035C191.88 140.219 191.602 140.285 191.348 140.253C191.125 140.224 190.905 140.115 190.798 139.897C189.372 137.003 191.29 133.517 192.845 131.093L193.01 130.839C194.452 128.649 196.808 125.75 199.506 125.356L199.815 125.848L200.264 125.549C200.998 125.06 201.968 125.083 202.816 125.465L203.665 125.847C205.245 126.555 206.804 127.208 208.513 127.566C208.638 127.592 208.762 127.616 208.887 127.639C209.004 127.66 209.122 127.68 209.241 127.698C209.215 127.582 209.188 127.466 209.16 127.351C209.131 127.229 209.102 127.106 209.071 126.984C209.039 126.858 209.004 126.733 208.97 126.608C208.833 126.11 208.678 125.617 208.495 125.134C207.804 123.319 206.702 121.621 205.63 120.002L205.504 119.811C205.35 119.579 205.182 119.337 205.008 119.087C204.171 117.885 203.244 116.581 203.178 115.272C204.288 115.342 205.217 116.03 206.035 116.629C207.157 117.451 208.197 118.39 209.14 119.411C210.97 121.392 212.612 123.924 213.332 126.541C213.744 128.04 213.563 129.653 212.789 130.811V130.811ZM183.515 115.88L183.514 115.826C183.518 114.315 184.4 110.864 186.58 110.864C187.942 110.864 188.769 113.213 188.912 115.634L188.917 115.732C188.98 117.237 188.566 120.527 186.58 120.527C184.573 120.527 183.535 117.411 183.515 115.88V115.88ZM215.613 115.406L215.613 115.352C215.61 113.841 214.728 110.39 212.548 110.39C211.22 110.39 210.4 112.623 210.227 114.978L210.215 115.16C210.129 116.614 210.517 120.053 212.548 120.053C214.555 120.053 215.592 116.937 215.613 115.406V115.406ZM190.857 105.651C190.568 105.685 190.281 105.729 189.994 105.775C189.155 105.908 188.321 106.068 187.493 106.255C185.92 106.609 184.36 107.057 182.83 107.562C181.398 108.035 179.988 108.57 178.579 109.105C178.503 109.134 178.428 109.162 178.353 109.191C177.855 109.38 177.359 109.591 176.862 109.803C176.105 110.127 175.344 110.452 174.568 110.697C176.613 107.875 179.764 105.784 182.796 104.288C184.526 103.434 186.361 102.746 188.208 102.182L189.236 101.874C190.75 101.428 192.405 101.016 193.827 101.905C194.389 102.256 194.748 102.803 194.861 103.394C194.972 103.973 194.846 104.594 194.445 105.112C194.096 105.564 193.66 105.821 193.197 105.909C192.686 106.007 192.144 105.9 191.651 105.637C191.256 105.608 191.139 105.618 191.022 105.631L190.857 105.651ZM213.632 105.938C212.619 105.719 211.615 105.63 210.576 105.662C210.106 105.676 209.651 105.749 209.197 105.822C208.493 105.935 207.791 106.052 207.032 105.914C206.636 105.843 206.299 105.611 206.039 105.31C205.734 104.957 205.533 104.506 205.468 104.078C205.401 103.635 205.468 103.248 205.632 102.906C205.826 102.502 206.152 102.161 206.547 101.863C207.742 100.96 209.792 101.177 211.202 101.36C212.596 101.541 213.981 101.972 215.213 102.657C216.428 103.333 217.485 104.243 218.309 105.356C219.004 106.295 219.331 107.375 219.669 108.474C218.079 107.143 215.646 106.375 213.632 105.938Z" fill="black"/>
<path fill-rule="evenodd" clip-rule="evenodd" d="M182.116 145.333C184.038 140.838 188.235 137.534 193.067 136.326C196.615 135.441 200.338 135.469 203.955 135.82C205.85 136.003 207.883 136.153 209.669 136.855C211.194 137.455 212.437 138.589 213.371 139.92C214.484 141.498 215.24 143.304 215.771 145.154C215.847 145.417 215.918 145.682 215.984 145.949C215.753 147.345 215.262 148.534 213.966 149.412C212.702 150.269 211.193 150.619 209.689 150.744C209.541 150.673 209.399 150.601 209.268 150.526C206.924 149.187 205.274 146.022 202.316 146.451C199.676 146.833 197.938 150.148 196.367 152.093C191.327 152.679 186.291 151.167 182.191 148.291C181.982 147.307 181.97 146.314 182.116 145.333M219.409 141.923C219.006 140.794 218.498 139.7 217.896 138.67C215.907 135.263 212.852 132.548 209.225 130.997C200.647 127.331 189.547 129.915 182.619 135.927C180.253 137.982 177.86 141.002 177.136 144.251C176.92 144.294 176.716 144.406 176.548 144.564C171.543 141.419 166.388 138.393 162.355 134.034C159.426 130.866 157.389 127.118 156.141 122.999C156.039 122.66 155.491 122.709 155.508 123.084C155.512 123.172 155.517 123.26 155.522 123.347C155.47 123.186 155.223 123.269 155.204 123.426C154.533 128.43 153.693 133.735 154.467 138.765C154.929 141.766 156.295 143.963 158.121 146.336C160.078 148.879 162.293 151.245 164.558 153.513C165.996 154.953 167.497 156.614 169.257 157.67C171.304 158.897 173.625 159.829 175.81 160.776C178.032 161.741 180.288 162.633 182.586 163.407C187.18 164.959 191.928 166.031 196.759 166.501C200.628 166.876 205.049 167.284 208.756 165.832C211.597 164.719 213.891 162.707 215.71 160.287C217.69 157.651 219.256 154.648 220.121 151.482C221.021 148.193 219.599 142.453 219.409 141.923" fill="black"/>
</svg>
