<svg width="160" height="318" viewBox="0 0 160 318" fill="none" xmlns="http://www.w3.org/2000/svg">
<path fill-rule="evenodd" clip-rule="evenodd" d="M79.1351 166.702C79.0284 170.581 78.4019 174.446 77.9306 178.302C77.5536 182.114 76.8424 185.961 76.2713 189.702C76.2484 190.356 75.3494 190.674 74.9151 190.188C74.9264 181.683 77.1973 172.957 76.3929 164.274C77.0414 163.912 77.7015 163.511 78.3312 163.111C79.1806 164.232 79.2745 165.527 79.1351 166.702ZM45.5826 116.561C44.6113 120.093 42.5531 123.138 41.6516 126.675L40.6998 126.58C40.2314 118.778 41.5481 111.112 43.0858 103.572L44.0425 103.628C44.3801 107.974 46.5986 112.09 45.5826 116.561ZM150.383 87.8222C150.331 87.6769 150.279 87.5288 150.229 87.3787L149.672 87.4979C150.71 85.5286 149.742 84.8806 148.568 83.2526L148.44 83.5483L147.988 82.5592C147.898 82.3081 147.806 82.0948 147.558 82.0009C147.316 80.7703 146.596 79.6433 145.636 79.0311L145.452 79.2379C145.072 78.905 144.613 78.7783 144.177 78.6241C145.114 77.2077 145.716 75.37 146.348 73.8512C146.863 72.2561 147.667 70.7082 147.818 69.0907C147.697 67.5362 146.23 68.546 145.514 69.3213C143.328 71.2407 141.445 74.2806 140.035 77.9724C137.612 77.3413 136.222 78.0072 135.549 81.3216C134.93 83.5731 134.297 85.8826 134.213 88.2169C133.888 88.1052 133.311 87.6849 132.999 88.0145C127.615 93.9132 121.257 98.4576 115.109 103.431C110.462 100.009 108.045 93.2382 105.489 88.1555C101.031 79.4316 96.5733 66.66 85.1067 66.7049C83.5871 66.5463 82.103 66.3644 80.6685 65.9225C80.113 65.7714 79.4263 65.5894 79.2377 65.2516C78.8979 64.1635 78.8336 62.9861 78.2362 61.9883C76.597 59.3204 73.0455 59.1107 70.2625 59.6899C65.5374 60.5667 65.6563 60.0549 65.3152 65.0307C65.2129 66.2119 64.2985 66.3811 63.3223 66.6257C62.214 66.9756 61.0849 67.2615 59.9458 67.4918C60.0641 67.4586 60.1822 67.4256 60.3005 67.3922C41.8077 67.6855 29.5292 89.1634 27.0933 104.358C24.2641 119.904 27.9234 137.205 33.7086 150.261C33.4602 155.016 34.3918 159.793 34.9816 164.479C35.3519 165.652 36.6336 165.766 37.0001 164.408L37.4518 162.62L37.9354 164.399C38.242 165.5 38.7347 165.631 39.1781 165.639C39.7281 165.639 40.0295 165.368 40.0476 163.936L40.9586 163.717C41.3096 164.386 41.6581 164.978 42.2097 165.39C43.3187 173.463 44.0149 181.856 46.7069 189.667C47.7804 192.566 49.4289 195.198 50.6396 198.042C44.9313 210.942 43.9744 225.237 42.6038 239.05C42.714 239.058 43.2805 239.108 43.4015 239.118L43.0889 239.95C42.662 240.131 42.4111 240.512 42.2818 240.934C41.9938 240.91 40.7925 240.919 40.8594 241.194C40.9984 242.817 41.4528 243.975 42.314 244.82C42.3258 245.08 42.3417 245.345 42.3619 245.592C40.6535 251.56 39.4016 257.923 38.6409 264.484C37.6739 265.415 37.4319 268.479 38.8742 269.297C42.8558 272.042 48.2042 273.345 53.2399 272.85C58.6898 272.334 65.1895 270.16 62.5814 263.937C62.5477 263.744 62.283 263.734 62.0744 263.776C61.6124 263.328 61.1115 262.988 60.5698 262.798C59.4933 260.106 58.5251 257.283 57.6806 254.465C57.2692 253.171 56.8437 251.833 56.8787 250.414C57.0824 246.929 57.4407 245.488 59.8596 242.743C61.3571 243.464 64.2109 238.244 64.8649 237.148C66.2407 233.906 67.994 230.96 69.4631 227.779C69.6901 227.242 70.4831 227.231 70.7934 227.696C70.9331 227.892 70.968 228.135 70.8894 228.362C69.61 232.058 67.8679 235.587 66.1875 239.034C66.7601 241.037 66.9862 244.382 68.4182 245.872C69.1971 251.061 63.867 253.438 67.3016 259.192C66.1391 259.272 66.0307 259.737 66.051 261.151C66.0472 262.165 66.0208 263.23 66.2119 264.179C66.4437 265.344 67.5181 265.657 69.1307 266C70.4376 266.29 71.6959 266.62 72.9929 266.933C74.3045 267.369 75.6864 267.334 76.2257 266.005C82.7209 268.209 101.445 267.957 107.638 265.037C109.348 264.351 110.554 263.964 108.984 262.034C108.119 256.528 94.0036 260.465 92.0097 254.425C91.7252 253.64 91.3142 253.228 90.5144 253.085C90.6363 252.462 90.4735 251.77 89.7807 251.59C89.5723 251.528 89.3501 251.512 89.1354 251.315C88.6025 250.216 87.7284 249.549 86.7101 248.965C87.126 248.366 86.7899 248.087 86.6027 247.417C86.4128 246.134 86.8492 244.905 86.8269 243.659C87.0609 243.266 87.2416 242.715 87.6161 242.443C87.9631 242.198 87.7473 242.092 87.6121 241.821C87.7154 241.729 87.9489 241.521 88.0544 241.438C88.46 240.992 88.0349 240.341 87.5148 240.291C87.4508 240.075 87.3748 239.825 87.3261 239.612C88.7643 235.284 90.4614 229.664 91.0248 223.71C91.57 214.186 91.0586 206.157 93.9573 196.479C98.0092 181.154 105.881 166.772 105.987 150.555C105.852 147.867 106.596 145.005 105.921 142.366L106.759 141.93C106.88 142.069 107.098 142.065 107.142 141.876C107.691 140.983 107.075 139.911 106.949 138.933C107.236 138.625 107.093 138.344 106.745 138.176C103.022 125.018 96.7941 123.096 98.5085 106.649C101.306 112.582 107.502 118.588 114.333 117.705C121.213 118.735 137.264 101.956 140.364 96.5322C140.932 96.5763 140.939 96.1686 141.025 95.7844C143.857 96.1177 146.507 93.8932 146.56 91.1716C149.044 92.7134 151.699 90.5115 150.383 87.8222Z" fill="#FCFCFC"/>
<path fill-rule="evenodd" clip-rule="evenodd" d="M130.58 105.673L130.313 105.91C125.951 109.792 121.325 113.667 115.864 115.86C115.124 116.13 114.354 116.203 113.594 116.363C107.243 116.426 102.93 111.505 98.9081 107.261C99.245 99.9989 98.9664 92.5005 96.099 85.7142L96.0305 85.5395C95.329 83.7644 94.4714 82.0046 93.0998 80.648C93.066 80.6151 93.0196 80.6644 93.0486 80.6993C94.219 82.134 94.9005 83.8864 95.3899 85.6542L95.4146 85.7441C97.0835 91.7309 97.3737 98.0128 97.1542 104.196L97.1474 104.383C96.9975 108.562 96.6368 112.762 97.1396 116.931C97.5063 121.235 99.4095 125.126 101.482 128.843C103.289 132.275 104.639 135.945 105.458 139.737C105.195 140.857 104.241 141.677 103.25 142.3C101.458 143.407 99.3819 144.013 97.3543 144.52C89.0578 146.651 80.4165 147.64 71.8807 146.609C62.7741 145.426 53.8863 142.978 45.0671 140.486C44.1601 140.208 43.1535 139.956 42.2872 139.523C42.2291 139.459 42.1605 139.405 42.086 139.361C41.9363 137.244 41.7378 135.146 41.59 133.034C41.7897 128.944 42.9255 124.967 44.6658 121.273C47.8461 115.217 46.7956 111.534 44.8569 105.364C44.4115 103.794 44.0934 102.152 44.133 100.533C44.3361 99.5135 44.5323 98.4931 44.7132 97.4698C44.7886 97.2737 44.8708 97.0794 44.9626 96.8862C44.98 96.8495 44.9307 96.8206 44.9075 96.8543C44.8669 96.9123 44.8282 96.9712 44.7895 97.0311C44.924 96.2504 45.0487 95.4687 45.1579 94.685C45.1724 94.5816 45.039 94.5411 45.0003 94.6415C41.5156 104.018 39.4926 114.068 39.5758 124.087C39.6252 127.037 39.8283 129.986 40.0449 132.929L40.0247 133.213C39.9479 134.327 39.9076 135.462 40.2972 136.523C40.3802 138.343 40.689 140.142 40.5931 141.968C40.3682 143.635 39.8654 144.814 38.6137 145.967C37.3741 147.226 35.9554 148.268 34.3391 148.991C27.6194 129.344 23.6825 108.936 33.3998 89.5088C37.9098 80.0503 45.6735 71.5527 56.0929 68.8498C54.6079 70.4903 55.7655 72.9443 56.8331 74.5084L56.8983 74.603C62.0115 82.1774 73.271 83.9819 81.7152 82.3344C85.8059 81.6326 89.6415 78.985 89.9679 74.5575C90.2214 71.592 88.5329 68.6671 85.9804 67.2062L86.2913 67.2401C88.7755 67.5161 91.1881 67.9145 93.095 69.6915C100.123 76.1925 103.383 85.4509 107.535 93.8329L107.7 94.1379C109.478 97.4343 111.196 100.995 114.151 103.385L113.599 103.856C113.529 103.916 113.603 104.051 113.691 104.015C113.976 103.9 114.258 103.78 114.539 103.657C114.936 103.975 115.392 103.653 115.44 103.249C122.12 100.052 127.766 94.9812 133.008 89.8372C134.331 92.9009 136.562 96.2427 140.135 96.7432C136.762 99.5097 133.777 102.708 130.58 105.673ZM76.8817 164.415C77.3153 164.168 77.7434 163.912 78.1658 163.646C78.863 164.761 78.6857 165.742 78.6107 166.973C78.4512 169.029 78.4867 171.119 78.0701 173.142C77.3478 178.303 76.9204 183.696 75.8477 188.726C75.8239 189.007 75.7989 189.288 75.7771 189.569C75.7482 189.939 75.168 189.941 75.1969 189.569C75.9032 181.22 77.4024 172.822 76.8817 164.415ZM80.8141 264.993C86.2568 265.897 91.8126 265.256 97.2575 264.675L98.0568 264.572C100.634 264.237 103.226 263.885 105.758 263.323C105.971 263.147 106.3 263.069 106.428 262.808L106.584 262.818C106.716 262.744 106.851 262.674 106.987 262.608C107.385 262.536 107.709 262.45 108.12 262.337C108.677 262.526 108.735 263.017 108.357 263.363C108.395 263.54 108.183 263.642 108.045 263.72C108.022 263.764 107.988 263.807 107.936 263.843C107.688 264 107.437 264.187 107.153 264.265C106.458 264.987 104.967 265.261 104.145 265.408L104.064 265.422C97.2353 266.644 90.2496 266.973 83.3349 266.421C82.1427 266.325 80.9514 266.203 79.7646 266.055L79.4411 266.014C78.4161 265.881 77.2858 265.83 76.4978 265.08C76.1054 264.707 75.319 264.943 75.341 265.536L75.3423 265.559C75.4112 266.532 73.1337 265.727 72.6828 265.601L72.6697 265.597C71.4089 265.255 70.1557 264.877 68.891 264.552L68.5808 264.491C67.4822 264.273 67.3967 264.163 67.3845 262.802L67.3437 262.432C67.2885 261.938 67.2292 261.447 67.1495 260.957L67.1186 260.774C67.0829 260.568 66.7328 259.294 67.3159 259.463C67.3894 259.485 67.4609 259.426 67.4648 259.354C71.5616 261.963 75.995 264.146 80.8141 264.993ZM59.1754 268.277L59.5231 268.068C60.1055 267.716 60.6904 267.334 61.1035 266.798C61.7849 266.824 62.0653 266.182 62.0395 265.61C62.6115 267.471 61.9021 268.96 60.2254 269.902C54.3847 273.002 46.9121 272.546 41.0978 269.598C40.5399 269.31 39.9946 268.998 39.4657 268.66L39.3467 268.585C39.1484 268.457 38.9563 268.321 38.8507 268.103C38.5963 267.357 38.5998 266.622 38.5722 265.791C39.0128 266.385 39.7439 266.796 40.3514 267.205C41.5107 267.981 42.7668 268.597 44.0692 269.091C48.8921 270.882 54.6206 270.773 59.1754 268.277ZM41.5107 115.473C41.9765 111.43 42.7747 107.443 43.548 103.451C43.8624 107.741 46.0893 111.919 45.099 116.259C44.131 119.753 42.0567 122.852 41.1704 126.376C40.9981 122.736 41.1041 119.095 41.5107 115.473ZM47.2504 150.555C46.7263 150.651 46.1877 150.649 45.6578 150.611C43.5101 150.351 43.1705 151.651 43.1778 153.47C43.1125 154.646 43.0405 155.821 42.9791 156.998L42.9437 157.703C42.8992 158.643 42.7812 159.695 42.8992 160.677C42.5101 161.57 42.2997 162.5 42.2379 163.476C42.059 163.427 41.8675 163.451 41.7302 163.544C40.9422 162.14 40.7536 160.424 40.5912 158.843C40.5119 158.065 39.369 158.029 39.3516 158.843C39.3294 159.949 39.3129 161.056 39.2936 162.163L39.2636 163.87L39.2637 163.895C39.2685 164.139 39.3784 164.753 39.0795 164.729L39.0625 164.727C38.5063 164.685 38.4807 162.706 38.3604 162.212L37.8964 158.901C37.7921 158.16 36.7272 158.401 36.654 159.048L36.6519 159.069C36.5217 160.582 36.3896 162.096 36.2777 163.61C36.2424 163.872 36.2377 164.346 35.9519 164.46C35.6994 164.234 35.6516 163.852 35.5979 163.535C35.1226 159.165 34.23 154.851 33.6796 150.492C34.0364 150.441 34.3632 150.219 34.4677 149.877C37.3311 149.291 40.3361 147.679 41.7747 145.059C42.0619 145.312 42.2862 145.643 42.5647 145.903C43.0046 146.316 43.4881 146.688 43.9503 147.073C45.2458 148.171 46.5461 149.207 47.8151 150.337C47.6294 150.398 47.4602 150.517 47.2504 150.555ZM78.4046 61.1042C78.4191 61.0472 78.4984 61.0636 78.5022 61.1177C78.5815 62.2193 78.8455 63.3817 79.2477 64.462C79.3918 64.4852 79.5301 64.5663 79.6306 64.7239C79.766 64.9356 80.4136 65.0832 80.7514 65.1827L80.7996 65.1973C82.2022 65.6306 83.666 65.8055 85.1207 65.96C91.9626 66.3385 94.4527 68.4836 98.3124 73.9035C102.894 80.0094 105.465 87.2559 108.919 93.9951C109.769 95.6339 110.686 97.234 111.695 98.781L111.791 98.9279C112.692 100.299 113.688 101.689 115.064 102.614C118.394 99.8211 121.955 97.3274 125.249 94.491L125.557 94.2241C128.029 92.0867 130.389 89.8218 132.635 87.4486C132.9 87.1684 133.397 87.0949 133.765 87.2592C133.908 85.1231 134.511 83.0279 135.067 80.9639C135.651 78.3054 136.665 76.5086 139.724 77.1665C140.955 74.0649 142.604 71.0379 145.1 68.7733L145.26 68.629C145.792 68.1462 146.489 67.4539 147.236 67.5164C147.914 67.5724 148.262 68.1861 148.289 68.8102C148.32 69.5506 147.997 70.3044 147.766 70.9984L147.746 71.0577C147.449 71.9689 147.128 72.8725 146.788 73.7691C146.461 74.632 146.111 75.4862 145.745 76.3326C145.371 77.0407 145.097 78.2131 144.416 78.641C144.065 78.8499 143.703 78.569 143.666 78.2101C143.613 77.7395 143.884 77.326 144.083 76.9162C144.266 76.5394 144.446 76.1606 144.621 75.7799C145.325 74.2472 145.956 72.6827 146.498 71.0867C146.659 70.5495 147.319 69.1529 147.09 68.6702C146.861 68.672 146.389 69.1561 146.222 69.3001C143.6 71.4729 141.896 74.4753 139.946 77.2148C141.17 77.5646 142.498 77.7287 143.514 78.5502C145.604 80.3747 143.926 83.9875 141.124 83.3149C141.906 84.9773 142.579 87.6628 141.193 89.1647C140.776 89.5551 139.967 89.4304 139.84 88.8082C139.704 88.1473 139.867 87.581 140.016 86.9404C140.286 85.6363 140.449 84.3006 140.265 82.9728L140.207 82.9384C139.732 82.65 139.434 82.3263 139.448 81.7303C139.386 81.2992 139.846 80.7185 140.307 81.0712C140.457 81.1852 140.639 81.1939 140.797 81.3089C141.064 81.5632 141.397 81.7633 141.776 81.7601L141.812 81.7592C142.3 81.7553 142.659 81.4616 142.808 81.0056C143.216 79.7542 141.804 79.3338 140.885 79.0933L140.648 79.0201C138.14 78.2534 137.232 78.2409 136.602 81.1881C135.919 83.387 135.318 85.6507 134.164 87.6602L134.308 88.0033C135.468 90.767 136.924 93.9485 140.043 94.7961C140.153 93.8729 141.152 93.8396 141.874 93.8627C142.807 93.8124 143.743 93.339 144.402 92.6587C144.977 92.0791 145.267 91.2713 145.903 90.7542C145.615 90.0991 146.266 89.3763 146.946 89.7532C147.404 90.0063 147.681 90.3677 148.234 90.4411C148.724 90.5069 149.175 90.3358 149.548 90.0218C150.519 89.2004 150.057 87.9936 150.295 86.9181C149.982 87.4602 149.462 87.8757 148.905 88.1627C145.186 90.2903 145.223 86.1187 147.278 86.8041C149.511 86.296 149.473 85.489 148.639 83.5941L148.624 83.5496C148.488 83.1519 148.185 82.4487 148.467 82.0202C148.482 81.9988 148.51 81.9921 148.531 82.0115C148.786 82.2626 148.886 82.6839 149.102 82.9796L149.359 83.2865C150.139 84.2271 150.956 85.3445 150.449 86.6002C150.503 86.5886 150.562 86.6118 150.58 86.6775C150.82 87.5501 151.297 88.4071 151.198 89.3406C150.992 91.3862 148.775 92.5092 146.939 91.6567C146.586 94.2864 143.993 96.1791 141.395 96.0619C141.312 96.4224 141.046 96.7394 140.633 96.7722C136.809 102.899 121.776 118.663 114.404 118.004C113.699 118.324 112.802 118.163 112.055 118.067C106.33 117.32 101.545 113.132 98.8762 108.168C97.8951 124.428 103.439 124.23 107.149 137.7C107.521 137.933 107.737 138.442 107.449 138.872C107.608 139.687 107.934 140.522 107.809 141.358C107.747 141.597 107.622 141.814 107.509 142.032C107.276 142.478 106.662 142.424 106.375 142.078C106.862 143.842 106.654 145.693 106.529 147.492C106.453 148.548 106.459 149.589 106.458 150.647C106.312 166.739 98.4525 181.249 94.412 196.516C93.2691 200.795 92.3911 205.156 92.0459 209.577C91.6794 214.279 91.9347 219.008 91.4938 223.705C90.9828 229.145 89.53 234.433 87.8163 239.604C87.9189 240.023 88.1318 240.499 88.0003 240.86C85.5522 241.273 83.1896 242.023 80.8122 242.72C80.719 242.747 80.661 242.805 80.6317 242.874L80.0883 243.054C79.7357 243.172 79.8868 243.732 80.2424 243.613L80.8364 243.416C82.8682 242.743 84.9235 242.101 87.0365 241.8L87.1014 241.773C87.5238 241.604 88.0209 241.48 88.2436 241.946C88.3565 242.182 88.2671 242.419 88.1057 242.606C87.9694 242.764 87.7959 242.861 87.6767 243.04C87.5433 243.275 87.4304 243.522 87.298 243.761C87.2993 244.942 86.9107 246.112 87.0614 247.29C87.1748 247.779 87.5712 248.248 87.3196 248.771L87.4341 248.844C88.1008 249.273 88.738 249.743 89.1761 250.404C89.2718 250.549 89.3443 250.848 89.4536 250.95C89.5677 251.057 89.7804 251.069 89.9206 251.119C90.6306 251.335 91.0773 251.976 91.0161 252.721C92.6787 253.199 92.1061 254.888 93.8221 256.063C95.5839 257.339 97.9693 257.48 100.05 257.811L103.596 258.376L103.802 258.401C106.046 258.678 108.973 259.199 109.425 261.821L109.461 261.863C110.003 262.511 110.525 263.74 109.855 264.443C109.311 264.926 108.568 265.153 107.909 265.434C106.995 266.095 105.678 266.402 104.675 266.589C96.0056 268.194 87.0751 268.38 78.3475 267.134L78.2016 267.113C77.5917 267.022 76.9619 266.898 76.405 266.637C75.6262 267.948 74.1266 267.783 72.8641 267.411C71.873 267.165 70.8819 266.924 69.8908 266.682L69.7979 266.658C68.2671 266.265 66.0961 266.146 65.7253 264.278C65.5339 263.317 65.5465 262.247 65.5561 261.27L65.5539 260.95C65.5527 260.126 65.6174 259.011 66.5492 258.837C65.2548 256.439 65.5369 253.491 66.7424 251.114L66.8064 250.997C67.6935 249.37 68.2477 248.012 67.9531 246.09C67.3623 245.533 67.0868 244.734 66.8682 243.949C66.4091 242.295 66.0082 240.624 65.6688 238.941L66.1953 237.86C67.7394 234.686 69.2665 231.499 70.42 228.161C70.5261 227.854 70.028 227.638 69.8899 227.937C68.4311 231.103 66.6472 234.112 65.2891 237.325C64.3886 239.006 63.3075 240.586 62.0954 242.057L62.0418 242.132C61.5713 242.777 61.1772 242.991 60.4044 243.257C60.2806 243.309 60.1549 243.31 60.0369 243.276C59.2995 244.276 58.4044 245.068 58.017 246.261C57.5945 247.581 57.433 249.032 57.3498 250.412C57.3054 252.21 58.0543 253.907 58.5247 255.615C59.2439 257.915 60.045 260.189 60.9311 262.431C61.4043 262.622 61.8338 262.917 62.2299 263.28C62.5601 263.248 62.908 263.398 63.0315 263.8L63.0828 263.968C63.5191 265.416 63.8893 267.088 63.3226 268.538C61.7564 272.051 56.7231 272.927 53.2801 273.348C48.1815 273.832 42.8332 272.613 38.5887 269.708C37.9892 269.287 37.5802 268.809 37.4806 268.064L37.4701 267.971C37.3331 266.725 37.3013 265.247 38.1662 264.281C38.9055 257.961 40.1165 251.644 41.8608 245.523C41.8472 245.35 41.8366 245.177 41.8279 245.003C40.8543 243.989 40.4732 242.562 40.364 241.191C40.3513 240.615 40.934 240.495 41.3858 240.425L41.5523 240.423C43.0246 240.413 44.5441 240.485 45.8579 241.035L45.7932 241.037C45.7267 241.04 45.6573 241.048 45.6069 241.083C46.2652 241.294 46.9831 241.388 47.6124 241.665C48.0785 241.688 48.4849 241.909 48.9569 241.949L49.032 241.954C49.116 241.961 49.1798 241.937 49.2257 241.895C50.4938 242.121 51.7546 242.425 53.0207 242.611C53.3859 242.665 53.5435 242.107 53.1749 242.052C51.4811 241.803 49.7951 241.346 48.0896 241.135C47.7125 240.988 47.348 240.801 46.97 240.65C46.9479 240.6 46.9065 240.555 46.8393 240.523C46.4246 240.328 45.9939 240.168 45.5533 240.035C44.4239 239.684 43.2375 239.537 42.0613 239.467L42.1446 238.626C43.4979 224.877 44.4854 210.76 50.0999 197.956C48.907 195.199 47.2846 192.574 46.2409 189.738C45.8077 188.605 45.5447 187.449 45.2015 186.292C44.9783 185.738 44.7939 185.177 44.7045 184.583C43.3299 178.292 42.5528 171.893 41.7417 165.512C41.1958 165.06 40.8351 164.41 40.5187 163.811L40.5173 163.902C40.4985 164.887 40.3595 166.022 39.1195 165.993C38.1188 165.969 37.6807 165.222 37.4564 164.396C37.0205 166.123 35.0837 166.218 34.516 164.516C34.2627 163.831 34.2733 163.048 34.1979 162.328C33.7932 158.377 32.9487 154.429 33.1913 150.45C32.9361 150.363 32.7137 150.168 32.6053 149.843C27.7706 135.191 23.468 119.511 26.6065 104.05C29.7448 88.9022 38.2438 71.945 54.305 67.6497C57.5566 66.8277 60.8597 66.5487 64.1928 66.3365C64.6737 65.4056 64.9846 64.3467 65.0475 63.2928C65.0669 62.9884 65.0524 62.687 65.0514 62.3826C65.0504 62.1014 65.1703 61.7661 65.1142 61.5033C65.1007 61.4395 65.1877 61.4182 65.2109 61.4772C65.2815 61.6617 65.4256 61.7545 65.5233 61.91C65.7661 62.3498 65.8304 62.8719 65.8946 63.3633C66.1355 65.2817 65.5874 67.2556 64.4274 68.7959L64.3871 68.8488C64.0274 69.3301 63.3428 70.2016 62.6351 69.7842C62.0183 69.4196 62.4133 68.677 62.7812 68.2793L62.8091 68.2498C63.3071 67.7318 63.7248 67.1782 64.0642 66.5742C62.5562 66.9763 61.0599 67.419 59.5564 67.8381L59.485 67.8773C58.3076 68.5189 56.558 69.2056 56.7126 70.7961C59.8435 80.2487 73.695 82.6777 82.2558 80.4209L82.3923 80.3839C84.0303 79.932 85.6705 79.2057 86.7851 77.882L86.8312 77.8265C88.81 75.4826 88.6584 71.6102 86.1806 69.6856C84.7089 68.4797 82.6755 67.8391 80.8393 67.4218C81.3733 68.3088 82.5544 68.9352 82.7693 69.9861C82.8244 70.3466 82.6252 70.6896 82.2278 70.6973C81.2183 70.7166 80.4738 69.6383 79.9439 68.9136C78.8381 67.3975 78.2108 65.5647 78.0768 63.6976C78.0101 62.7894 78.1774 61.9709 78.4046 61.1042ZM145.198 78.1579C145.144 78.1213 145.174 78.0124 145.246 78.042C147.99 79.1798 149.11 83.2547 147.044 85.4987C146.359 86.2224 145.331 86.6408 144.395 86.2611C143.245 86.0664 142.573 84.9043 142.425 83.8338C142.415 83.7838 142.471 83.7611 142.503 83.7925L142.509 83.7991C142.943 84.3352 143.628 84.6939 144.253 84.9683C144.428 84.8735 144.619 84.7982 144.812 84.7537C145.085 84.6918 145.366 84.9063 145.34 85.1857C146.631 84.9492 147.149 83.4114 147.188 82.2447L147.189 82.2095C147.242 80.5949 146.512 79.1019 145.198 78.1579Z" fill="#171717"/>
<path fill-rule="evenodd" clip-rule="evenodd" d="M90.2751 46.7678C90.0669 44.9401 90.3363 41.1199 90.3543 40.8878C90.4684 39.4205 89.7805 33.6264 88.48 34.1603C86.2984 32.4344 83.3927 32.0533 80.6757 31.8713C75.032 31.4931 69.0281 32.3613 64.6702 36.1568C62.515 38.1279 60.4169 40.9947 60.5855 43.9797C58.6274 46.8092 55.867 50.6904 58.3067 53.9982C59.136 55.055 60.454 55.4486 61.4958 56.249C63.5913 57.938 64.906 60.362 67.0213 62.041C72.6256 67.0736 82.1418 68.1249 87.648 62.4007C91.9059 58.255 91.2174 52.0529 90.4684 46.7678C89.9649 43.2146 90.6811 50.3335 90.2751 46.7678Z" fill="#FCFCFC"/>
<path fill-rule="evenodd" clip-rule="evenodd" d="M73.1365 24.1206C74.6459 23.8162 76.1957 23.6268 77.7371 23.6838L77.8559 23.6884C79.0157 23.7347 80.4844 23.8372 81.4961 24.5111C81.5543 24.4528 81.6479 24.4228 81.7328 24.4633C82.9351 25.0368 84.2574 25.4514 85.5233 25.8634C86.7834 26.2734 88.0907 26.5441 89.4114 26.6532C89.9083 26.6942 90.3336 27.2304 90.0189 27.7113C89.9441 27.8259 89.8712 27.9417 89.7986 28.0577C89.92 28.0451 90.0415 28.032 90.1629 28.0198C90.5625 27.9796 90.9618 28.4058 90.9381 28.7946C90.9233 29.0392 90.8969 29.2808 90.8578 29.5196C91.01 29.5164 91.1614 29.5392 91.3076 29.601C92.0478 29.9134 91.9963 30.7945 91.9409 31.4649C91.8641 32.3952 91.5159 33.3806 90.8694 34.0769C91.3521 34.5779 91.6938 35.1763 91.8977 35.8868C92.0455 36.4057 92.1278 36.9584 92.0872 37.4986L92.0742 37.6603C92.024 38.2465 91.9242 38.8954 91.5022 39.3171C91.2856 39.5345 91.0187 39.6138 90.7643 39.5886C90.9182 40.9395 91.0168 42.2981 91.1096 43.6518L91.1532 44.2988C91.3602 47.4276 91.5158 50.5768 91.4751 53.7107C91.4373 56.6395 90.8582 59.4822 89.0607 61.8602C87.4236 64.0256 85.0731 65.6219 82.4141 66.2287C80.9811 66.5563 79.5182 66.5795 78.0678 66.3708C77.3647 66.2693 76.6571 66.1138 75.9898 65.8683C75.2511 65.5958 74.7203 65.1948 74.2233 64.5938C73.9883 64.3088 74.1014 63.7019 74.5695 63.759C75.2774 63.8447 75.9236 63.9481 76.6023 64.1574L76.6995 64.188C77.3755 64.4044 78.0755 64.5658 78.7822 64.6344C80.2298 64.7745 81.6994 64.6334 83.0861 64.1947C85.3439 63.4797 87.2884 61.8863 88.5347 59.8842C90.0141 57.511 90.1814 54.8171 90.16 52.0883C90.1371 49.094 90.0397 46.0979 89.8806 43.1067L89.8535 42.6082C89.7694 41.069 89.6882 39.5287 89.6167 37.9885C89.5945 37.5054 89.5606 37.0184 89.4996 36.5362C88.9418 36.2096 88.4419 35.7593 88.116 35.2037C87.4614 35.4743 86.773 35.6694 86.1396 35.825C84.6723 36.1856 83.1491 36.2732 81.6556 36.0473C81.2528 36.2136 80.842 36.3598 80.4249 36.4856C80.3121 36.5356 80.1994 36.5847 80.0867 36.6328C79.081 37.0628 78.0609 37.4271 76.9993 37.6938L76.7385 37.7588C76.1799 37.8964 75.573 38.0319 74.9785 38.0745C74.8808 38.1122 74.7754 38.1441 74.6603 38.1721C74.1189 38.3035 73.557 38.345 73.0021 38.2987C72.4615 38.2532 72.0708 37.7073 72.3687 37.1961C72.5862 36.8232 72.8058 36.4512 73.0272 36.0801C72.2566 36.4009 71.4608 36.6676 70.6583 36.8937C69.848 37.1217 69.0261 37.314 68.2032 37.4909C67.7632 37.5846 67.3214 37.6677 66.8824 37.7614C66.5682 37.8281 66.0857 37.8629 65.8294 38.0697C65.5462 38.2967 65.4659 38.8262 65.3585 39.1528C65.2173 39.577 65.0848 40.0032 64.964 40.4341C64.7233 41.2941 64.5261 42.1666 64.3733 43.0479C64.2205 43.9301 64.1179 44.821 64.0609 45.7148C64.0039 46.6076 64.029 47.5063 63.9372 48.3952C63.8878 48.8668 63.3812 49.1093 63.007 48.7798C62.9631 48.7412 62.9189 48.7021 62.8751 48.6626L62.8098 48.603C62.4896 48.3131 62.1792 48.0058 61.9231 47.6599C61.8767 47.5961 61.8322 47.5295 61.7906 47.4618C61.7839 47.4618 61.7781 47.4599 61.7713 47.4551L61.7003 47.4016C60.9183 46.82 59.6118 46.0616 58.8493 47.028C58.6063 47.3358 58.4819 47.7278 58.3786 48.106L58.1974 48.7828C58.0803 49.2246 57.97 49.6689 57.9054 50.121C57.7594 51.1336 57.8329 52.3009 58.5302 53.1126C58.8086 53.4372 59.1925 53.6691 59.6208 53.73C59.8597 53.7629 60.0956 53.7223 60.3325 53.6923C60.5733 53.6624 60.8052 53.7107 61.0461 53.6875C61.429 53.6498 61.5963 54.1078 61.4532 54.3958C61.3758 54.5504 61.2848 54.6837 61.1815 54.7968C61.2645 54.8683 61.3439 54.9456 61.4203 55.0268C61.6466 55.0992 61.8495 55.2548 62.0014 55.4606C62.1242 55.6268 62.1879 55.8075 62.1987 55.9979C62.2121 56.0452 62.2237 56.0935 62.2344 56.1428L62.4419 56.4792C62.4875 56.553 62.533 56.6259 62.5786 56.6974C63.1065 57.5284 63.6926 58.2319 64.4207 58.8947C65.1217 59.5325 65.8825 60.1035 66.5411 60.7877L66.6187 60.8689C67.2327 61.5154 67.8798 62.2981 67.6395 63.2381C67.5777 63.4797 67.2401 63.6536 67.0197 63.4903C66.311 62.9647 65.9541 62.1318 65.3528 61.494C64.7338 60.8369 64.0483 60.2466 63.4276 59.5914C62.8406 58.973 62.3775 58.2725 62.0285 57.5014C61.8892 57.655 61.6862 57.7642 61.4048 57.8067C60.9214 57.8792 60.4707 57.5961 60.26 57.1777C60.1245 57.2376 59.9864 57.2917 59.847 57.3342C59.1141 57.5584 58.653 56.7438 58.9295 56.1418C59.0774 55.8191 59.262 55.5389 59.4913 55.3031C58.7747 55.2045 58.0456 54.8345 57.5748 54.3726C56.3933 53.2121 56.2308 51.468 56.4967 49.9171C56.6379 49.0948 56.8815 48.2629 57.1978 47.4908C57.2528 47.3565 57.3119 47.2212 57.3765 47.0879C57.3408 47.0869 57.304 47.0714 57.2808 47.0415C57.0671 46.7497 56.8071 46.511 56.6484 46.1844C56.5024 45.8849 56.3401 45.5815 56.2249 45.2693C55.9881 44.6306 55.8721 43.9098 55.7948 43.2344C55.6352 41.8516 55.697 40.4776 55.9088 39.1036C56.2694 36.7633 57.1404 34.5236 58.4236 32.5584C58.3538 32.5217 58.2868 32.4775 58.2244 32.4251L58.1936 32.3982L58.1435 32.353C57.7773 32.0219 57.8089 31.4012 58.1435 31.0658L58.2492 30.96C58.383 30.8272 58.4983 30.7219 58.7145 30.5773C58.7464 30.5559 58.779 30.5358 58.8119 30.5171C58.6988 30.3082 58.6595 30.0639 58.7384 29.7944C59.013 28.8556 60.3647 28.8888 61.2215 29.2982C62.1694 28.4528 63.2204 27.719 64.3596 27.1247C67.0729 25.7101 70.1409 24.7235 73.1365 24.1206ZM59.1113 48.8475C59.618 48.6822 60.291 49.0291 60.7464 49.2378C61.3236 49.5026 61.8148 49.8939 62.2906 50.3075C62.5275 50.5143 62.5699 50.8525 62.511 51.1414C62.5051 51.1704 62.4994 51.2003 62.4925 51.2303C62.4297 51.5385 62.0855 51.7811 61.7809 51.7724C61.1437 51.755 60.8402 51.2052 60.4794 50.7394C60.437 50.8148 60.3838 50.8844 60.3179 50.9366L60.2735 50.9713C60.1238 51.0852 59.9588 51.1763 59.761 51.1675C59.6208 51.1607 59.4865 51.125 59.3626 51.0602C59.0532 50.8969 58.917 50.4969 59.001 50.1713C59.0532 49.9664 59.1731 49.806 59.3297 49.6949L59.2714 49.655C59.1464 49.5681 59.0325 49.4765 58.9437 49.3413L58.9236 49.3094H58.9314C58.8347 49.1432 58.8976 48.917 59.1113 48.8475Z" fill="#171717"/>
<path fill-rule="evenodd" clip-rule="evenodd" d="M83.4583 58.5217C82.8403 58.5267 82.1455 58.2949 81.6809 58.1135L81.5598 58.0655C81.1577 57.9046 80.7446 57.7198 80.4366 57.4098C80.3381 57.309 80.2333 57.195 80.18 57.0751C80.1488 57.0048 80.1358 56.9321 80.166 56.8599C80.2774 56.8489 80.3829 56.8347 80.4829 56.8164C80.5305 56.8077 80.5761 56.7987 80.6111 56.7985C80.7399 56.7977 80.8674 56.814 80.9948 56.8301C81.0132 56.8325 81.0317 56.8348 81.0501 56.8371C81.1493 56.8493 81.248 56.8626 81.3465 56.8758C81.6331 56.9143 81.9181 56.9524 82.2088 56.9663C82.4187 56.9764 82.6387 56.9646 82.8608 56.9525C83.4366 56.9212 84.032 56.8785 84.4757 57.2815C84.5919 57.3871 84.6404 57.52 84.6404 57.6555C84.6404 57.8201 84.5711 57.9876 84.4654 58.1191C84.2258 58.4167 83.8572 58.5184 83.4583 58.5217ZM86.8283 53.3309C86.5594 53.734 86.1115 53.9932 85.4977 53.965C84.2777 53.9093 82.8218 53.4493 81.8001 52.7842C81.534 52.6111 81.3615 52.3342 81.3305 52.0376L81.2755 51.51L80.978 51.9494C80.947 51.9952 80.9157 52.0408 80.8845 52.0865C80.7983 52.2123 80.7123 52.3381 80.6311 52.467C80.3194 52.9619 80.0336 53.4617 79.7742 53.986C79.5905 54.3572 79.4562 54.7724 79.3215 55.1913C79.0941 55.8986 78.8745 56.5942 78.3886 57.0913C78.3152 57.1664 78.2023 57.1933 78.0989 57.1801C78.0078 57.1683 77.9185 57.1237 77.8748 57.0348C77.2943 55.8552 78.0751 54.4337 78.7084 53.4455L78.7754 53.3423C79.3626 52.4493 80.3217 51.2674 81.4202 51.1068L81.5459 51.3072L81.7287 51.1853C82.0278 50.986 82.4225 50.9953 82.768 51.1512L83.1136 51.3071C83.7569 51.5956 84.3915 51.8618 85.0875 52.0076C85.1383 52.0182 85.1889 52.0281 85.2395 52.0373C85.2873 52.046 85.3353 52.0542 85.3836 52.0617C85.3732 52.0143 85.3621 51.9671 85.351 51.92C85.3392 51.8702 85.3273 51.8203 85.3146 51.7705C85.3014 51.7192 85.2874 51.6681 85.2734 51.6172C85.2176 51.4143 85.1546 51.2132 85.0799 51.0164C84.7989 50.2763 84.3502 49.5841 83.9136 48.9239L83.8622 48.8463C83.7996 48.7517 83.7311 48.653 83.6602 48.5509C83.3197 48.0609 82.9421 47.5292 82.9154 46.9955C83.3673 47.024 83.7455 47.3045 84.0784 47.5488C84.5352 47.8838 84.9585 48.2669 85.3426 48.6831C86.0875 49.4906 86.7561 50.5229 87.0493 51.59C87.2172 52.201 87.1433 52.8585 86.8283 53.3309V53.3309ZM74.9095 47.2433L74.9094 47.2216C74.9107 46.6054 75.2699 45.1985 76.1575 45.1985C76.712 45.1985 77.0487 46.156 77.107 47.143L77.109 47.1832C77.1348 47.7969 76.9662 49.1382 76.1575 49.1382C75.3402 49.1382 74.9179 47.8678 74.9095 47.2433V47.2433ZM87.978 47.0501L87.9781 47.0283C87.9767 46.4121 87.6176 45.0053 86.73 45.0053C86.1893 45.0053 85.8558 45.9155 85.7854 46.8758L85.7805 46.9497C85.7455 47.5427 85.9031 48.9449 86.73 48.9449C87.5473 48.9449 87.9696 47.6745 87.978 47.0501V47.0501ZM77.899 43.0733C77.7813 43.0871 77.6643 43.1051 77.5473 43.1237C77.206 43.178 76.8665 43.2433 76.5293 43.3193C75.889 43.4638 75.2537 43.6462 74.6307 43.8523C74.0476 44.0453 73.4736 44.2633 72.8998 44.4814C72.8692 44.493 72.8386 44.5046 72.8079 44.5163C72.6053 44.5933 72.4034 44.6795 72.2008 44.7661C71.8926 44.8978 71.5829 45.0304 71.2668 45.1303C72.0994 43.9799 73.3824 43.1275 74.6169 42.5175C75.3212 42.1694 76.0685 41.8888 76.8201 41.6588L77.2387 41.5331C77.8551 41.3514 78.529 41.1835 79.1081 41.5459C79.3371 41.6892 79.4832 41.912 79.5292 42.1528C79.5743 42.389 79.5229 42.6422 79.3597 42.8536C79.2175 43.0377 79.0403 43.1426 78.8517 43.1785C78.6435 43.2182 78.4229 43.1746 78.2221 43.0674C78.0613 43.0554 78.0138 43.0598 77.9662 43.0651L77.899 43.0733ZM87.1715 43.1904C86.759 43.1007 86.3505 43.0647 85.9272 43.0776C85.7358 43.0834 85.5507 43.1129 85.366 43.1427C85.0792 43.1889 84.7935 43.2365 84.4845 43.1805C84.3232 43.1513 84.1859 43.057 84.0799 42.934C83.9559 42.7902 83.8739 42.6064 83.8476 42.4317C83.8204 42.2512 83.8474 42.0933 83.9143 41.9539C83.9932 41.7892 84.1262 41.6504 84.287 41.5288C84.7735 41.1608 85.6081 41.2493 86.1822 41.3237C86.7495 41.3974 87.3137 41.5732 87.8153 41.8524C88.31 42.128 88.7402 42.4993 89.0758 42.9531C89.3587 43.3356 89.492 43.7758 89.6296 44.2241C88.9822 43.6814 87.9916 43.3683 87.1715 43.1904Z" fill="#171717"/>
<path fill-rule="evenodd" clip-rule="evenodd" d="M74.3399 59.2511C75.1227 57.4184 76.8313 56.0714 78.7985 55.5789C80.2431 55.2182 81.7592 55.2297 83.2318 55.3729C84.0033 55.4474 84.8309 55.5084 85.558 55.7947C86.1789 56.0394 86.6849 56.5017 87.0654 57.0445C87.5183 57.6876 87.8263 58.4238 88.0426 59.1783C88.0733 59.2855 88.1022 59.3936 88.1291 59.5022C88.0351 60.0715 87.8354 60.556 87.3077 60.9139C86.7929 61.2634 86.1785 61.4064 85.5661 61.4571C85.506 61.4283 85.448 61.3987 85.3948 61.3683C84.4405 60.8224 83.7688 59.5322 82.5642 59.7068C81.4893 59.8627 80.7817 61.2143 80.1424 62.007C78.0904 62.2459 76.04 61.6297 74.3704 60.4571C74.2856 60.0558 74.2807 59.6511 74.3399 59.2511M89.5238 57.8608C89.3596 57.4005 89.1529 56.9546 88.9078 56.5346C88.0976 55.1457 86.8539 54.039 85.3774 53.4064C81.8847 51.9119 77.3655 52.9654 74.5449 55.4164C73.5814 56.2543 72.6071 57.4856 72.3125 58.81C72.2245 58.8274 72.1415 58.8732 72.0731 58.9376C70.0352 57.6554 67.9366 56.4218 66.2944 54.6445C65.1019 53.3532 64.2724 51.8249 63.7645 50.1456C63.7229 50.0073 63.4999 50.0276 63.5066 50.1805C63.5086 50.2163 63.5105 50.252 63.5124 50.2878C63.4912 50.222 63.3908 50.2558 63.383 50.3197C63.1098 52.3597 62.7679 54.5226 63.0827 56.5733C63.271 57.797 63.8272 58.6928 64.5708 59.6601C65.3674 60.6969 66.2693 61.6613 67.1915 62.5862C67.7767 63.1732 68.388 63.8503 69.1045 64.2808C69.9378 64.7809 70.8832 65.1611 71.7725 65.547C72.6773 65.9407 73.5956 66.3044 74.5314 66.6197C76.4018 67.2524 78.335 67.6896 80.302 67.8811C81.877 68.0339 83.6769 68.2004 85.1862 67.6083C86.3431 67.1547 87.2768 66.3345 88.0175 65.3477C88.8238 64.2731 89.4612 63.0489 89.8136 61.7581C90.1797 60.4172 89.6009 58.077 89.5238 57.8608" fill="#171717"/>
</svg>
