<svg width="322" height="371" viewBox="0 0 322 371" fill="none" xmlns="http://www.w3.org/2000/svg">
<path fill-rule="evenodd" clip-rule="evenodd" d="M58.2864 167.436C56.1793 168.619 54.4305 169.428 52.7827 169.98L50.3595 170.792L52.6386 171.949C54.1865 172.735 55.6585 173.737 57.1386 175.013L58.2809 175.999L58.8321 174.594C59.5561 172.749 59.9085 170.65 59.8792 168.356L59.8561 166.555L58.2864 167.436ZM159.504 173.396C157.532 176.96 155.151 180.47 152.849 183.864C147.768 191.354 142.514 199.1 140.896 208.363C140.707 209.514 140.626 213.569 140.626 213.569L142.132 212.955C147.162 210.903 152.498 209.376 157.658 207.9C159.653 207.33 161.715 206.74 163.736 206.127C164.559 205.906 165.378 205.648 166.17 205.399C168.091 204.793 169.907 204.222 171.815 204.124L172.396 204.095L172.687 203.59C175.316 199.028 173.344 194.68 171.086 190.616C169.73 187.654 167.986 184.871 166.298 182.179C164.549 179.389 162.741 176.504 161.419 173.485L160.551 171.502L159.504 173.396ZM62.4557 211.186C65.4451 214.325 68.2217 217.513 70.7088 220.664L72.5973 219.794C71.6844 215.141 68.8502 211.862 63.6775 209.476L62.4557 211.186ZM162.459 281.293C162.16 281.293 161.879 281.41 161.669 281.621C161.456 281.835 161.339 282.123 161.339 282.433L162.459 282.429V281.293ZM38.0672 358.883C36.3109 355.863 36.0528 351.122 38.6849 348.552C37.7997 343.001 39.5389 336.797 43.3906 332.377L43.3995 332.391C49.1185 323.806 49.5387 320.748 45.3603 311.152C37.8927 310.866 30.2007 310.781 22.9094 309.032L23.1821 307.399C22.9123 307.327 21.5337 306.964 21.2376 306.888C21.2772 307.192 21.4827 308.579 21.4777 308.856C21.1371 309.23 20.3139 309.577 20.1607 308.842C15.5739 289.191 11.4689 269.931 7.00847 250.31C2.34021 230.507 -7.04798 198.833 15.9325 187.919L15.4581 185.89C14.1891 185.89 13.6792 184.504 13.0974 182.546C10.5045 175.541 15.5463 168.672 20.2611 164.339C26.7056 157.872 32.6509 150.693 38.4023 143.752C54.8082 123.76 77.1308 97.0822 105.665 101.615L105.569 102.792C110.033 103.355 114.693 104.538 119.213 103.714C134.644 101.034 151.432 107.096 160.922 119.541L161.271 117.221C161.303 117.002 161.382 116.8 161.727 116.8C162.179 116.784 162.418 117.155 162.585 117.497C178.966 123.986 185.751 145.11 190.986 159.589C191.654 162.036 191.465 162.76 191.407 162.904L190.457 163.471C200.328 176.636 205.753 192.471 210.407 207.485C211.945 211.487 212.106 214.26 209.537 216.681C226.475 226.884 239.767 242.784 232.252 260.911C222.444 278.549 196.473 289.74 176.966 299.871C169.22 304.078 157.953 306.318 150.825 313.207C150.349 313.913 149.665 314.6 149.251 314.544C145.943 315.034 141.019 294.321 141.767 292.662C138.275 293.914 134.39 293.847 130.738 294.5C131.065 295.221 132.136 296.197 131.335 296.999C131.389 299.432 131.016 302.061 130.482 304.541C134.865 303.837 134.766 306.142 130.548 304.922C130.434 305.996 130.141 308.735 130.029 309.774C131.288 309.219 133.794 308.829 134.671 309.697C134.313 310.853 131.208 309.764 130.012 310.107C129.312 315.308 129.084 320.42 128.593 325.606C132.326 329.17 138.155 330.012 141.486 333.867C144.308 336.8 143.901 341.723 140.59 344.083C142.618 346.467 140.995 350.424 138.034 351.071C134.001 352.015 129.785 350.71 125.807 349.613C119.196 347.431 112.273 344.029 104.642 339.213C101.624 337.328 99.3751 334.367 98.3068 330.872C90.5653 306.955 88.4965 290.704 92.1506 282.547C94.2359 280.968 96.5603 281.942 98.4856 281.08C99.4033 280.669 100.23 280.116 100.897 278.156C90.8538 277.167 76.2128 279.004 68.1619 274.18L68.4451 273.576C67.7017 273.1 66.0682 271.11 65.4467 270.471C66.5669 283.977 67.4673 297.834 67.9129 311.293C69.3897 313.783 70.6437 316.36 72.0204 319.235C72.9779 320.178 74.6531 321.793 73.6701 322.862C73.6699 322.862 81.9365 342.266 84.4628 352.074C86.868 352.176 87.8431 356.26 87.7515 358.972C87.3858 363.909 81.0655 364.433 75.5248 364.916C71.7336 365.315 67.8355 365.522 63.9953 365.522C57.0569 365.527 39.7085 365.048 38.0672 358.883Z" fill="white"/>
<path fill-rule="evenodd" clip-rule="evenodd" d="M71.8406 108.782C83.6174 100.942 98.9071 96.8144 112.565 101.948C112.727 102.005 112.663 102.242 112.494 102.205C110.335 101.73 108.143 101.464 105.938 101.373C110.407 101.92 114.743 103.095 119.268 102.303C134.383 99.8023 150.41 104.94 160.452 116.706C160.712 114.977 162.856 115.041 163.555 116.264C176.91 120.976 184.474 138.681 189.519 150.968C190.111 153.158 194.227 162.252 192.251 163.433C201.659 176.344 206.952 191.633 211.649 206.757L211.784 207.124C212.85 210.084 213.663 213.434 211.405 216.068C220.773 221.806 229.435 229.513 233.529 239.956C240.05 255.36 231.741 268.412 218.784 276.758C205.944 286.071 192.033 293.826 177.653 300.485C172.818 302.721 167.922 304.82 162.998 306.854L162.507 307.054C158.639 308.648 154.736 310.521 151.842 313.586C146.215 321.812 141.018 297.172 140.961 293.738C138.322 294.532 135.416 294.55 132.693 294.965C133.039 295.559 133.065 296.331 132.644 296.964C132.651 298.975 132.438 301.001 132.046 302.992C136.226 302.621 136.081 306.845 131.723 305.871L131.506 307.913V307.913C133.495 307.295 137.698 308.282 135.236 310.658C133.947 311.296 132.573 310.708 131.199 310.775C130.607 315.443 130.381 320.114 129.948 324.802C133.682 328.054 139.225 328.915 142.54 332.817C145.436 335.99 145.509 340.953 142.192 343.939C143.974 346.985 141.82 350.954 138.526 351.754C134.28 352.765 129.834 351.418 125.736 350.281C118.285 347.824 111.233 344.11 104.599 339.943L104.311 339.762C101.028 337.712 98.6525 334.522 97.5234 330.828L97.282 330.08C93.2724 317.606 86.1408 293.14 91.4906 281.584C94.0114 278.786 98.0744 282.044 99.5432 278.748C90.0664 278.005 74.7964 279.658 67.0746 274.234C67.8328 285.144 68.9575 296.048 68.9126 306.991C68.7201 308.43 69.6909 309.33 69.3008 310.782C70.7104 313.196 71.9274 315.712 73.1347 318.23L73.211 318.302C74.4646 319.491 76.0761 321.904 74.4267 323.318C80.0399 331.55 83.085 341.265 85.5733 350.819C88.2201 351.427 89.22 356.358 89.056 358.715C88.3131 365.048 80.8097 365.089 75.8793 365.624C72.9991 365.927 70.1099 366.116 67.2154 366.195C61.3589 366.353 55.4949 366.043 49.6865 365.279C44.9546 364.865 39.7235 363.626 37.3667 359.039C35.4666 355.747 35.17 350.806 37.7982 347.852C37.03 342.193 38.831 336.295 42.3502 331.834L42.4574 331.699L42.4484 331.695C42.3677 331.66 42.3749 331.526 42.7043 331.46L42.7408 331.453L42.8989 331.208C48.0699 323.187 48.7142 320.988 44.8776 311.84L41.3913 311.715C34.931 311.478 28.403 311.138 22.1512 309.53C21.2656 310.269 19.7077 310.183 19.3601 308.735C14.8122 289.26 10.6392 269.694 6.205 250.191C1.59628 229.665 -8.33464 198.505 15.6975 186.603C13.2429 186.604 12.6959 183.657 12.0993 181.797C9.91223 174.57 14.7314 167.892 19.772 163.199C37.4667 145.424 50.7796 123.03 71.8406 108.782ZM38.0959 350.028C37.7633 359.597 45.0004 361.891 53.146 362.136C58.2219 362.619 63.3355 362.767 68.431 362.567L70.8312 362.428C74.84 362.192 78.8789 361.897 82.7803 360.982C85.3495 360.453 85.9936 358.154 85.0656 355.906C84.6646 356.084 84.1903 356.097 83.8196 355.836C83.4043 355.546 83.1033 355.237 82.8749 354.873C69.6752 360.751 53.066 360.107 40.2739 353.345C38.6347 353.264 38.4219 351.305 38.0959 350.028ZM70.1832 319.739C65.3857 316.836 55.6699 315.573 51.0357 319.227C51.3533 321.063 50.6108 322.761 49.9146 324.397C52.029 323.892 70.421 321.413 67.8232 325.937C66.3689 327.11 64.3889 326.302 62.708 326.143C58.1999 325.768 53.6607 325.888 49.1661 326.399C48.7743 327.498 48.623 328.731 48.1357 329.767C52.6879 328.264 57.4505 327.545 62.2269 327.288L62.4923 327.274C64.5776 327.164 67.0178 326.702 68.5702 328.406C69.8932 330.217 66.9568 331.463 65.444 331.285C59.0009 331.092 52.5446 331.331 46.1074 331.608L45.8245 332.075C41.2756 339.611 40.2961 342.579 42.1346 351.617C42.1241 351.608 42.1132 351.601 42.1043 351.592C42.0972 352.081 41.9405 352.521 41.6071 352.849C55.4794 357.354 68.4002 357.098 82.1852 352.63C80.1695 342.498 76.1697 332.928 73.1953 323.078C72.4102 322.638 72.1773 321.666 71.5893 321.023C70.9949 320.972 70.406 320.503 70.1832 319.739ZM103.427 278.86C97.383 283.137 100.113 288.191 101.784 293.998C104.226 302.535 106.103 311.232 108.193 319.858C109.424 327.521 114.266 334.167 121.232 337.613C124.366 339.265 127.804 340.334 131.317 340.773C132.673 340.911 134.176 340.766 135.084 341.982C135.6 342.541 135.657 343.457 135.084 344.005C133.288 346.043 128.066 344.204 125.644 343.696C107.694 338.251 104.966 325.236 101.503 308.919C99.8255 299.856 95.7032 290.311 98.1904 281.12C96.6861 281.925 94.375 281.649 93.3081 283.169C90.8451 298.785 96.2778 314.626 100.465 329.555C101.394 332.692 103.357 335.451 106.213 337.098C112.304 340.82 118.689 344.222 125.444 346.572L125.649 346.63C129.077 347.614 136.483 350.27 139.114 347.493C139.663 346.682 139.638 345.813 138.947 345.275L138.612 345.147C137.968 344.898 137.21 344.548 137.093 343.795L137.086 343.743L137.111 343.734C136.551 342.707 137.637 341.556 138.61 341.305C139.981 341.255 140.618 340.342 141.105 339C141.98 332.436 132.768 330.682 129.714 326.19C129.391 327.83 126.869 327.517 126.882 325.863C126.782 320.841 127.873 315.772 128.62 310.816C127.471 310.767 126.249 311.232 125.13 310.98C124.965 309.946 128.193 308.861 129.082 308.519C129.265 307.663 129.46 306.811 129.666 305.962C122.486 306.396 125.821 304.092 130.356 303.303C130.497 302.821 130.621 302.327 130.734 301.838L130.789 301.594C131.076 300.369 131.228 299.211 131.278 298.015C128.103 299.471 124.531 300.354 121.091 299.613C114.876 298.168 111.654 290.617 114.149 284.951C113.581 282.941 114.696 280.804 115.703 279.108C111.611 279.094 107.517 278.982 103.427 278.86ZM42.6588 331.551C42.6052 331.583 42.5547 331.619 42.5058 331.659L42.4574 331.699L42.4696 331.702C42.5285 331.715 42.6142 331.681 42.6659 331.556C42.6551 331.567 42.6551 331.562 42.6588 331.551ZM43.0367 331.424C42.9386 331.427 42.8555 331.435 42.783 331.446L42.7408 331.453L42.7273 331.474C42.7022 331.512 42.6865 331.528 42.6677 331.555C42.7713 331.471 42.9117 331.432 43.0367 331.424ZM50.4565 325.439C50.1217 325.483 49.7876 325.524 49.4511 325.566L49.3851 325.746V325.746C49.7416 325.639 50.098 325.537 50.4565 325.439ZM65.3119 310.914C59.3401 311.523 53.3215 311.148 47.3479 311.828C48.5193 313.447 49.3548 315.239 50.0554 317.13C54.9618 312.493 62.8327 313.912 68.7358 315.619C68.3385 314.458 67.9726 313.286 67.645 312.104C66.7617 312.247 65.753 311.75 65.3119 310.914ZM210.969 216.635C202.806 224.96 190.468 227.248 179.91 230.923C177.346 232.529 178.599 235.713 178.926 238.131C179.538 242.1 180.023 246.089 180.375 250.089C181.679 248.58 185.097 248.383 187.009 247.769L187.264 247.712C189.815 247.126 192.466 246.247 195.069 246.817C196.118 247.045 196.19 248.499 195.355 249.016C193.243 250.329 190.658 250.367 188.236 250.654L187.616 250.728C185.473 250.983 183.313 251.216 181.159 251.126C180.888 251.168 180.616 251.065 180.445 250.881C180.713 255.064 181.251 259.306 181.068 263.496C180.969 264.239 180.73 265.049 180.202 265.6L180.185 265.664C179.886 266.722 178.915 268.611 177.796 267.212L177.586 266.835C175.943 263.868 174.386 260.766 173.592 257.453C173.327 264.153 173.113 270.849 172.846 277.546L172.838 277.707C172.77 278.844 172.548 280.211 171.809 281.086C171.874 281.606 171.409 281.909 170.993 281.723L170.938 281.748C170.539 281.927 169.898 282.092 169.654 281.605C168.252 278.322 166.758 275.09 165.389 271.798C165.462 273.487 165.38 275.181 165.434 276.872C165.461 278.801 165.819 281.07 164.899 282.855C164.114 284.419 162.158 284.828 161.108 283.467C160.267 282.167 159.79 280.561 159.025 279.183C156.868 289.848 151.408 274.171 150.405 270.94C147.324 272.743 144.075 274.266 140.715 275.484C141.639 276.885 141.415 278.789 141.706 280.4C141.968 282.8 142.175 285.202 142.381 287.608L142.458 288.069C143.716 295.594 145.549 303.285 149.584 309.835C152.999 306.488 157.481 304.514 161.864 302.741C167.141 300.563 172.376 298.286 177.539 295.851C191.496 289.284 204.935 281.585 217.462 272.572L217.887 272.273C224.849 267.371 232.103 260.942 232.282 251.794C232.882 236.798 220.352 226.568 210.969 216.635ZM57.1346 208.135C45.2175 196.946 26.9715 182.479 10.5122 193.109C-4.86214 206.131 7.31896 237.354 10.4594 254.168C14.4527 271.843 18.6732 289.469 22.5879 307.16C36.5474 309.004 50.7169 309.97 64.7453 308.309C64.5867 295.835 63.7456 283.377 63.4708 270.899C63.2152 264.47 63.304 258.016 62.3412 251.648C61.5241 246.471 62.5734 240.216 59.6923 235.693C58.6259 234.047 56.8915 232.605 56.5039 230.62C56.495 230.527 56.616 230.496 56.6748 230.548C57.518 231.29 58.1953 232.175 59.0899 232.886L59.7477 233.396C60.8176 234.23 61.8834 235.12 62.5459 236.305C62.614 235.8 61.337 231.297 62.1018 231.834L62.2459 232.229C63.2744 235.06 64.2015 237.924 64.4655 240.953C65.475 251.277 66.0391 261.651 66.9035 271.99C68.9885 272.931 70.9041 274.314 73.1811 274.814C76.9102 275.183 80.6446 274.974 84.3803 274.925L84.7305 274.921C95.6303 274.758 106.496 275.37 117.388 275.197C128.521 275.63 139.902 272.711 149.404 266.847C144.198 243.315 162.072 226.532 170.337 206.416C160.817 208.82 151.342 211.401 141.848 213.933C143.13 217.068 138.986 225.953 137.426 229.101C129.082 245.566 112.208 256.325 97.0339 240.612C97.041 240.66 97.0461 240.708 97.0517 240.758C96.5421 240.293 95.9791 239.883 95.4118 239.49C94.6496 245.751 92.5882 252.062 88.6978 257.09L88.2734 257.622C87.0599 259.137 85.3029 261.129 83.3599 259.984C81.9292 259.21 81.6601 257.703 81.9376 256.182C77.2633 261.273 72.1705 262.423 75.3644 253.662L75.2587 253.772C73.4707 255.609 68.7252 259.67 68.2421 254.869C68.4527 252.479 69.9239 250.345 70.6715 248.106C69.8729 248.6 68.9746 248.845 68.0603 248.493C65.608 247.552 66.8699 244.745 67.4169 242.977C68.8019 238.509 70.2151 234.049 71.652 229.597C71.154 226.951 72.731 224.318 71.2526 222.018C70.6199 222.349 69.7677 222.28 69.1566 221.463C65.5705 216.683 61.4552 212.255 57.1346 208.135ZM22.7537 307.972C22.7574 307.999 22.7574 308.022 22.759 308.049C22.8964 308.058 23.0319 308.07 23.169 308.082C23.0292 308.049 22.8913 308.008 22.7537 307.972ZM140.478 290.788C138.278 268.12 143.986 278.795 120.805 279.053C120.909 279.621 120.163 279.555 120.427 279.397C120.091 278.145 118.188 281.816 117.922 282.292C117.422 283.355 117.194 284.678 117.017 285.841C115.775 292.353 120.404 298.058 127.155 295.29C126.286 295.217 125.31 295.531 124.589 294.976C124.592 294.974 124.594 294.97 124.597 294.967C123.952 293.809 127.493 293.759 128.198 293.449C130.943 292.875 133.694 292.342 136.423 291.698C137.753 291.384 139.114 290.892 140.478 290.788ZM162.764 282.03C162.566 281.914 162.668 282.294 162.734 282.101C162.743 282.076 162.755 282.053 162.764 282.03ZM187.725 160.993C177.804 161.702 171.381 166.606 164.34 172.896C163.814 173.351 163.281 173.796 162.736 174.228C165.812 179.627 169.129 184.883 172.335 190.208L172.936 191.209C173.871 192.771 174.784 194.361 175.34 196.101C177.237 202.106 170.614 212.676 168.208 218.572C156.692 238.913 145.875 253.034 156.353 277.125C156.915 275.605 155.673 270.298 157.531 270.091L157.494 269.714C156.9 263.59 156.873 256.214 158.727 250.807C157.701 261.27 158.813 272.236 162.775 282.005C163.811 272.744 162.438 262.399 162.757 252.886C162.744 251.424 164.954 251.44 165.017 252.886L165.092 255.342C165.351 263.666 165.799 272.382 170.635 279.424C171.1 268.705 169.147 257.413 172.9 247.136C173.207 246.396 174.312 246.453 174.344 247.332C174.413 250.831 175.891 262.673 178.441 264.726C179.142 262.584 179.07 260.241 178.958 257.997C178.611 249.867 177.439 241.934 176.002 233.917C175.741 232.333 176.207 230.383 177.846 229.772C179.063 228.613 180.744 227.791 182.134 227.131C190.969 222.762 203.123 223.604 209.099 214.606L209.389 214.168C210.086 213.113 210.739 212.071 211.033 210.805C210.227 207.794 209.07 204.86 208.086 201.904C207.208 199.292 206.305 196.689 205.359 194.102L205.042 193.24C200.818 181.698 195.44 170.62 187.725 160.993ZM119.315 279.09C119.089 279.164 118.909 279.39 118.717 279.559L118.675 279.594L118.793 279.501C118.918 279.4 119.03 279.307 119.203 279.175L119.315 279.09ZM66.9909 273.144L67.0444 273.843V273.843C67.3866 273.913 67.7218 274 68.0569 274.086C67.6682 273.804 67.3065 273.492 66.9909 273.144ZM117.538 257.352C117.498 257.215 117.694 257.134 117.768 257.255C120.651 262.332 126.327 264.353 131.793 265.158C132.723 265.376 132.609 266.662 131.793 266.932C128.738 267.946 125.211 266.581 122.71 264.764C120.147 262.904 118.399 260.391 117.538 257.352ZM172.51 254.454C171.969 258.362 172.018 262.347 171.971 266.292C172.15 262.347 172.298 258.399 172.51 254.454ZM92.9023 261.336C93.4693 261.532 94.0557 261.661 94.633 261.71C94.02 262.003 93.3194 261.857 92.9023 261.336ZM48.4423 134.961C39.7748 144.783 32.187 155.533 22.8645 164.763C17.4021 169.704 12.2341 176.456 16.4942 183.891C17.3926 184.246 17.5505 185.57 16.7758 186.193C16.9608 186.169 18.1498 185.593 17.8826 186.065C15.4945 187.085 13.3947 188.564 11.5857 190.352C22.8571 182.055 37.8025 188.698 47.6331 196.134C52.4847 199.682 56.9956 203.591 61.2197 207.798C62.7313 208.069 64.2942 208.877 65.5541 209.509C74.244 213.686 75.6055 219.331 74.8885 228.354C72.2804 233.329 71.0467 239.018 69.2296 244.352C67.3607 248.499 71.0375 245.704 71.5645 243.895C72.844 242.302 73.4614 240.184 74.2458 238.331L74.3021 238.199C74.5249 237.669 75.0026 237.275 75.6175 237.452C76.1111 237.593 76.569 238.204 76.3773 238.734L75.9836 239.748C74.0773 244.652 72.1076 249.58 70.5896 254.605C75.7191 251.531 78.2589 245.711 80.9518 240.573C81.6916 239.207 83.6825 240.411 83.0159 241.78C82.3974 243.045 81.7665 244.306 81.0981 245.545C79.3513 249.27 78.0849 253.2 77.0362 257.175C82.8018 253.734 84.8114 246.723 86.4699 240.807C86.5722 239.119 89.0041 239.451 88.7532 241.108C88.1363 244.397 87.1954 247.637 85.7232 250.649L85.334 252.927C85.0749 254.446 84.8183 255.965 84.5736 257.485C84.7125 257.418 84.8624 257.409 85.0066 257.444C90.1149 252.297 92.1596 245.195 93.9431 238.369C93.0951 235.482 94.133 232.529 94.0144 229.553C94.4655 225.742 93.2373 222.191 91.5365 218.788C90.5172 208.263 80.3864 203.697 73.3233 197.51C64.6724 188.955 60.124 175.855 47.9646 171.615C46.7004 171.696 45.4817 171.424 44.2984 171.016C44.2467 171.002 44.2378 170.913 44.2984 170.904C45.502 170.707 46.7049 170.399 47.9113 170.18C48.2364 169.118 49.5363 168.989 50.5137 169.463C61.0276 164.852 69.7421 156.743 78.0967 149.028C69.939 141.476 59.377 136.787 48.4423 134.961ZM96.8218 242.014C96.9964 242.208 97.1495 242.419 97.2638 242.649C97.2949 242.708 97.2914 242.778 97.3012 242.843C97.1513 242.562 96.9927 242.283 96.8218 242.014ZM63.4692 210.092C66.3737 213.141 69.1625 216.319 71.7873 219.644C70.8459 214.846 67.7624 212.072 63.4692 210.092ZM160.679 173.557C154.372 184.958 144.498 194.972 142.189 208.191C142.004 209.321 141.991 210.466 141.968 211.608C149.008 208.735 156.419 206.946 163.682 204.741C166.435 204.005 169.108 202.847 172 202.699C174.384 198.564 172.469 194.515 170.371 190.743C167.637 184.755 163.313 179.576 160.679 173.557ZM59.049 168.013C57.2255 169.037 55.345 169.973 53.3616 170.638C55.0691 171.505 56.6303 172.6 58.0759 173.846C58.8022 171.995 59.0742 169.991 59.049 168.013ZM105.413 102.296C104.466 110.647 104.512 119.265 106.728 127.416C110.033 140.119 122.269 151.994 136.115 149.504C150.084 146.582 156.95 132.105 159.83 119.374C152.474 110.034 140.958 104.191 129.089 103.721C121.371 103.405 112.647 105.895 105.413 102.296Z" fill="#363636"/>
<path fill-rule="evenodd" clip-rule="evenodd" d="M165.784 84.4101C165.409 81.1113 165.895 74.2162 165.927 73.7973C166.133 71.1491 164.893 60.6915 162.549 61.6551C158.618 58.5401 153.381 57.8523 148.485 57.5237C138.314 56.8411 127.494 58.4081 119.64 65.2585C115.756 68.8161 111.975 73.9904 112.279 79.378C108.75 84.4847 103.775 91.4899 108.172 97.4601C109.666 99.3675 112.042 100.078 113.919 101.522C117.696 104.571 120.065 108.946 123.877 111.976C133.977 121.06 151.127 122.957 161.05 112.626C168.723 105.143 167.483 93.9491 166.133 84.4101C165.225 77.997 166.516 90.8457 165.784 84.4101Z" fill="white"/>
<path fill-rule="evenodd" clip-rule="evenodd" d="M134.898 43.5346C137.618 42.9853 140.411 42.6434 143.189 42.7463L143.403 42.7547C145.493 42.8383 148.14 43.0232 149.963 44.2395C150.068 44.1342 150.237 44.0801 150.39 44.1532C152.556 45.1883 154.94 45.9366 157.221 46.6803C159.492 47.4202 161.848 47.9087 164.228 48.1056C165.123 48.1798 165.89 49.1475 165.323 50.0155C165.188 50.2223 165.056 50.4313 164.926 50.6407C165.144 50.6179 165.363 50.5943 165.582 50.5722C166.302 50.4996 167.022 51.2689 166.979 51.9707C166.953 52.4121 166.905 52.8483 166.835 53.2792C167.109 53.2735 167.382 53.3146 167.645 53.4261C168.979 53.9899 168.886 55.5802 168.786 56.7902C168.648 58.4694 168.021 60.2479 166.856 61.5046C167.725 62.4089 168.341 63.4888 168.709 64.7713C168.975 65.7078 169.123 66.7054 169.05 67.6803L169.027 67.9722C168.936 69.0301 168.756 70.2014 167.996 70.9625C167.606 71.3549 167.125 71.4979 166.666 71.4526C166.943 73.8907 167.121 76.3427 167.288 78.7861L167.367 79.9539C167.74 85.6009 168.02 91.2848 167.947 96.9411C167.879 102.227 166.835 107.358 163.596 111.65C160.646 115.558 156.41 118.439 151.618 119.535C149.035 120.126 146.399 120.168 143.785 119.791C142.518 119.608 141.242 119.327 140.04 118.884C138.709 118.392 137.752 117.669 136.856 116.584C136.433 116.069 136.637 114.974 137.48 115.077C138.756 115.232 139.921 115.418 141.144 115.796L141.319 115.851C142.537 116.242 143.799 116.533 145.072 116.657C147.681 116.91 150.33 116.655 152.829 115.864C156.897 114.573 160.402 111.697 162.648 108.084C165.314 103.8 165.616 98.938 165.577 94.0129C165.536 88.6086 165.36 83.2011 165.073 77.8023L165.025 76.9026C164.873 74.1244 164.727 71.3444 164.598 68.5645C164.558 67.6925 164.497 66.8135 164.387 65.9433C163.382 65.3538 162.481 64.5411 161.893 63.5383C160.714 64.0266 159.473 64.3789 158.331 64.6597C155.687 65.3105 152.942 65.4686 150.251 65.061C149.525 65.3611 148.784 65.625 148.033 65.8521C147.829 65.9422 147.626 66.0308 147.423 66.1177C145.611 66.8937 143.772 67.5512 141.859 68.0326L141.389 68.1499C140.382 68.3983 139.289 68.6429 138.217 68.7197C138.041 68.7877 137.851 68.8453 137.644 68.8959C136.668 69.133 135.655 69.208 134.655 69.1243C133.681 69.0424 132.977 68.057 133.514 67.1344C133.906 66.4612 134.302 65.7898 134.701 65.1201C133.312 65.6991 131.878 66.1805 130.431 66.5885C128.971 67.0001 127.49 67.3472 126.007 67.6663C125.214 67.8355 124.418 67.9855 123.627 68.1547C123.06 68.275 122.191 68.3378 121.729 68.711C121.219 69.1208 121.074 70.0765 120.88 70.666C120.626 71.4316 120.387 72.2007 120.169 72.9786C119.736 74.5307 119.38 76.1056 119.105 77.6961C118.829 79.2884 118.645 80.8963 118.542 82.5095C118.439 84.121 118.484 85.7429 118.319 87.3474C118.23 88.1984 117.317 88.6362 116.643 88.0415C116.563 87.9717 116.484 87.9012 116.405 87.8299L116.287 87.7223C115.71 87.1991 115.151 86.6445 114.689 86.0202C114.605 85.9051 114.525 85.7847 114.45 85.6627C114.438 85.6627 114.428 85.6592 114.416 85.6505L114.288 85.5541C112.878 84.5042 110.524 83.1355 109.15 84.8796C108.712 85.4352 108.487 86.1427 108.301 86.8253L107.975 88.0469C107.764 88.8443 107.565 89.6462 107.449 90.4622C107.185 92.2899 107.318 94.3966 108.574 95.8616C109.076 96.4476 109.768 96.8661 110.54 96.976C110.971 97.0353 111.396 96.962 111.823 96.908C112.257 96.8539 112.675 96.9411 113.109 96.8993C113.799 96.8312 114.1 97.6579 113.842 98.1776C113.703 98.4566 113.539 98.6973 113.353 98.9014C113.502 99.0304 113.645 99.1699 113.783 99.3164C114.191 99.4472 114.557 99.728 114.83 100.1C115.052 100.399 115.166 100.726 115.186 101.069C115.21 101.155 115.231 101.242 115.25 101.331L115.624 101.938C115.706 102.071 115.788 102.203 115.87 102.332C116.822 103.832 117.878 105.101 119.19 106.298C120.454 107.449 121.825 108.479 123.012 109.714L123.151 109.861C124.258 111.028 125.424 112.44 124.991 114.137C124.88 114.573 124.271 114.887 123.874 114.592C122.597 113.643 121.954 112.14 120.87 110.989C119.755 109.803 118.519 108.738 117.401 107.555C116.343 106.439 115.508 105.175 114.879 103.783C114.628 104.06 114.262 104.257 113.755 104.334C112.884 104.465 112.072 103.954 111.692 103.199C111.448 103.307 111.199 103.404 110.948 103.481C109.627 103.886 108.796 102.416 109.294 101.329C109.561 100.747 109.893 100.241 110.307 99.8152C109.015 99.6373 107.701 98.9694 106.853 98.1358C104.723 96.0412 104.431 92.8933 104.91 90.0942C105.164 88.61 105.603 87.1084 106.173 85.715C106.272 85.4726 106.379 85.2284 106.495 84.9877C106.431 84.986 106.365 84.9581 106.323 84.904C105.938 84.3773 105.469 83.9466 105.183 83.3571C104.92 82.8165 104.628 82.2688 104.42 81.7055C103.993 80.5528 103.784 79.2517 103.645 78.0327C103.357 75.537 103.469 73.057 103.85 70.5771C104.5 66.3531 106.07 62.3109 108.382 58.7639C108.257 58.6977 108.136 58.6178 108.023 58.5232L107.968 58.4748L107.878 58.3931C107.218 57.7955 107.275 56.6753 107.878 56.07L108.068 55.8789C108.309 55.6392 108.517 55.4492 108.907 55.1882C108.964 55.1497 109.023 55.1134 109.082 55.0795C108.878 54.7025 108.808 54.2616 108.95 53.7752C109.445 52.0807 111.881 52.1407 113.425 52.8797C115.133 51.3538 117.027 50.0293 119.08 48.9567C123.97 46.4035 129.499 44.6229 134.898 43.5346ZM109.622 88.1636C110.535 87.8654 111.748 88.4915 112.568 88.8682C113.609 89.346 114.494 90.0523 115.351 90.7988C115.778 91.172 115.855 91.7824 115.749 92.3038C115.738 92.3562 115.728 92.4102 115.715 92.4643C115.602 93.0206 114.982 93.4584 114.433 93.4427C113.285 93.4113 112.738 92.4189 112.087 91.5783C112.011 91.7144 111.915 91.8399 111.796 91.9341L111.716 91.9969C111.446 92.2025 111.149 92.3668 110.793 92.3509C110.54 92.3387 110.298 92.2742 110.075 92.1573C109.517 91.8626 109.272 91.1406 109.423 90.5529C109.517 90.1831 109.733 89.8936 110.015 89.6931L109.91 89.621C109.685 89.4642 109.48 89.2989 109.32 89.0549L109.284 88.9972H109.298C109.123 88.6973 109.237 88.2892 109.622 88.1636Z" fill="#363636"/>
<path fill-rule="evenodd" clip-rule="evenodd" d="M152.591 89.0081C153.906 89.8086 155.911 91.6752 154.496 93.6597C152.83 95.4096 150.431 93.4033 149.248 92.4959C148.152 91.7927 146.92 93.6013 147.938 94.4224C156.48 100.752 159.947 89.2174 153.256 88.0669C152.519 87.9401 152.246 88.7604 152.591 89.0081ZM140.702 73.7417L141.029 73.6844L141.197 73.6559C142.177 73.4938 143.338 73.3853 144.015 74.1552C144.395 74.587 144.526 75.3896 144.015 75.8029C143.117 76.5302 142.125 76.2483 141.049 76.3099C140.162 76.3608 139.31 76.5077 138.456 76.752C136.583 77.2879 135.056 78.2663 133.456 79.3406C133.246 79.4815 133.031 79.2128 133.132 79.0162C134.055 77.2054 135.846 75.718 137.639 74.8113C138.596 74.3273 139.643 73.9259 140.702 73.7417ZM149.369 98.7577C152.232 98.9657 158.437 97.5977 161.014 99.6497C170.725 111.786 132.226 114.906 136.384 101.479C139.032 97.138 145.123 98.8829 149.369 98.7577ZM148.878 106.084C148.17 106.026 147.31 106.588 147.102 107.021C146.894 107.455 146.975 108.372 146.981 108.531C148.219 108.656 149.468 108.675 150.71 108.593C150.387 107.526 150.377 106.246 148.878 106.084ZM154.595 107.875C154.396 106.55 153.448 106.236 152.682 106.435C151.897 106.638 151.437 107.542 151.487 108.347C151.49 108.402 151.458 108.449 151.437 108.494C152.503 108.368 153.559 108.16 154.595 107.875ZM145.813 106.324C145.367 105.644 144.3 105.316 143.617 105.436C142.501 105.671 142.369 107.09 142.369 107.379C143.397 107.772 144.489 108.032 145.534 108.24C145.743 108.281 145.953 108.318 146.164 108.353L146.178 108.181C146.203 107.812 146.222 106.946 145.813 106.324ZM158.434 106.212C157.29 104.441 154.831 105.709 155.034 107.644C155.253 107.575 155.47 107.503 155.687 107.427C156.586 107.114 157.571 106.741 158.434 106.212ZM149.428 100.109C147.889 99.9699 146.626 100.017 145.623 100.203L145.592 100.539C145.481 101.702 145.338 102.846 145.948 103.314C146.444 103.694 148.09 103.658 149.193 103.383C149.465 103.314 149.82 100.901 149.428 100.109ZM151.808 99.9699C151.561 101.117 151.445 102.509 151.94 102.922C152.463 103.359 154.147 103.3 154.587 103.009C154.972 102.754 154.963 101.583 154.819 100.269C153.967 100.068 152.482 99.9699 151.808 99.9699ZM144.942 100.214L144.438 100.219L144.153 100.223C143.431 100.236 142.653 100.277 141.918 100.438C140.456 103.598 145.793 104.144 144.969 100.331L144.942 100.214ZM155.498 100.291L155.489 100.47C155.445 101.358 155.474 102.527 155.966 102.842C156.689 103.307 158.047 103.217 158.782 101.069C158.539 100.428 155.957 100.338 155.498 100.291ZM141.335 81.4449C141.644 81.4449 141.94 81.5498 142.209 81.7441C142.474 81.9352 142.714 82.2142 142.913 82.5622C143.291 83.2207 143.528 84.1299 143.528 85.1352C143.528 86.1405 143.291 87.0497 142.913 87.7082C142.714 88.0561 142.474 88.3351 142.209 88.5263C141.94 88.7205 141.644 88.8255 141.335 88.8255C141.026 88.8255 140.731 88.7205 140.462 88.5263C140.197 88.3351 139.957 88.0561 139.757 87.7082C139.379 87.0497 139.143 86.1405 139.143 85.1352C139.143 84.1299 139.379 83.2207 139.757 82.5622C139.957 82.2142 140.197 81.9352 140.462 81.7441C140.731 81.5498 141.026 81.4449 141.335 81.4449ZM160.894 81.4449C161.203 81.4449 161.498 81.5498 161.768 81.7441C162.032 81.9352 162.272 82.2142 162.472 82.5622C162.85 83.2207 163.086 84.1299 163.086 85.1352C163.086 86.1405 162.85 87.0497 162.472 87.7082C162.272 88.0561 162.032 88.3351 161.768 88.5263C161.498 88.7205 161.203 88.8255 160.894 88.8255C160.585 88.8255 160.289 88.7205 160.02 88.5263C159.755 88.3351 159.516 88.0561 159.316 87.7082C158.938 87.0497 158.702 86.1405 158.702 85.1352C158.702 84.1299 158.938 83.2207 159.316 82.5622C159.516 82.2142 159.755 81.9352 160.02 81.7441C160.289 81.5498 160.585 81.4449 160.894 81.4449ZM158.233 72.9305L158.483 72.9818L158.649 73.0171C161.35 73.5985 164.774 74.7447 166.039 77.3693C166.088 77.748 166.036 77.8292 165.994 77.8823L165.98 77.8999C165.945 77.9452 165.917 78.0076 165.753 78.0592C165.707 78.0483 165.661 78.0368 165.615 78.0246C165.024 77.8695 164.556 77.6558 164.102 77.434L163.611 77.1918C163.041 76.9122 162.466 76.6427 161.857 76.4437C160.557 76.0192 159.219 75.7202 157.861 75.5605C157.567 75.526 157.283 75.4265 157.06 75.2561C156.847 75.0944 156.685 74.8704 156.611 74.5727C156.515 74.1874 156.543 73.8958 156.749 73.5482C156.905 73.2872 157.127 73.1063 157.382 73.0024C157.642 72.8965 157.938 72.8715 158.233 72.9305Z" fill="#363636"/>
<path fill-rule="evenodd" clip-rule="evenodd" d="M137.066 106.941C138.477 103.633 141.556 101.202 145.101 100.313C147.705 99.662 150.437 99.6828 153.091 99.9412C154.481 100.076 155.973 100.186 157.283 100.703C158.402 101.144 159.314 101.979 160 102.958C160.816 104.119 161.371 105.448 161.761 106.809C161.816 107.003 161.868 107.198 161.917 107.394C161.747 108.422 161.387 109.296 160.437 109.942C159.509 110.573 158.401 110.831 157.298 110.923C157.19 110.87 157.085 110.817 156.989 110.762C155.269 109.777 154.059 107.448 151.888 107.763C149.951 108.045 148.675 110.484 147.523 111.915C143.825 112.346 140.13 111.234 137.121 109.118C136.968 108.393 136.96 107.663 137.066 106.941M164.43 104.432C164.134 103.601 163.762 102.796 163.32 102.038C161.86 99.5311 159.619 97.5337 156.958 96.3919C150.663 93.6945 142.519 95.5959 137.436 100.02C135.699 101.532 133.943 103.754 133.413 106.145C133.254 106.176 133.104 106.259 132.981 106.375C129.308 104.061 125.526 101.834 122.567 98.6266C120.418 96.2958 118.923 93.5375 118.007 90.5065C117.933 90.2571 117.531 90.2936 117.543 90.5696C117.546 90.6342 117.55 90.6986 117.553 90.7632C117.515 90.6445 117.334 90.7056 117.32 90.8208C116.828 94.5028 116.212 98.4066 116.779 102.108C117.118 104.316 118.121 105.933 119.461 107.679C120.896 109.55 122.522 111.291 124.184 112.96C125.238 114.02 126.34 115.242 127.631 116.019C129.133 116.921 130.837 117.608 132.439 118.304C134.07 119.015 135.725 119.671 137.411 120.24C140.782 121.382 144.266 122.171 147.811 122.517C150.649 122.793 153.893 123.093 156.613 122.025C158.698 121.206 160.381 119.726 161.716 117.945C163.169 116.005 164.317 113.796 164.952 111.466C165.612 109.046 164.569 104.822 164.43 104.432" fill="#363636"/>
</svg>
