<svg width="464" height="635" viewBox="0 0 464 635" fill="none" xmlns="http://www.w3.org/2000/svg">
<path fill-rule="evenodd" clip-rule="evenodd" d="M84.5092 240.401C81.4771 242.1 78.9605 243.261 76.5893 244.054L73.1022 245.219L76.3818 246.881C78.6094 248.009 80.7277 249.448 82.8575 251.281L84.5013 252.696L85.2945 250.679C86.3364 248.03 86.8434 245.016 86.8014 241.722L86.768 239.136L84.5092 240.401ZM230.164 248.958C227.326 254.076 223.9 259.115 220.587 263.988C213.276 274.743 205.715 285.864 203.387 299.163C203.115 300.817 202.998 306.639 202.998 306.639L205.166 305.757C212.403 302.81 220.082 300.619 227.507 298.5C230.378 297.68 233.345 296.834 236.254 295.953C237.438 295.636 238.616 295.266 239.756 294.907C242.521 294.039 245.134 293.218 247.88 293.078L248.716 293.035L249.134 292.311C252.918 285.761 250.081 279.517 246.831 273.683C244.879 269.43 242.369 265.434 239.941 261.569C237.424 257.563 234.821 253.421 232.92 249.086L231.671 246.24L230.164 248.958ZM90.509 303.218C94.8107 307.723 98.8064 312.302 102.385 316.825L105.103 315.577C103.789 308.895 99.7108 304.188 92.2672 300.762L90.509 303.218ZM234.417 403.876C233.986 403.876 233.582 404.043 233.279 404.346C232.972 404.653 232.804 405.067 232.805 405.511L234.417 405.506V403.876ZM55.4133 515.277C52.8859 510.942 52.5146 504.135 56.3023 500.444C55.0283 492.474 57.5311 483.567 63.0739 477.221L63.0867 477.24C71.3164 464.915 71.9211 460.524 65.9082 446.747C55.1622 446.336 44.0933 446.213 33.6009 443.703L33.9933 441.357C33.605 441.254 31.6212 440.734 31.1951 440.624C31.2521 441.06 31.5478 443.051 31.5406 443.45C31.0505 443.986 29.8658 444.484 29.6455 443.429C23.045 415.216 17.1377 387.561 10.719 359.39C4.00131 330.957 -9.50854 285.48 23.561 269.81L22.8783 266.897C21.0521 266.898 20.3183 264.908 19.4812 262.096C15.7499 252.038 23.0052 242.176 29.7899 235.955C39.0637 226.67 47.6191 216.362 55.8955 206.397C79.504 177.693 111.627 139.389 152.689 145.896L152.55 147.587C158.974 148.395 165.68 150.093 172.184 148.91C194.389 145.063 218.547 153.766 232.204 171.635L232.706 168.304C232.753 167.99 232.866 167.699 233.363 167.699C234.014 167.676 234.358 168.209 234.598 168.7C258.17 178.018 267.934 208.346 275.466 229.134C276.428 232.648 276.157 233.688 276.073 233.894L274.705 234.709C288.911 253.611 296.718 276.346 303.415 297.902C305.628 303.649 305.859 307.631 302.162 311.107C326.537 325.755 345.664 348.584 334.85 374.611C320.736 399.935 283.363 416.004 255.292 430.549C244.145 436.589 227.932 439.806 217.674 449.697C216.989 450.71 216.006 451.697 215.41 451.616C210.649 452.32 203.564 422.58 204.64 420.198C199.615 421.996 194.024 421.9 188.768 422.838C189.239 423.873 190.781 425.274 189.627 426.425C189.706 429.918 189.169 433.694 188.4 437.254C194.708 436.243 194.565 439.553 188.496 437.801C188.331 439.343 187.91 443.276 187.749 444.767C189.56 443.971 193.166 443.411 194.429 444.657C193.913 446.317 189.445 444.754 187.724 445.246C186.717 452.713 186.389 460.053 185.683 467.499C191.053 472.616 199.442 473.825 204.235 479.359C208.296 483.571 207.711 490.64 202.946 494.028C205.864 497.451 203.529 503.132 199.268 504.061C193.464 505.416 187.397 503.542 181.674 501.968C172.16 498.834 162.197 493.95 151.216 487.036C146.872 484.33 143.637 480.078 142.1 475.06C130.959 440.72 127.982 417.387 133.241 405.675C136.241 403.408 139.586 404.807 142.357 403.569C143.677 402.979 144.867 402.185 145.827 399.371C131.375 397.951 110.306 400.589 98.7203 393.662L99.1278 392.795C98.058 392.112 95.7074 389.255 94.813 388.337C96.425 407.729 97.7208 427.624 98.362 446.948C100.487 450.523 102.292 454.223 104.273 458.352C105.651 459.705 108.061 462.025 106.647 463.56C106.647 463.56 118.542 491.419 122.178 505.501C125.639 505.647 127.042 511.511 126.91 515.406C126.384 522.494 117.289 523.246 109.316 523.94C103.86 524.513 98.2506 524.809 92.7245 524.809C82.74 524.817 57.7752 524.13 55.4133 515.277Z" fill="white"/>
<path fill-rule="evenodd" clip-rule="evenodd" d="M104.014 156.187C120.961 144.931 142.964 139.004 162.618 146.375C162.851 146.457 162.758 146.797 162.515 146.743C159.409 146.062 156.254 145.681 153.082 145.55C159.512 146.335 165.752 148.022 172.264 146.885C194.014 143.294 217.078 150.67 231.529 167.564C231.902 165.082 234.988 165.174 235.994 166.929C255.212 173.696 266.097 199.116 273.356 216.757C274.209 219.902 280.132 232.959 277.287 234.654C290.826 253.192 298.443 275.144 305.202 296.857L305.396 297.385C306.93 301.635 308.101 306.445 304.851 310.226C318.332 318.465 330.796 329.53 336.688 344.524C346.072 366.642 334.114 385.38 315.47 397.363C296.992 410.736 276.974 421.869 256.281 431.43C249.323 434.641 242.278 437.655 235.191 440.575L234.486 440.863C228.919 443.15 223.302 445.839 219.138 450.241C211.041 462.052 203.562 426.674 203.48 421.743C199.683 422.884 195.501 422.91 191.582 423.505C192.08 424.358 192.118 425.467 191.512 426.376C191.521 429.262 191.215 432.171 190.651 435.031C196.666 434.497 196.458 440.562 190.187 439.163L189.874 442.095V442.095C192.737 441.209 198.784 442.625 195.242 446.037C193.387 446.952 191.41 446.108 189.432 446.205C188.58 452.907 188.256 459.613 187.632 466.345C193.005 471.013 200.982 472.25 205.752 477.852C209.921 482.407 210.024 489.533 205.252 493.821C207.816 498.195 204.717 503.893 199.977 505.042C193.866 506.493 187.468 504.559 181.571 502.927C170.849 499.399 160.702 494.066 151.155 488.084L150.74 487.823C146.016 484.88 142.597 480.3 140.973 474.997L140.625 473.922C134.855 456.013 124.593 420.885 132.291 404.293C135.919 400.276 141.765 404.953 143.879 400.221C130.242 399.154 108.268 401.527 97.1559 393.74C98.247 409.405 99.8654 425.06 99.8008 440.772C99.5238 442.838 100.921 444.13 100.359 446.215C102.388 449.681 104.139 453.293 105.877 456.909L105.986 457.011C107.79 458.719 110.109 462.183 107.736 464.214C115.813 476.033 120.195 489.982 123.776 503.7C127.585 504.572 129.024 511.652 128.788 515.036C127.719 524.13 116.921 524.188 109.826 524.956C105.681 525.391 101.524 525.663 97.3586 525.775C88.9309 526.003 80.4924 525.558 72.134 524.461C65.3247 523.866 57.797 522.088 54.4056 515.502C51.6712 510.775 51.2444 503.681 55.0265 499.439C53.9209 491.315 56.5126 482.846 61.5769 476.44L61.7311 476.247L61.7182 476.242C61.6021 476.191 61.6124 475.999 62.0864 475.903L62.1389 475.894L62.3664 475.542C69.8076 464.026 70.7348 460.868 65.2139 447.734L60.197 447.555C50.9005 447.215 41.5066 446.726 32.5101 444.418C31.2356 445.478 28.9937 445.355 28.4936 443.276C21.949 415.314 15.944 387.222 9.56305 359.219C2.93098 329.749 -11.3598 285.01 23.2229 267.922C19.6907 267.922 18.9036 263.691 18.0451 261.021C14.8978 250.644 21.8328 241.055 29.0863 234.318C54.5494 208.797 73.707 176.645 104.014 156.187ZM55.4548 502.563C54.9762 516.302 65.3906 519.596 77.1123 519.947C84.4166 520.641 91.7753 520.854 99.1078 520.567L102.562 520.367C108.33 520.028 114.143 519.605 119.757 518.29C123.454 517.532 124.381 514.23 123.045 511.003C122.468 511.259 121.786 511.277 121.252 510.903C120.655 510.486 120.221 510.043 119.893 509.52C100.898 517.959 76.9971 517.035 58.589 507.326C56.2302 507.21 55.9239 504.397 55.4548 502.563ZM101.629 459.075C94.7256 454.906 80.7443 453.094 74.0755 458.34C74.5326 460.976 73.4641 463.414 72.4623 465.764C75.5049 465.038 101.971 461.478 98.2332 467.974C96.1403 469.658 93.2911 468.499 90.8722 468.27C84.385 467.732 77.853 467.903 71.3851 468.637C70.8213 470.215 70.6036 471.985 69.9024 473.474C76.4531 471.316 83.3065 470.283 90.18 469.914L90.5619 469.894C93.5627 469.735 97.0741 469.072 99.3081 471.52C101.212 474.119 96.9864 475.908 94.8094 475.653C85.5377 475.375 76.2469 475.718 66.9836 476.117L66.5764 476.787C60.0305 487.607 58.6209 491.868 61.2667 504.844C61.2515 504.832 61.2359 504.821 61.2231 504.809C61.2128 505.51 60.9874 506.143 60.5075 506.614C80.4701 513.082 99.0634 512.714 118.9 506.299C116 491.752 110.244 478.012 105.964 463.869C104.834 463.237 104.499 461.842 103.653 460.919C102.797 460.846 101.95 460.171 101.629 459.075ZM149.468 400.382C140.77 406.523 144.698 413.779 147.103 422.117C150.618 434.374 153.319 446.86 156.326 459.246C158.098 470.248 165.066 479.79 175.09 484.738C179.599 487.11 184.546 488.645 189.602 489.276C191.554 489.474 193.716 489.265 195.024 491.012C195.765 491.813 195.847 493.129 195.024 493.916C192.439 496.842 184.925 494.202 181.439 493.472C155.608 485.655 151.682 466.968 146.699 443.54C144.285 430.528 138.353 416.823 141.932 403.627C139.768 404.782 136.442 404.386 134.906 406.569C131.362 428.99 139.18 451.735 145.205 473.169C146.543 477.673 149.367 481.634 153.476 483.998C162.242 489.343 171.43 494.227 181.151 497.601L181.446 497.684C186.379 499.098 197.037 502.911 200.823 498.924C201.613 497.759 201.577 496.512 200.582 495.738L200.1 495.555C199.173 495.198 198.083 494.695 197.914 493.614L197.904 493.539L197.94 493.526C197.135 492.052 198.697 490.4 200.097 490.039C202.069 489.968 202.987 488.656 203.688 486.73C204.946 477.305 191.69 474.786 187.296 468.337C186.83 470.691 183.201 470.243 183.22 467.868C183.077 460.657 184.647 453.379 185.721 446.264C184.067 446.194 182.31 446.861 180.699 446.5C180.462 445.014 185.107 443.457 186.386 442.966C186.65 441.737 186.929 440.513 187.227 439.294C176.894 439.918 181.694 436.609 188.22 435.476C188.423 434.785 188.601 434.075 188.763 433.373L188.843 433.023C189.255 431.264 189.474 429.602 189.546 427.884C184.977 429.974 179.838 431.242 174.887 430.178C165.943 428.103 161.307 417.262 164.897 409.127C164.08 406.241 165.684 403.172 167.134 400.738C161.245 400.718 155.354 400.556 149.468 400.382ZM62.021 476.034C61.9438 476.081 61.8712 476.133 61.8008 476.189L61.7311 476.247L61.7487 476.252C61.8334 476.269 61.9568 476.221 62.0312 476.042C62.0156 476.057 62.0156 476.05 62.021 476.034ZM62.5647 475.853C62.4236 475.857 62.3039 475.868 62.1997 475.884L62.1389 475.894L62.1196 475.924C62.0833 475.979 62.0608 476.002 62.0338 476.04C62.1828 475.919 62.3849 475.863 62.5647 475.853ZM73.242 467.259C72.7603 467.323 72.2794 467.38 71.7952 467.441L71.7003 467.699V467.699C72.2132 467.546 72.7262 467.4 73.242 467.259ZM94.6193 446.405C86.0257 447.279 77.3649 446.74 68.7687 447.716C70.4543 450.041 71.6567 452.614 72.6649 455.329C79.7253 448.672 91.0517 450.708 99.5463 453.16C98.9746 451.493 98.4481 449.81 97.9767 448.113C96.7056 448.318 95.2541 447.604 94.6193 446.405ZM304.223 311.041C292.476 322.993 274.722 326.278 259.529 331.554C255.84 333.861 257.643 338.433 258.113 341.904C258.993 347.603 259.691 353.329 260.198 359.074C262.075 356.906 266.992 356.623 269.744 355.742L270.111 355.66C273.782 354.818 277.597 353.557 281.342 354.375C282.853 354.703 282.955 356.79 281.755 357.532C278.715 359.418 274.995 359.472 271.509 359.884L270.618 359.991C267.534 360.357 264.425 360.692 261.326 360.561C260.937 360.623 260.544 360.474 260.298 360.211C260.684 366.216 261.458 372.307 261.196 378.322C261.052 379.39 260.709 380.552 259.949 381.344L259.924 381.435C259.494 382.954 258.097 385.666 256.487 383.659L256.185 383.116C253.821 378.857 251.579 374.403 250.437 369.647C250.056 379.265 249.748 388.879 249.364 398.495L249.352 398.726C249.254 400.358 248.934 402.322 247.871 403.578C247.965 404.324 247.295 404.759 246.697 404.492L246.618 404.529C246.044 404.785 245.121 405.022 244.771 404.323C242.752 399.609 240.603 394.969 238.633 390.242C238.737 392.668 238.62 395.099 238.697 397.527C238.736 400.298 239.251 403.555 237.928 406.118C236.798 408.363 233.983 408.951 232.472 406.997C231.262 405.13 230.576 402.824 229.474 400.846C226.371 416.158 218.513 393.649 217.071 389.01C212.636 391.599 207.961 393.786 203.126 395.535C204.456 397.546 204.134 400.281 204.552 402.592C204.929 406.039 205.226 409.488 205.524 412.943L205.634 413.604C207.445 424.408 210.083 435.451 215.889 444.856C220.804 440.05 227.253 437.215 233.56 434.669C241.155 431.543 248.687 428.273 256.117 424.778C276.202 415.348 295.54 404.294 313.566 391.353L314.179 390.925C324.197 383.886 334.636 374.656 334.893 361.522C335.757 339.991 317.726 325.303 304.223 311.041ZM82.8521 298.837C65.703 282.772 39.4466 262 15.7612 277.262C-6.36283 295.959 11.1661 340.788 15.6852 364.93C21.4317 390.307 27.5051 415.614 33.1385 441.015C53.2265 443.662 73.6167 445.048 93.804 442.664C93.5757 424.754 92.3654 406.868 91.9699 388.951C91.6021 379.721 91.7299 370.454 90.3444 361.312C89.1686 353.878 90.6785 344.898 86.5325 338.404C84.998 336.04 82.5022 333.97 81.9444 331.119C81.9315 330.986 82.1057 330.942 82.1903 331.016C83.4037 332.082 84.3784 333.352 85.6656 334.373L86.6123 335.105C88.152 336.302 89.6856 337.58 90.639 339.282C90.737 338.557 88.8993 332.091 89.9999 332.863L90.2073 333.43C91.6873 337.494 93.0215 341.607 93.4013 345.955C94.854 360.778 95.6658 375.674 96.9097 390.519C99.91 391.869 102.667 393.854 105.943 394.572C111.31 395.102 116.683 394.802 122.059 394.732L122.563 394.726C138.248 394.492 153.884 395.371 169.558 395.123C185.579 395.744 201.956 391.553 215.629 383.134C208.138 349.347 233.86 325.25 245.753 296.368C232.053 299.819 218.419 303.525 204.757 307.161C206.601 311.663 200.638 324.419 198.394 328.939C186.386 352.578 162.104 368.027 140.268 345.466C140.278 345.535 140.286 345.605 140.294 345.676C139.56 345.008 138.75 344.42 137.934 343.856C136.837 352.845 133.871 361.906 128.272 369.124L127.661 369.889C125.915 372.064 123.387 374.923 120.591 373.28C118.532 372.168 118.145 370.004 118.544 367.821C111.818 375.131 104.489 376.782 109.085 364.203L108.933 364.36C106.36 366.999 99.5311 372.829 98.8359 365.936C99.1391 362.504 101.256 359.441 102.332 356.226C101.183 356.935 99.89 357.286 98.5743 356.782C95.0454 355.43 96.8613 351.4 97.6484 348.862C99.6415 342.447 101.675 336.043 103.743 329.652C103.026 325.852 105.296 322.072 103.168 318.769C102.258 319.245 101.031 319.145 100.152 317.972C94.9915 311.11 89.0694 304.752 82.8521 298.837ZM33.377 442.18C33.3824 442.219 33.3824 442.252 33.3847 442.29C33.5824 442.303 33.7774 442.321 33.9746 442.339C33.7735 442.29 33.575 442.232 33.377 442.18ZM202.785 417.508C199.62 384.962 207.833 400.289 174.475 400.659C174.625 401.474 173.552 401.38 173.931 401.153C173.448 399.355 170.709 404.625 170.327 405.309C169.607 406.835 169.278 408.735 169.025 410.404C167.237 419.755 173.899 427.946 183.613 423.971C182.363 423.867 180.958 424.318 179.92 423.52C179.925 423.518 179.928 423.513 179.932 423.508C179.003 421.845 184.1 421.773 185.114 421.329C189.063 420.504 193.023 419.739 196.95 418.814C198.863 418.363 200.823 417.657 202.785 417.508ZM234.855 404.933C234.571 404.766 234.717 405.312 234.812 405.035C234.825 404.999 234.842 404.966 234.855 404.933ZM270.775 231.151C256.498 232.168 247.255 239.21 237.123 248.24C236.366 248.893 235.599 249.534 234.814 250.153C239.241 257.905 244.015 265.452 248.628 273.097L249.493 274.535C250.838 276.777 252.152 279.06 252.953 281.558C255.682 290.18 246.152 305.356 242.689 313.822C226.118 343.026 210.552 363.301 225.63 397.891C226.439 395.708 224.651 388.088 227.325 387.791L227.271 387.25C226.416 378.457 226.378 367.867 229.046 360.103C227.569 375.127 229.169 390.872 234.871 404.897C236.362 391.6 234.386 376.747 234.845 363.089C234.827 360.989 238.007 361.012 238.097 363.089L238.206 366.615C238.578 378.566 239.222 391.081 246.181 401.191C246.851 385.801 244.04 369.589 249.441 354.833C249.883 353.771 251.472 353.852 251.519 355.115C251.618 360.138 253.745 377.14 257.415 380.089C258.423 377.014 258.32 373.649 258.159 370.428C257.659 358.754 255.973 347.364 253.904 335.854C253.53 333.579 254.2 330.78 256.558 329.903C258.31 328.238 260.729 327.058 262.73 326.11C275.443 319.838 292.933 321.046 301.532 308.127L301.95 307.498C302.952 305.983 303.892 304.487 304.315 302.67C303.156 298.347 301.49 294.134 300.075 289.89C298.811 286.14 297.513 282.403 296.151 278.688L295.695 277.45C289.616 260.879 281.877 244.973 270.775 231.151ZM172.331 400.713C172.005 400.818 171.748 401.143 171.471 401.386L171.411 401.436L171.58 401.302C171.759 401.157 171.921 401.023 172.17 400.833L172.331 400.713ZM97.0354 392.175L97.1124 393.179V393.179C97.6048 393.279 98.0872 393.404 98.5694 393.527C98.01 393.123 97.4896 392.675 97.0354 392.175ZM169.773 369.501C169.717 369.304 169.999 369.188 170.104 369.362C174.254 376.651 182.422 379.553 190.287 380.709C191.625 381.021 191.461 382.867 190.287 383.256C185.891 384.711 180.815 382.752 177.216 380.143C173.528 377.472 171.012 373.864 169.773 369.501ZM248.88 365.34C248.101 370.951 248.172 376.673 248.105 382.337C248.361 376.673 248.574 371.004 248.88 365.34ZM134.323 375.221C135.138 375.503 135.982 375.687 136.813 375.759C135.931 376.179 134.923 375.969 134.323 375.221ZM70.3435 193.775C57.8709 207.876 46.9517 223.312 33.5365 236.564C25.6759 243.657 18.239 253.352 24.3694 264.027C25.6623 264.537 25.8896 266.438 24.7746 267.333C25.0409 267.298 26.7519 266.471 26.3674 267.148C22.9308 268.613 19.9092 270.736 17.3059 273.304C33.5258 261.391 55.0327 270.929 69.1791 281.606C76.1607 286.699 82.652 292.312 88.7306 298.353C90.9058 298.742 93.1549 299.902 94.9679 300.808C107.473 306.806 109.432 314.911 108.4 327.867C104.647 335.01 102.872 343.178 100.257 350.836C97.5676 356.79 102.859 352.777 103.617 350.18C105.458 347.892 106.347 344.851 107.475 342.191L107.556 342.002C107.877 341.241 108.564 340.675 109.449 340.929C110.16 341.132 110.819 342.009 110.543 342.769L109.976 344.226C107.233 351.266 104.398 358.343 102.214 365.557C109.596 361.143 113.25 352.788 117.126 345.41C118.19 343.448 121.055 345.177 120.096 347.144C119.206 348.959 118.298 350.769 117.336 352.549C114.822 357.897 113 363.54 111.491 369.247C119.788 364.306 122.68 354.24 125.066 345.746C125.213 343.322 128.713 343.799 128.352 346.178C127.464 350.9 126.11 355.553 123.992 359.878L123.432 363.148C123.059 365.328 122.69 367.509 122.337 369.693C122.537 369.595 122.753 369.583 122.96 369.634C130.311 362.243 133.254 352.046 135.82 342.245C134.6 338.1 136.094 333.861 135.923 329.588C136.572 324.116 134.805 319.017 132.357 314.132C130.89 299.019 116.312 292.464 106.148 283.581C93.6991 271.297 87.1537 252.49 69.6561 246.402C67.8369 246.517 66.0831 246.127 64.3803 245.542C64.306 245.521 64.2931 245.393 64.3803 245.38C66.1123 245.098 67.8433 244.656 69.5794 244.341C70.0473 242.817 71.9178 242.631 73.3243 243.312C88.4541 236.691 100.994 225.048 113.017 213.971C101.278 203.128 86.0788 196.397 70.3435 193.775ZM139.963 347.479C140.214 347.758 140.434 348.06 140.599 348.391C140.644 348.475 140.639 348.576 140.653 348.67C140.437 348.265 140.209 347.866 139.963 347.479ZM91.9676 301.646C96.1472 306.024 100.16 310.587 103.938 315.361C102.583 308.471 98.1457 304.489 91.9676 301.646ZM231.855 249.19C222.779 265.558 208.57 279.937 205.247 298.916C204.981 300.539 204.962 302.184 204.929 303.822C215.06 299.698 225.725 297.129 236.176 293.963C240.137 292.907 243.984 291.243 248.146 291.032C251.576 285.094 248.821 279.281 245.802 273.865C241.868 265.267 235.645 257.831 231.855 249.19ZM85.6069 241.229C82.9829 242.7 80.2767 244.045 77.4226 244.999C79.8797 246.243 82.1262 247.815 84.2065 249.605C85.2517 246.948 85.6431 244.069 85.6069 241.229ZM152.325 146.874C150.963 158.865 151.029 171.238 154.218 182.941C158.974 201.18 176.583 218.231 196.506 214.655C216.609 210.46 226.489 189.673 230.633 171.395C220.047 157.984 203.475 149.595 186.396 148.92C175.29 148.467 162.736 152.041 152.325 146.874Z" fill="black"/>
<path fill-rule="evenodd" clip-rule="evenodd" d="M239.202 121.194C238.662 116.458 239.361 106.558 239.408 105.957C239.704 102.154 237.919 87.1396 234.547 88.5231C228.889 84.0507 221.354 83.0631 214.307 82.5914C199.671 81.6113 184.101 83.8611 172.799 93.6969C167.21 98.8048 161.769 106.234 162.206 113.969C157.128 121.301 149.969 131.359 156.296 139.931C158.447 142.67 161.865 143.69 164.567 145.764C170.001 150.141 173.41 156.422 178.896 160.773C193.43 173.815 218.109 176.539 232.389 161.705C243.431 150.962 241.646 134.89 239.704 121.194C238.398 111.986 240.255 130.434 239.202 121.194Z" fill="white"/>
<path fill-rule="evenodd" clip-rule="evenodd" d="M194.755 62.5061C198.669 61.7174 202.688 61.2266 206.686 61.3743L206.994 61.3863C210.002 61.5063 213.811 61.7718 216.434 63.5183C216.585 63.367 216.828 63.2894 217.048 63.3943C220.166 64.8804 223.595 65.9549 226.878 67.0226C230.146 68.0851 233.537 68.7864 236.962 69.0691C238.25 69.1755 239.353 70.565 238.537 71.8113C238.343 72.1082 238.154 72.4082 237.966 72.7089C238.281 72.6761 238.596 72.6423 238.911 72.6105C239.947 72.5064 240.982 73.6109 240.921 74.6185C240.883 75.2523 240.814 75.8785 240.713 76.4972C241.107 76.489 241.5 76.5481 241.879 76.7081C243.799 77.5176 243.665 79.801 243.522 81.5383C243.322 83.9491 242.419 86.5027 240.743 88.3071C241.995 89.6054 242.881 91.1559 243.409 92.9973C243.793 94.342 244.006 95.7743 243.901 97.174L243.867 97.5931C243.737 99.1121 243.478 100.794 242.384 101.887C241.822 102.45 241.13 102.655 240.47 102.59C240.869 106.091 241.125 109.611 241.366 113.119L241.479 114.796C242.016 122.904 242.419 131.065 242.314 139.186C242.216 146.776 240.714 154.143 236.052 160.305C231.807 165.916 225.711 170.053 218.815 171.625C215.099 172.474 211.305 172.534 207.543 171.994C205.72 171.731 203.885 171.327 202.154 170.691C200.239 169.985 198.862 168.946 197.573 167.389C196.964 166.65 197.257 165.077 198.471 165.225C200.307 165.447 201.983 165.715 203.743 166.258L203.995 166.337C205.748 166.898 207.563 167.316 209.396 167.494C213.15 167.857 216.962 167.491 220.558 166.355C226.413 164.502 231.456 160.372 234.688 155.184C238.525 149.034 238.958 142.053 238.903 134.982C238.844 127.222 238.591 119.458 238.178 111.707L238.108 110.415C237.89 106.426 237.679 102.435 237.494 98.4435C237.436 97.1915 237.349 95.9295 237.19 94.68C235.744 93.8337 234.447 92.6668 233.602 91.227C231.905 91.9281 230.119 92.4339 228.476 92.8371C224.671 93.7716 220.721 93.9984 216.848 93.4133C215.803 93.8442 214.738 94.2231 213.656 94.5491C213.364 94.6785 213.071 94.8057 212.779 94.9304C210.171 96.0447 207.526 96.9887 204.772 97.6798L204.096 97.8482C202.647 98.2049 201.074 98.5561 199.532 98.6664C199.278 98.7641 199.005 98.8467 198.706 98.9193C197.302 99.2598 195.845 99.3675 194.406 99.2473C193.004 99.1296 191.991 97.7149 192.763 96.3903C193.328 95.4237 193.897 94.4597 194.471 93.4981C192.473 94.3295 190.409 95.0206 188.328 95.6065C186.226 96.1975 184.095 96.6958 181.961 97.154C180.82 97.3969 179.674 97.6122 178.536 97.8551C177.721 98.0279 176.469 98.118 175.805 98.6539C175.07 99.2423 174.862 100.615 174.583 101.461C174.217 102.56 173.874 103.664 173.56 104.781C172.936 107.01 172.425 109.271 172.028 111.554C171.632 113.841 171.366 116.149 171.218 118.466C171.07 120.779 171.135 123.108 170.897 125.412C170.769 126.634 169.456 127.262 168.485 126.408C168.371 126.308 168.257 126.207 168.143 126.104L167.974 125.95C167.143 125.199 166.338 124.403 165.674 123.506C165.554 123.341 165.438 123.168 165.331 122.993C165.313 122.993 165.298 122.988 165.28 122.975L165.096 122.837C163.068 121.329 159.68 119.364 157.703 121.868C157.072 122.666 156.75 123.682 156.482 124.662L156.012 126.416C155.708 127.561 155.422 128.712 155.255 129.884C154.876 132.508 155.067 135.533 156.875 137.636C157.597 138.477 158.593 139.078 159.703 139.236C160.323 139.321 160.935 139.216 161.549 139.139C162.174 139.061 162.775 139.186 163.4 139.126C164.393 139.028 164.827 140.215 164.455 140.961C164.255 141.362 164.019 141.708 163.751 142.001C163.966 142.186 164.172 142.386 164.37 142.597C164.957 142.784 165.483 143.188 165.877 143.721C166.196 144.152 166.361 144.62 166.389 145.113C166.424 145.236 166.454 145.361 166.482 145.489L167.02 146.361C167.138 146.552 167.256 146.741 167.374 146.926C168.743 149.079 170.263 150.902 172.151 152.62C173.969 154.273 175.942 155.753 177.65 157.525L177.852 157.736C179.444 159.411 181.122 161.439 180.499 163.876C180.339 164.502 179.463 164.952 178.892 164.529C177.054 163.167 176.128 161.008 174.569 159.356C172.963 157.653 171.186 156.123 169.576 154.425C168.054 152.823 166.852 151.008 165.947 149.009C165.586 149.407 165.06 149.69 164.33 149.801C163.076 149.988 161.907 149.255 161.361 148.17C161.01 148.326 160.651 148.466 160.29 148.576C158.389 149.157 157.193 147.046 157.911 145.486C158.294 144.65 158.773 143.924 159.368 143.313C157.509 143.057 155.618 142.098 154.397 140.901C151.333 137.894 150.912 133.374 151.602 129.355C151.968 127.225 152.599 125.069 153.42 123.068C153.562 122.72 153.715 122.369 153.883 122.024C153.79 122.021 153.695 121.981 153.635 121.904C153.081 121.147 152.406 120.529 151.995 119.682C151.616 118.906 151.195 118.12 150.897 117.311C150.283 115.656 149.982 113.788 149.781 112.038C149.367 108.455 149.528 104.894 150.077 101.333C151.012 95.2685 153.271 89.4647 156.599 84.3721C156.417 84.277 156.244 84.1622 156.082 84.0265L156.002 83.9569L155.872 83.8397C154.923 82.9816 155.005 81.3733 155.872 80.5041L156.146 80.2299C156.493 79.8856 156.792 79.6129 157.353 79.2381C157.436 79.1828 157.52 79.1307 157.606 79.0821C157.312 78.5408 157.211 77.9077 157.415 77.2094C158.127 74.7765 161.633 74.8626 163.855 75.9236C166.313 73.7328 169.039 71.831 171.993 70.2911C179.03 66.6252 186.986 64.0686 194.755 62.5061ZM158.382 126.584C159.696 126.155 161.441 127.054 162.622 127.595C164.12 128.281 165.393 129.295 166.627 130.367C167.241 130.903 167.352 131.779 167.199 132.528C167.184 132.603 167.169 132.681 167.151 132.758C166.988 133.557 166.095 134.186 165.305 134.163C163.653 134.118 162.866 132.693 161.93 131.486C161.82 131.682 161.682 131.862 161.511 131.997L161.396 132.087C161.008 132.382 160.58 132.618 160.067 132.596C159.703 132.578 159.355 132.485 159.034 132.318C158.231 131.894 157.878 130.858 158.096 130.014C158.231 129.483 158.542 129.067 158.949 128.78L158.797 128.676C158.473 128.451 158.178 128.214 157.947 127.863L157.895 127.78H157.915C157.665 127.35 157.828 126.764 158.382 126.584Z" fill="black"/>
<path fill-rule="evenodd" clip-rule="evenodd" d="M220.216 127.796C222.11 128.945 224.995 131.625 222.958 134.475C220.56 136.987 217.108 134.106 215.407 132.804C213.829 131.794 212.057 134.391 213.52 135.57C225.813 144.658 230.802 128.096 221.174 126.445C220.114 126.263 219.72 127.44 220.216 127.796ZM203.108 105.877L203.579 105.794L203.82 105.754C205.23 105.521 206.902 105.365 207.876 106.47C208.422 107.09 208.61 108.243 207.876 108.836C206.584 109.88 205.156 109.476 203.608 109.564C202.332 109.637 201.105 109.848 199.876 110.199C197.18 110.968 194.983 112.373 192.681 113.916C192.379 114.118 192.07 113.732 192.214 113.45C193.544 110.85 196.12 108.714 198.7 107.412C200.077 106.718 201.584 106.141 203.108 105.877ZM215.58 141.794C219.7 142.093 228.63 140.129 232.338 143.075C246.312 160.5 190.911 164.979 196.895 145.702C200.705 139.469 209.471 141.974 215.58 141.794ZM214.873 152.313C213.854 152.23 212.618 153.036 212.318 153.659C212.019 154.282 212.135 155.599 212.144 155.827C213.926 156.006 215.723 156.033 217.509 155.916C217.045 154.383 217.03 152.545 214.873 152.313ZM223.1 154.885C222.813 152.982 221.45 152.532 220.347 152.817C219.218 153.109 218.556 154.407 218.628 155.562C218.632 155.641 218.586 155.709 218.556 155.773C220.09 155.592 221.61 155.294 223.1 154.885ZM210.463 152.658C209.821 151.682 208.285 151.211 207.302 151.383C205.697 151.72 205.507 153.758 205.507 154.173C206.987 154.736 208.558 155.11 210.061 155.408C210.363 155.468 210.665 155.521 210.968 155.571L210.988 155.324C211.024 154.794 211.051 153.551 210.463 152.658ZM228.625 152.497C226.979 149.953 223.44 151.774 223.733 154.553C224.047 154.454 224.36 154.351 224.672 154.242C225.965 153.792 227.384 153.257 228.625 152.497ZM215.665 143.734C213.45 143.535 211.633 143.602 210.189 143.869L210.145 144.351C209.985 146.021 209.779 147.664 210.658 148.336C211.371 148.882 213.739 148.83 215.327 148.435C215.719 148.336 216.229 144.871 215.665 143.734ZM219.089 143.535C218.734 145.181 218.568 147.18 219.28 147.774C220.033 148.401 222.455 148.316 223.089 147.898C223.644 147.533 223.629 145.851 223.424 143.964C222.197 143.675 220.06 143.535 219.089 143.535ZM209.21 143.886L208.484 143.892L208.074 143.898C207.036 143.916 205.916 143.976 204.858 144.207C202.755 148.745 210.434 149.528 209.248 144.054L209.21 143.886ZM224.401 143.995L224.387 144.252C224.324 145.527 224.366 147.206 225.073 147.659C226.114 148.326 228.068 148.197 229.126 145.112C228.776 144.192 225.061 144.063 224.401 143.995ZM204.02 116.937C204.464 116.937 204.889 117.088 205.277 117.366C205.658 117.641 206.003 118.041 206.29 118.541C206.834 119.486 207.174 120.792 207.174 122.235C207.174 123.679 206.834 124.984 206.29 125.93C206.003 126.429 205.658 126.83 205.277 127.104C204.889 127.383 204.464 127.534 204.02 127.534C203.575 127.534 203.15 127.383 202.762 127.104C202.381 126.83 202.036 126.429 201.749 125.93C201.205 124.984 200.865 123.679 200.865 122.235C200.865 120.792 201.205 119.486 201.749 118.541C202.036 118.041 202.381 117.641 202.762 117.366C203.15 117.088 203.575 116.937 204.02 116.937ZM232.165 116.937C232.609 116.937 233.035 117.088 233.422 117.366C233.803 117.641 234.148 118.041 234.436 118.541C234.98 119.486 235.32 120.792 235.32 122.235C235.32 123.679 234.98 124.984 234.436 125.93C234.148 126.429 233.803 126.83 233.422 127.104C233.035 127.383 232.609 127.534 232.165 127.534C231.72 127.534 231.295 127.383 230.908 127.104C230.526 126.83 230.181 126.429 229.894 125.93C229.35 124.984 229.01 123.679 229.01 122.235C229.01 120.792 229.35 119.486 229.894 118.541C230.181 118.041 230.526 117.641 230.908 117.366C231.295 117.088 231.72 116.937 232.165 116.937ZM228.335 104.712L228.696 104.786L228.935 104.836C232.821 105.671 237.749 107.317 239.568 111.085C239.639 111.629 239.564 111.746 239.503 111.822L239.483 111.847C239.433 111.912 239.393 112.002 239.157 112.076C239.092 112.06 239.025 112.044 238.959 112.026C238.107 111.803 237.434 111.497 236.782 111.178L236.075 110.83C235.255 110.429 234.428 110.042 233.551 109.756C231.68 109.147 229.755 108.717 227.8 108.488C227.377 108.439 226.969 108.296 226.647 108.051C226.342 107.819 226.108 107.497 226.002 107.07C225.864 106.517 225.904 106.098 226.201 105.599C226.424 105.224 226.744 104.964 227.111 104.815C227.486 104.663 227.912 104.627 228.335 104.712Z" fill="black"/>
<path fill-rule="evenodd" clip-rule="evenodd" d="M197.876 153.544C199.906 148.794 204.337 145.304 209.439 144.028C213.185 143.093 217.117 143.123 220.936 143.494C222.937 143.687 225.083 143.845 226.969 144.587C228.579 145.221 229.891 146.419 230.878 147.825C232.052 149.492 232.851 151.4 233.412 153.355C233.492 153.633 233.567 153.913 233.637 154.194C233.393 155.67 232.875 156.925 231.506 157.853C230.171 158.758 228.578 159.129 226.99 159.26C226.834 159.186 226.684 159.109 226.546 159.03C224.071 157.615 222.329 154.272 219.205 154.725C216.417 155.129 214.582 158.631 212.924 160.685C207.603 161.304 202.285 159.708 197.955 156.669C197.735 155.629 197.722 154.58 197.876 153.544M237.254 149.941C236.828 148.748 236.292 147.593 235.656 146.504C233.555 142.905 230.329 140.037 226.5 138.398C217.443 134.525 205.723 137.255 198.408 143.606C195.909 145.778 193.382 148.968 192.618 152.401C192.39 152.446 192.175 152.564 191.997 152.731C186.713 149.409 181.27 146.212 177.011 141.606C173.918 138.26 171.767 134.299 170.45 129.948C170.342 129.589 169.764 129.642 169.781 130.038C169.786 130.131 169.791 130.223 169.796 130.316C169.741 130.146 169.481 130.233 169.461 130.399C168.752 135.685 167.866 141.29 168.682 146.604C169.17 149.775 170.613 152.097 172.541 154.603C174.607 157.29 176.946 159.789 179.338 162.186C180.855 163.707 182.44 165.462 184.299 166.578C186.46 167.874 188.911 168.859 191.218 169.859C193.564 170.879 195.946 171.822 198.373 172.639C203.223 174.278 208.237 175.411 213.338 175.907C217.423 176.303 222.09 176.735 226.005 175.201C229.005 174.025 231.426 171.9 233.347 169.342C235.438 166.558 237.091 163.385 238.005 160.04C238.955 156.565 237.454 150.501 237.254 149.941" fill="black"/>
</svg>
